<svg xmlns="http://www.w3.org/2000/svg" xmlns:xlink="http://www.w3.org/1999/xlink" width="600" zoomAndPan="magnify" viewBox="0 0 450 78.749999" height="105" preserveAspectRatio="xMidYMid meet" version="1.0"><defs><g/><clipPath id="0650202971"><path d="M 0.710938 0 L 212 0 L 212 78.5 L 0.710938 78.5 Z M 0.710938 0 " clip-rule="nonzero"/></clipPath></defs><g clip-path="url(#0650202971)"><path stroke-linecap="butt" transform="matrix(0.747627, 0, 0, 0.747627, 17.073034, 3.798544)" fill="none" stroke-linejoin="miter" d="M 17.886306 39.696313 C 17.395169 39.429844 16.747285 39.539567 16.470367 40.025479 C 12.79206 45.610863 6.668515 54.921577 2.661042 54.064699 C 2.013158 53.892278 1.469772 53.469064 1.083132 52.753257 C 0.00158411 50.809606 0.15833 46.90663 1.401849 43.494791 C 2.765539 39.853059 4.390473 38.943932 4.70919 38.99618 C 4.761439 39.048429 5.09583 39.748561 4.656941 41.430969 C 4.500195 42.026604 4.829362 42.564765 5.372748 42.737186 C 5.968383 42.846908 6.506544 42.512516 6.668515 41.96913 C 7.697814 38.071379 5.90046 37.209276 5.372748 36.984606 C 3.361174 36.388971 0.926386 38.781961 -0.541802 42.789434 C -1.785321 46.154249 -2.328707 50.914103 -0.703773 53.787781 C -0.0506646 55.031299 0.978634 55.799355 2.222153 56.060598 C 2.55132 56.165095 2.870036 56.165095 3.199203 56.165095 C 7.912034 56.165095 13.00628 49.07495 18.205023 41.1645 C 18.53419 40.673363 18.377444 40.025479 17.886306 39.696313 Z M 37.604957 40.291948 C 37.113819 40.025479 36.465935 40.18745 36.199467 40.673363 C 31.052973 48.918204 26.716332 52.596511 25.791531 52.262119 C 25.791531 52.262119 24.704758 51.671709 25.739282 45.438442 C 26.120697 43.332821 26.277444 42.141551 25.248145 41.707887 C 24.281544 41.321246 23.685909 42.141551 22.546888 43.756035 C 21.622086 45.067477 20.378568 46.802133 19.014877 47.993402 C 18.858131 48.0979 18.262497 48.641286 17.985579 48.427066 C 17.175724 47.779183 17.018978 44.247172 18.91038 41.007754 C 19.239547 40.516617 19.014877 39.853059 18.528965 39.539567 C 18.048277 39.257424 17.389944 39.429844 17.123475 39.920982 C 14.955155 43.703786 14.740936 48.427066 16.632338 49.989302 C 17.123475 50.428191 18.471491 51.191021 20.378568 49.618336 C 21.622086 48.531564 22.708859 47.115625 23.565737 45.92958 C 22.813356 50.966352 23.252245 53.521312 25.033925 54.221445 C 25.300393 54.325942 25.577311 54.325942 25.791531 54.325942 C 29.919176 54.325942 36.570433 43.928455 37.934123 41.760135 C 38.25284 41.268998 38.096094 40.621114 37.604957 40.291948 Z M 59.225459 39.748561 C 58.682073 39.482093 58.034189 39.696313 57.825194 40.239699 C 51.591927 53.348892 45.677377 60.068072 44.38161 59.859077 C 44.277113 59.806828 42.370036 57.967675 48.498806 39.152926 C 48.655552 38.661789 49.036967 37.527993 48.180089 36.932358 C 47.359784 36.284474 46.434983 36.880109 44.924996 37.909408 C 43.294837 38.943932 41.074269 40.396445 39.339613 40.18745 C 44.872747 30.646842 44.329361 28.53077 43.085843 27.720916 C 41.126517 26.58712 38.310314 29.894461 37.014547 31.785863 C 34.355089 35.897834 34.407338 39.644064 37.223541 41.535466 C 40.097218 43.54704 43.838224 41.112252 46.064017 39.644064 C 46.116266 39.591815 46.116266 39.591815 46.168515 39.539567 C 44.052443 46.206498 42.704427 51.45749 42.21329 55.083548 C 41.617655 59.106696 42.051319 61.207093 43.561306 61.802728 C 43.838224 61.854976 44.052443 61.9229 44.329361 61.9229 C 48.655552 61.9229 56.195036 48.589037 59.716596 41.1645 C 59.925591 40.621114 59.716596 39.973231 59.225459 39.748561 Z M 37.328039 36.018006 C 38.096094 33.08163 40.640605 30.380374 41.774401 29.73249 C 41.669904 30.594593 41.074269 33.029382 37.610181 39.048429 C 37.223541 38.452794 36.962298 37.527993 37.328039 36.018006 Z M 80.845961 39.748561 C 80.302575 39.482093 79.654691 39.696313 79.445697 40.239699 C 73.21243 53.348892 67.297879 60.068072 66.002112 59.859077 C 65.897615 59.806828 63.990538 57.967675 70.119308 39.152926 C 70.276054 38.661789 70.657469 37.527993 69.800591 36.932358 C 68.980287 36.284474 68.055485 36.880109 66.545498 37.909408 C 64.920565 38.943932 62.694771 40.396445 60.960115 40.18745 C 66.49325 30.646842 65.949864 28.53077 64.706345 27.720916 C 62.74702 26.58712 59.930816 29.894461 58.635049 31.785863 C 55.975591 35.897834 56.02784 39.644064 58.844044 41.535466 C 61.717721 43.54704 65.458726 41.112252 67.68452 39.644064 C 67.736768 39.591815 67.736768 39.591815 67.789017 39.539567 C 65.672946 46.206498 64.32493 51.45749 63.833792 55.083548 C 63.238157 59.106696 63.677046 61.207093 65.181808 61.802728 C 65.458726 61.854976 65.672946 61.9229 65.949864 61.9229 C 70.276054 61.9229 77.815538 48.589037 81.337099 41.1645 C 81.546093 40.621114 81.337099 39.973231 80.845961 39.748561 Z M 58.953766 36.018006 C 59.716596 33.08163 62.261107 30.380374 63.394903 29.73249 C 63.290406 30.594593 62.694771 33.029382 59.230684 39.048429 C 58.844044 38.452794 58.5828 37.527993 58.953766 36.018006 Z M 96.990802 39.920982 C 96.515339 39.591815 95.851781 39.696313 95.533064 40.18745 C 91.473342 45.872106 88.166001 49.445916 84.910908 51.786656 C 83.285974 52.925678 81.708064 53.139897 80.689215 52.382291 C 80.030882 51.896379 78.029758 49.722834 80.360049 42.141551 C 85.611041 37.804911 88.484718 33.687715 87.727112 31.519395 C 87.465869 30.871511 86.80231 30.432622 86.102178 30.432622 C 83.933858 30.490096 80.626517 34.231101 78.468646 41.216749 C 75.809189 49.832556 77.977509 52.977926 79.487496 54.064699 C 80.255551 54.660334 81.112429 54.921577 82.094705 54.921577 C 83.338223 54.921577 84.754162 54.435664 86.102178 53.469064 C 89.566265 50.966352 92.983329 47.288045 97.215472 41.37872 C 97.534188 40.887582 97.429691 40.239699 96.990802 39.920982 Z M 85.663289 32.710665 C 85.454294 33.572768 84.529493 35.302199 81.990207 37.909408 C 83.390472 34.758813 84.910908 33.254051 85.663289 32.710665 Z M 116.239215 39.920982 C 115.748077 39.644064 115.100194 39.80081 114.823276 40.344196 C 113.527508 42.564765 110.11567 48.589037 108.156344 48.374818 C 107.785379 48.306895 106.698606 47.779183 105.617059 43.980704 C 104.849003 41.321246 103.830154 38.834209 101.81858 38.719262 C 100.350392 38.60954 98.735908 39.748561 96.233196 44.419593 C 96.88108 42.078852 97.596887 39.748561 98.140273 37.857159 C 98.349268 37.157027 98.511239 36.561392 98.667985 35.965757 C 98.840405 35.422371 98.511239 34.826736 97.967853 34.654315 C 97.424466 34.497569 96.828831 34.826736 96.672085 35.422371 C 96.515339 35.965757 96.342919 36.613641 96.128699 37.261524 C 94.71276 42.078852 92.612363 49.393667 92.068977 53.840029 C 92.016728 54.325942 92.33022 54.81708 92.821358 54.921577 C 92.925855 54.979051 92.978104 54.979051 93.098276 54.979051 C 93.52149 54.979051 93.90813 54.712582 94.064876 54.325942 C 99.159122 41.655638 101.222945 40.783085 101.714083 40.783085 C 101.81858 40.783085 102.570961 41.007754 103.605485 44.576339 C 104.687032 48.306895 106.102971 50.213971 107.942125 50.428191 C 110.70608 50.757357 113.198342 47.345519 116.61018 41.37872 C 116.939347 40.835334 116.714678 40.239699 116.239215 39.920982 Z M 159.532468 20.024686 C 158.827111 19.058085 155.681741 18.462451 122.033593 19.214831 C 123.120365 14.825943 124.086966 10.865493 124.959519 7.667874 C 125.116265 7.072239 124.787098 6.528853 124.259387 6.372107 C 123.716 6.210136 123.120365 6.528853 122.947945 7.072239 C 122.033593 10.484078 121.004294 14.611723 119.865273 19.26708 C 116.876649 19.324554 113.637231 19.376802 110.10522 19.4813 C 105.287892 19.601472 101.489413 19.705969 100.0369 19.705969 C 99.441265 19.705969 98.950128 20.197107 98.950128 20.735268 C 98.950128 21.330903 99.441265 21.82204 100.0369 21.82204 C 101.541662 21.754117 105.340141 21.701868 110.167918 21.545122 C 112.707204 21.492874 115.857799 21.440625 119.37936 21.330903 C 117.049069 31.190228 114.389612 43.003654 112.007072 54.555836 C 110.272416 62.993997 108.856477 70.308812 107.94735 75.679976 C 107.456212 78.501405 107.127045 80.721973 106.965075 82.24241 C 106.75608 84.295783 106.635908 85.487053 107.670432 85.868468 C 107.827178 85.868468 107.94735 85.920717 108.104096 85.920717 C 109.028897 85.920717 109.509585 84.62495 109.943249 83.43368 C 110.167918 82.890293 109.891 82.294659 109.347614 82.069989 C 109.243117 82.069989 109.190868 82.017741 109.086371 82.017741 C 109.624532 77.796048 111.239016 68.312913 114.389612 53.348892 C 116.719902 42.026604 119.269638 30.699091 121.54768 21.278654 C 136.443778 20.949488 155.786238 20.683019 158.006807 21.440625 C 158.393447 21.754117 158.87936 21.754117 159.318248 21.492874 C 159.741463 21.158482 159.861635 20.510599 159.532468 20.024686 Z M 161.42387 39.748561 C 160.880484 39.482093 160.2326 39.696313 160.023606 40.239699 C 153.790338 53.348892 147.875788 60.068072 146.580021 59.859077 C 146.475524 59.806828 144.568447 57.967675 150.691992 39.152926 C 150.853963 38.661789 151.235378 37.527993 150.3785 36.932358 C 149.558196 36.284474 148.628169 36.880109 147.123407 37.909408 C 145.493249 38.943932 143.27268 40.396445 141.538024 40.18745 C 147.071159 30.646842 146.527772 28.53077 145.284254 27.720916 C 143.324929 26.58712 140.508725 29.894461 139.212958 31.785863 C 136.5535 35.897834 136.605749 39.644064 139.421952 41.535466 C 142.29563 43.54704 146.036635 41.112252 148.262428 39.644064 C 148.314677 39.591815 148.314677 39.591815 148.366926 39.539567 C 146.250854 46.206498 144.897614 51.45749 144.411701 55.083548 C 143.816066 59.106696 144.24973 61.207093 145.759717 61.802728 C 146.036635 61.854976 146.250854 61.9229 146.527772 61.9229 C 150.853963 61.9229 158.393447 48.589037 161.915008 41.1645 C 162.124002 40.621114 161.915008 39.973231 161.42387 39.748561 Z M 139.52645 36.018006 C 140.294505 33.08163 142.833791 30.380374 143.972812 29.73249 C 143.868315 30.594593 143.27268 33.029382 139.808593 39.048429 C 139.421952 38.452794 139.155484 37.527993 139.52645 36.018006 Z M 177.568711 39.920982 C 177.093248 39.591815 176.42969 39.696313 176.110973 40.18745 C 172.051251 45.872106 168.74391 49.445916 165.488817 51.786656 C 163.858658 52.925678 162.285973 53.139897 161.267124 52.382291 C 160.608791 51.896379 158.607666 49.722834 160.937957 42.141551 C 166.188949 37.804911 169.062627 33.687715 168.305021 31.519395 C 168.043777 30.871511 167.380219 30.432622 166.680087 30.432622 C 164.511767 30.490096 161.204426 34.231101 159.046555 41.216749 C 156.387098 49.832556 158.555418 52.977926 160.065405 54.064699 C 160.83346 54.660334 161.690338 54.921577 162.672613 54.921577 C 163.916132 54.921577 165.332071 54.435664 166.680087 53.469064 C 170.144174 50.966352 173.561238 47.288045 177.79338 41.37872 C 178.112097 40.887582 178.002375 40.239699 177.568711 39.920982 Z M 166.241198 32.710665 C 166.032203 33.572768 165.107402 35.302199 162.562891 37.909408 C 163.968381 34.758813 165.488817 33.254051 166.241198 32.710665 Z M 197.674002 39.973231 C 197.188089 39.748561 196.540206 39.973231 196.325986 40.464368 C 192.198341 48.850281 189.115669 51.509738 187.647481 51.248495 C 187.051846 51.128323 185.108195 49.989302 184.617058 40.516617 C 184.617058 40.077728 184.287891 39.696313 183.916925 39.591815 C 183.478036 39.482093 182.992124 39.591815 182.777904 39.973231 C 182.448738 40.344196 182.130021 40.783085 181.800854 41.268998 C 180.447613 43.108151 178.650259 45.610863 176.492388 47.935929 C 176.163222 48.306895 175.896753 48.531564 175.724333 48.641286 C 175.358592 46.749884 177.354492 39.482093 180.557335 37.209276 C 181.466462 36.561392 182.725655 36.070254 184.408063 38.013905 C 184.773804 38.452794 185.426912 38.505043 185.860576 38.123627 C 186.299465 37.804911 186.351714 37.104778 186.017322 36.665889 C 183.969174 34.28335 182.009849 34.335598 180.714081 34.758813 C 176.544637 36.232225 173.728433 44.247172 173.623936 47.935929 C 173.556013 49.445916 173.994902 50.428191 174.867455 50.757357 C 176.21547 51.300744 177.579161 49.832556 178.002375 49.341418 C 179.857203 47.345519 181.534386 45.171974 182.725655 43.494791 C 183.32129 49.670585 184.773804 52.753257 187.224267 53.296643 C 187.433261 53.296643 187.647481 53.348892 187.87215 53.348892 C 191.550457 53.348892 195.505682 46.90663 198.165139 41.37872 C 198.431608 40.835334 198.217388 40.239699 197.674002 39.973231 Z M 218.322679 6.753522 C 217.941263 6.424355 217.450126 6.314633 216.974663 6.424355 C 214.633922 7.192411 210.464478 18.514699 206.457004 37.157027 C 206.347282 37.475744 206.180086 37.752662 206.018115 38.071379 C 205.756872 35.965757 204.340933 35.370122 203.849795 35.197702 C 201.519504 34.497569 197.841198 36.613641 195.291462 42.026604 C 193.342587 46.102 192.961171 51.405241 195.39596 52.805506 C 196.587229 53.521312 198.651052 53.40114 201.624002 49.07495 C 202.935444 47.235797 204.074465 45.438442 205.161237 43.703786 C 204.565602 46.802133 203.969967 50.057225 203.426581 53.469064 C 202.392057 59.52991 201.624002 64.618931 201.200787 68.312913 C 200.328235 75.52323 200.767123 76.489831 201.853896 76.818997 C 201.958393 76.871246 202.115139 76.871246 202.219637 76.871246 C 203.201912 76.871246 203.849795 75.627727 204.178962 74.807423 C 204.44543 74.33196 204.231211 73.668402 203.687824 73.459407 C 203.426581 73.302661 203.097414 73.302661 202.830946 73.407159 C 202.935444 71.076868 203.47883 65.757952 205.474729 53.840029 C 206.457004 47.88368 207.486303 42.564765 208.468578 37.909408 C 212.528301 30.207953 214.576449 23.713442 216.258856 18.566948 C 216.483525 17.919064 216.697745 17.323429 216.854491 16.780043 C 219.722943 8.153787 218.651845 7.134937 218.322679 6.753522 Z M 199.894571 47.88368 C 197.841198 50.861855 196.707401 51.128323 196.425258 51.018601 C 195.620629 50.532688 195.343711 46.802133 197.193314 42.899157 C 199.032467 38.99618 201.519504 37.157027 202.883195 37.157027 C 203.039941 37.157027 203.149663 37.157027 203.25416 37.209276 C 204.126713 37.41827 203.969967 38.99618 203.902044 39.429844 C 203.849795 39.920982 204.126713 40.396445 204.617851 40.568866 C 203.25416 42.899157 201.691925 45.333945 199.894571 47.88368 Z M 214.91084 16.12171 C 214.696621 16.665096 214.471951 17.255506 214.315205 17.919064 C 213.33293 20.84499 212.251383 24.152331 210.793644 27.882887 C 213.071687 18.885665 215.119835 13.248033 216.431277 10.431829 C 216.206607 11.743271 215.71547 13.582424 214.91084 16.12171 Z M 236.264874 39.591815 C 235.825985 39.205175 235.178102 39.257424 234.791462 39.696313 C 230.522745 44.628588 223.79834 52.492014 222.716792 53.892278 C 222.382401 54.273693 222.068909 54.712582 221.734517 55.146246 C 221.300853 54.064699 220.757467 53.030175 220.057335 51.948627 C 217.450126 47.935929 215.119835 44.142675 215.224332 41.483217 C 215.344504 39.377596 216.431277 37.527993 218.218181 36.44122 C 219.670695 35.579117 221.300853 35.422371 222.544372 36.018006 C 223.030285 36.232225 223.678168 36.018006 223.908062 35.47462 C 224.169306 34.988707 223.960311 34.335598 223.416925 34.110929 C 221.577771 33.254051 219.184782 33.463046 217.131409 34.654315 C 214.748869 36.122503 213.33293 38.557291 213.176184 41.37872 C 213.019438 44.686061 215.396753 48.641286 218.322679 53.082424 C 219.24748 54.487913 219.843115 55.851603 220.214081 57.147371 C 215.992388 62.8895 211.441528 70.256564 213.771819 72.534606 C 214.153234 72.916021 214.633922 73.072767 215.119835 73.072767 C 215.992388 73.072767 216.974663 72.649553 217.993512 71.829249 C 220.929888 69.399685 223.960311 63.86655 222.492123 57.581035 C 223.087758 56.828654 223.678168 56.008349 224.341726 55.20372 C 225.428499 53.840029 232.137229 45.981828 236.369372 41.060003 C 236.750787 40.621114 236.688089 39.973231 236.264874 39.591815 Z M 218.651845 67.931497 C 217.183658 70.099817 215.71547 70.97237 215.224332 71.024619 C 215.015338 70.256564 215.71547 67.121643 220.757467 59.963574 C 220.982136 63.86655 219.351978 66.844725 218.651845 67.931497 Z M 218.651845 67.931497 " stroke="#ffffff" stroke-width="4.0644" stroke-opacity="1" stroke-miterlimit="4"/></g><g fill="#000000" fill-opacity="1"><g transform="translate(17.073034, 42.675126)"><g><path d="M 13.375 -9.203125 C 13 -9.40625 12.515625 -9.3125 12.3125 -8.953125 C 9.5625 -4.78125 4.984375 2.1875 1.984375 1.546875 C 1.5 1.421875 1.09375 1.09375 0.8125 0.5625 C 0 -0.890625 0.125 -3.8125 1.046875 -6.359375 C 2.0625 -9.078125 3.28125 -9.765625 3.53125 -9.71875 C 3.5625 -9.6875 3.8125 -9.15625 3.484375 -7.90625 C 3.359375 -7.453125 3.609375 -7.046875 4.015625 -6.921875 C 4.453125 -6.84375 4.859375 -7.09375 4.984375 -7.5 C 5.75 -10.40625 4.421875 -11.0625 4.015625 -11.21875 C 2.515625 -11.671875 0.6875 -9.890625 -0.40625 -6.890625 C -1.34375 -4.375 -1.734375 -0.8125 -0.53125 1.34375 C -0.046875 2.265625 0.734375 2.84375 1.65625 3.03125 C 1.90625 3.125 2.140625 3.125 2.390625 3.125 C 5.921875 3.125 9.71875 -2.1875 13.609375 -8.109375 C 13.859375 -8.46875 13.734375 -8.953125 13.375 -9.203125 Z M 13.375 -9.203125 "/></g></g></g><g fill="#000000" fill-opacity="1"><g transform="translate(29.064595, 42.675126)"><g><path d="M 16.125 -8.75 C 15.765625 -8.953125 15.28125 -8.828125 15.078125 -8.46875 C 11.21875 -2.3125 7.984375 0.453125 7.296875 0.203125 C 7.296875 0.203125 6.484375 -0.25 7.25 -4.90625 C 7.53125 -6.484375 7.65625 -7.375 6.890625 -7.703125 C 6.15625 -7.984375 5.71875 -7.375 4.859375 -6.15625 C 4.171875 -5.1875 3.234375 -3.890625 2.234375 -3 C 2.109375 -2.921875 1.65625 -2.515625 1.453125 -2.671875 C 0.84375 -3.15625 0.734375 -5.796875 2.140625 -8.21875 C 2.390625 -8.59375 2.234375 -9.078125 1.859375 -9.3125 C 1.5 -9.515625 1.015625 -9.40625 0.8125 -9.03125 C -0.8125 -6.203125 -0.96875 -2.671875 0.453125 -1.5 C 0.8125 -1.171875 1.828125 -0.609375 3.234375 -1.78125 C 4.171875 -2.59375 4.984375 -3.640625 5.625 -4.53125 C 5.0625 -0.765625 5.390625 1.140625 6.71875 1.65625 C 6.921875 1.734375 7.125 1.734375 7.296875 1.734375 C 10.375 1.734375 15.359375 -6.03125 16.375 -7.65625 C 16.609375 -8.015625 16.484375 -8.515625 16.125 -8.75 Z M 16.125 -8.75 "/></g></g></g><g fill="#000000" fill-opacity="1"><g transform="translate(43.567907, 42.675126)"><g><path d="M 17.78125 -9.15625 C 17.375 -9.359375 16.890625 -9.203125 16.734375 -8.796875 C 12.078125 1.015625 7.65625 6.03125 6.6875 5.875 C 6.609375 5.828125 5.1875 4.453125 9.765625 -9.609375 C 9.890625 -9.96875 10.171875 -10.8125 9.515625 -11.265625 C 8.90625 -11.75 8.21875 -11.296875 7.09375 -10.53125 C 5.875 -9.765625 4.21875 -8.671875 2.921875 -8.828125 C 7.046875 -15.96875 6.640625 -17.546875 5.71875 -18.15625 C 4.25 -19 2.140625 -16.53125 1.171875 -15.109375 C -0.8125 -12.03125 -0.765625 -9.234375 1.34375 -7.8125 C 3.484375 -6.328125 6.28125 -8.140625 7.9375 -9.234375 C 7.984375 -9.28125 7.984375 -9.28125 8.015625 -9.3125 C 6.4375 -4.328125 5.421875 -0.40625 5.0625 2.3125 C 4.625 5.3125 4.9375 6.890625 6.078125 7.328125 C 6.28125 7.375 6.4375 7.421875 6.640625 7.421875 C 9.890625 7.421875 15.515625 -2.546875 18.15625 -8.109375 C 18.3125 -8.515625 18.15625 -9 17.78125 -9.15625 Z M 1.421875 -11.953125 C 1.984375 -14.140625 3.890625 -16.171875 4.734375 -16.65625 C 4.65625 -16 4.21875 -14.1875 1.625 -9.6875 C 1.34375 -10.125 1.140625 -10.8125 1.421875 -11.953125 Z M 1.421875 -11.953125 "/></g></g></g><g fill="#000000" fill-opacity="1"><g transform="translate(59.732218, 42.675126)"><g><path d="M 17.78125 -9.15625 C 17.375 -9.359375 16.890625 -9.203125 16.734375 -8.796875 C 12.078125 1.015625 7.65625 6.03125 6.6875 5.875 C 6.609375 5.828125 5.1875 4.453125 9.765625 -9.609375 C 9.890625 -9.96875 10.171875 -10.8125 9.515625 -11.265625 C 8.90625 -11.75 8.21875 -11.296875 7.09375 -10.53125 C 5.875 -9.765625 4.21875 -8.671875 2.921875 -8.828125 C 7.046875 -15.96875 6.640625 -17.546875 5.71875 -18.15625 C 4.25 -19 2.140625 -16.53125 1.171875 -15.109375 C -0.8125 -12.03125 -0.765625 -9.234375 1.34375 -7.8125 C 3.484375 -6.328125 6.28125 -8.140625 7.9375 -9.234375 C 7.984375 -9.28125 7.984375 -9.28125 8.015625 -9.3125 C 6.4375 -4.328125 5.421875 -0.40625 5.0625 2.3125 C 4.625 5.3125 4.9375 6.890625 6.078125 7.328125 C 6.28125 7.375 6.4375 7.421875 6.640625 7.421875 C 9.890625 7.421875 15.515625 -2.546875 18.15625 -8.109375 C 18.3125 -8.515625 18.15625 -9 17.78125 -9.15625 Z M 1.421875 -11.953125 C 1.984375 -14.140625 3.890625 -16.171875 4.734375 -16.65625 C 4.65625 -16 4.21875 -14.1875 1.625 -9.6875 C 1.34375 -10.125 1.140625 -10.8125 1.421875 -11.953125 Z M 1.421875 -11.953125 "/></g></g></g><g fill="#000000" fill-opacity="1"><g transform="translate(75.896528, 42.675126)"><g><path d="M 13.6875 -9.03125 C 13.328125 -9.28125 12.84375 -9.203125 12.59375 -8.828125 C 9.5625 -4.578125 7.09375 -1.90625 4.65625 -0.15625 C 3.4375 0.6875 2.265625 0.84375 1.5 0.28125 C 1.015625 -0.078125 -0.484375 -1.703125 1.25 -7.375 C 5.1875 -10.609375 7.328125 -13.6875 6.765625 -15.3125 C 6.5625 -15.796875 6.078125 -16.125 5.546875 -16.125 C 3.9375 -16.078125 1.453125 -13.296875 -0.15625 -8.0625 C -2.140625 -1.625 -0.53125 0.734375 0.609375 1.546875 C 1.171875 1.984375 1.828125 2.1875 2.546875 2.1875 C 3.484375 2.1875 4.53125 1.828125 5.546875 1.09375 C 8.140625 -0.765625 10.703125 -3.53125 13.859375 -7.9375 C 14.09375 -8.3125 14.015625 -8.796875 13.6875 -9.03125 Z M 5.21875 -14.421875 C 5.0625 -13.78125 4.375 -12.484375 2.46875 -10.53125 C 3.53125 -12.890625 4.65625 -14.015625 5.21875 -14.421875 Z M 5.21875 -14.421875 "/></g></g></g><g fill="#000000" fill-opacity="1"><g transform="translate(87.68553, 42.675126)"><g><path d="M 16.28125 -9.03125 C 15.921875 -9.234375 15.4375 -9.109375 15.234375 -8.703125 C 14.265625 -7.046875 11.703125 -2.546875 10.25 -2.71875 C 9.96875 -2.75 9.15625 -3.15625 8.34375 -6 C 7.78125 -7.984375 7.015625 -9.84375 5.515625 -9.921875 C 4.421875 -10 3.203125 -9.15625 1.34375 -5.671875 C 1.828125 -7.421875 2.34375 -9.15625 2.75 -10.578125 C 2.921875 -11.09375 3.03125 -11.546875 3.15625 -12 C 3.28125 -12.390625 3.03125 -12.84375 2.640625 -12.96875 C 2.234375 -13.09375 1.78125 -12.84375 1.65625 -12.390625 C 1.546875 -12 1.421875 -11.5 1.25 -11.015625 C 0.203125 -7.421875 -1.375 -1.9375 -1.78125 1.375 C -1.828125 1.734375 -1.578125 2.109375 -1.21875 2.1875 C -1.140625 2.234375 -1.09375 2.234375 -1.015625 2.234375 C -0.6875 2.234375 -0.40625 2.03125 -0.28125 1.734375 C 3.53125 -7.734375 5.0625 -8.390625 5.421875 -8.390625 C 5.515625 -8.390625 6.078125 -8.21875 6.84375 -5.546875 C 7.65625 -2.75 8.703125 -1.34375 10.09375 -1.171875 C 12.15625 -0.9375 14.015625 -3.484375 16.578125 -7.9375 C 16.8125 -8.34375 16.65625 -8.796875 16.28125 -9.03125 Z M 16.28125 -9.03125 "/></g></g></g><g fill="#000000" fill-opacity="1"><g transform="translate(102.148333, 42.675126)"><g><path d="M 34.1875 -23.90625 C 33.671875 -24.640625 31.3125 -25.078125 6.15625 -24.515625 C 6.96875 -27.796875 7.703125 -30.75 8.34375 -33.140625 C 8.46875 -33.59375 8.21875 -34 7.8125 -34.109375 C 7.421875 -34.234375 6.96875 -34 6.84375 -33.59375 C 6.15625 -31.03125 5.390625 -27.953125 4.53125 -24.46875 C 2.3125 -24.4375 -0.125 -24.390625 -2.75 -24.3125 C -6.359375 -24.234375 -9.203125 -24.140625 -10.296875 -24.140625 C -10.734375 -24.140625 -11.09375 -23.78125 -11.09375 -23.375 C -11.09375 -22.9375 -10.734375 -22.5625 -10.296875 -22.5625 C -9.15625 -22.609375 -6.328125 -22.640625 -2.71875 -22.765625 C -0.8125 -22.8125 1.546875 -22.84375 4.171875 -22.9375 C 2.4375 -15.5625 0.453125 -6.71875 -1.34375 1.90625 C -2.640625 8.21875 -3.6875 13.6875 -4.375 17.703125 C -4.734375 19.8125 -4.984375 21.46875 -5.109375 22.609375 C -5.265625 24.140625 -5.34375 25.03125 -4.578125 25.328125 C -4.453125 25.328125 -4.375 25.359375 -4.25 25.359375 C -3.5625 25.359375 -3.203125 24.390625 -2.875 23.5 C -2.71875 23.09375 -2.921875 22.640625 -3.328125 22.484375 C -3.40625 22.484375 -3.4375 22.453125 -3.53125 22.453125 C -3.125 19.28125 -1.90625 12.1875 0.453125 1.015625 C 2.1875 -7.453125 4.09375 -15.921875 5.796875 -22.96875 C 16.9375 -23.21875 31.40625 -23.421875 33.0625 -22.84375 C 33.34375 -22.609375 33.703125 -22.609375 34.03125 -22.8125 C 34.359375 -23.046875 34.4375 -23.546875 34.1875 -23.90625 Z M 34.1875 -23.90625 "/></g></g></g><g fill="#000000" fill-opacity="1"><g transform="translate(107.536433, 42.675126)"><g/></g></g><g fill="#000000" fill-opacity="1"><g transform="translate(119.973631, 42.675126)"><g><path d="M 17.78125 -9.15625 C 17.375 -9.359375 16.890625 -9.203125 16.734375 -8.796875 C 12.078125 1.015625 7.65625 6.03125 6.6875 5.875 C 6.609375 5.828125 5.1875 4.453125 9.765625 -9.609375 C 9.890625 -9.96875 10.171875 -10.8125 9.515625 -11.265625 C 8.90625 -11.75 8.21875 -11.296875 7.09375 -10.53125 C 5.875 -9.765625 4.21875 -8.671875 2.921875 -8.828125 C 7.046875 -15.96875 6.640625 -17.546875 5.71875 -18.15625 C 4.25 -19 2.140625 -16.53125 1.171875 -15.109375 C -0.8125 -12.03125 -0.765625 -9.234375 1.34375 -7.8125 C 3.484375 -6.328125 6.28125 -8.140625 7.9375 -9.234375 C 7.984375 -9.28125 7.984375 -9.28125 8.015625 -9.3125 C 6.4375 -4.328125 5.421875 -0.40625 5.0625 2.3125 C 4.625 5.3125 4.9375 6.890625 6.078125 7.328125 C 6.28125 7.375 6.4375 7.421875 6.640625 7.421875 C 9.890625 7.421875 15.515625 -2.546875 18.15625 -8.109375 C 18.3125 -8.515625 18.15625 -9 17.78125 -9.15625 Z M 1.421875 -11.953125 C 1.984375 -14.140625 3.890625 -16.171875 4.734375 -16.65625 C 4.65625 -16 4.21875 -14.1875 1.625 -9.6875 C 1.34375 -10.125 1.140625 -10.8125 1.421875 -11.953125 Z M 1.421875 -11.953125 "/></g></g></g><g fill="#000000" fill-opacity="1"><g transform="translate(136.137941, 42.675126)"><g><path d="M 13.6875 -9.03125 C 13.328125 -9.28125 12.84375 -9.203125 12.59375 -8.828125 C 9.5625 -4.578125 7.09375 -1.90625 4.65625 -0.15625 C 3.4375 0.6875 2.265625 0.84375 1.5 0.28125 C 1.015625 -0.078125 -0.484375 -1.703125 1.25 -7.375 C 5.1875 -10.609375 7.328125 -13.6875 6.765625 -15.3125 C 6.5625 -15.796875 6.078125 -16.125 5.546875 -16.125 C 3.9375 -16.078125 1.453125 -13.296875 -0.15625 -8.0625 C -2.140625 -1.625 -0.53125 0.734375 0.609375 1.546875 C 1.171875 1.984375 1.828125 2.1875 2.546875 2.1875 C 3.484375 2.1875 4.53125 1.828125 5.546875 1.09375 C 8.140625 -0.765625 10.703125 -3.53125 13.859375 -7.9375 C 14.09375 -8.3125 14.015625 -8.796875 13.6875 -9.03125 Z M 5.21875 -14.421875 C 5.0625 -13.78125 4.375 -12.484375 2.46875 -10.53125 C 3.53125 -12.890625 4.65625 -14.015625 5.21875 -14.421875 Z M 5.21875 -14.421875 "/></g></g></g><g fill="#000000" fill-opacity="1"><g transform="translate(147.926943, 42.675126)"><g><path d="M 16.9375 -9 C 16.578125 -9.15625 16.078125 -9 15.921875 -8.625 C 12.84375 -2.34375 10.53125 -0.359375 9.4375 -0.5625 C 9 -0.640625 7.53125 -1.5 7.171875 -8.59375 C 7.171875 -8.90625 6.921875 -9.203125 6.640625 -9.28125 C 6.328125 -9.359375 5.953125 -9.28125 5.796875 -9 C 5.546875 -8.703125 5.3125 -8.390625 5.0625 -8.015625 C 4.046875 -6.640625 2.71875 -4.78125 1.09375 -3.03125 C 0.84375 -2.75 0.640625 -2.59375 0.53125 -2.515625 C 0.25 -3.9375 1.734375 -9.359375 4.125 -11.0625 C 4.828125 -11.546875 5.75 -11.90625 7.015625 -10.453125 C 7.296875 -10.125 7.78125 -10.09375 8.109375 -10.375 C 8.421875 -10.609375 8.46875 -11.140625 8.21875 -11.46875 C 6.6875 -13.25 5.21875 -13.203125 4.25 -12.890625 C 1.140625 -11.796875 -0.96875 -5.796875 -1.046875 -3.03125 C -1.09375 -1.90625 -0.765625 -1.171875 -0.125 -0.9375 C 0.890625 -0.53125 1.90625 -1.625 2.234375 -1.984375 C 3.609375 -3.484375 4.859375 -5.109375 5.75 -6.359375 C 6.203125 -1.734375 7.296875 0.5625 9.109375 0.96875 C 9.28125 0.96875 9.4375 1.015625 9.609375 1.015625 C 12.359375 1.015625 15.3125 -3.8125 17.296875 -7.9375 C 17.5 -8.34375 17.34375 -8.796875 16.9375 -9 Z M 16.9375 -9 "/></g></g></g><g fill="#000000" fill-opacity="1"><g transform="translate(162.997421, 42.675126)"><g><path d="M 17.296875 -33.828125 C 17.015625 -34.078125 16.65625 -34.15625 16.28125 -34.078125 C 14.546875 -33.5 11.421875 -25.03125 8.421875 -11.09375 C 8.34375 -10.859375 8.21875 -10.65625 8.109375 -10.40625 C 7.90625 -12 6.84375 -12.4375 6.484375 -12.5625 C 4.734375 -13.09375 1.984375 -11.5 0.078125 -7.453125 C -1.375 -4.421875 -1.65625 -0.453125 0.15625 0.609375 C 1.046875 1.140625 2.59375 1.046875 4.828125 -2.1875 C 5.796875 -3.5625 6.640625 -4.90625 7.453125 -6.203125 C 7.015625 -3.890625 6.5625 -1.453125 6.15625 1.09375 C 5.390625 5.625 4.828125 9.4375 4.5 12.1875 C 3.84375 17.578125 4.171875 18.3125 4.984375 18.5625 C 5.0625 18.59375 5.1875 18.59375 5.265625 18.59375 C 6 18.59375 6.484375 17.671875 6.71875 17.0625 C 6.921875 16.6875 6.765625 16.203125 6.359375 16.046875 C 6.15625 15.921875 5.921875 15.921875 5.71875 16 C 5.796875 14.265625 6.203125 10.296875 7.703125 1.375 C 8.421875 -3.078125 9.203125 -7.046875 9.921875 -10.53125 C 12.96875 -16.28125 14.5 -21.15625 15.765625 -25 C 15.921875 -25.484375 16.078125 -25.9375 16.203125 -26.328125 C 18.359375 -32.78125 17.546875 -33.546875 17.296875 -33.828125 Z M 3.53125 -3.078125 C 1.984375 -0.84375 1.140625 -0.640625 0.9375 -0.734375 C 0.328125 -1.09375 0.125 -3.890625 1.5 -6.8125 C 2.875 -9.71875 4.734375 -11.09375 5.75 -11.09375 C 5.875 -11.09375 5.953125 -11.09375 6.03125 -11.0625 C 6.6875 -10.90625 6.5625 -9.71875 6.515625 -9.40625 C 6.484375 -9.03125 6.6875 -8.671875 7.046875 -8.546875 C 6.03125 -6.8125 4.859375 -4.984375 3.53125 -3.078125 Z M 14.75 -26.828125 C 14.578125 -26.421875 14.421875 -25.96875 14.296875 -25.484375 C 13.578125 -23.296875 12.765625 -20.828125 11.671875 -18.03125 C 13.375 -24.75 14.90625 -28.96875 15.875 -31.078125 C 15.71875 -30.109375 15.359375 -28.71875 14.75 -26.828125 Z M 14.75 -26.828125 "/></g></g></g><g fill="#000000" fill-opacity="1"><g transform="translate(175.677687, 42.675126)"><g><path d="M 18.03125 -9.28125 C 17.703125 -9.5625 17.21875 -9.515625 16.9375 -9.203125 C 13.734375 -5.515625 8.703125 0.359375 7.90625 1.421875 C 7.65625 1.703125 7.421875 2.03125 7.171875 2.34375 C 6.84375 1.546875 6.4375 0.765625 5.921875 -0.046875 C 3.96875 -3.03125 2.234375 -5.875 2.3125 -7.859375 C 2.390625 -9.4375 3.203125 -10.8125 4.53125 -11.625 C 5.625 -12.28125 6.84375 -12.390625 7.78125 -11.953125 C 8.140625 -11.796875 8.625 -11.953125 8.796875 -12.359375 C 9 -12.71875 8.828125 -13.203125 8.421875 -13.375 C 7.046875 -14.015625 5.265625 -13.859375 3.734375 -12.96875 C 1.9375 -11.875 0.890625 -10.046875 0.765625 -7.9375 C 0.640625 -5.46875 2.4375 -2.515625 4.625 0.8125 C 5.3125 1.859375 5.75 2.875 6.03125 3.84375 C 2.875 8.140625 -0.53125 13.65625 1.21875 15.359375 C 1.5 15.640625 1.859375 15.765625 2.234375 15.765625 C 2.875 15.765625 3.609375 15.4375 4.375 14.828125 C 6.5625 13 8.828125 8.875 7.734375 4.171875 C 8.1875 3.609375 8.625 3 9.109375 2.390625 C 9.921875 1.375 14.953125 -4.5 18.109375 -8.1875 C 18.390625 -8.515625 18.359375 -9 18.03125 -9.28125 Z M 4.859375 11.90625 C 3.765625 13.53125 2.671875 14.1875 2.3125 14.21875 C 2.140625 13.65625 2.671875 11.296875 6.4375 5.953125 C 6.609375 8.875 5.390625 11.09375 4.859375 11.90625 Z M 4.859375 11.90625 "/></g></g></g></svg>