<svg xmlns="http://www.w3.org/2000/svg" xmlns:xlink="http://www.w3.org/1999/xlink" width="600" zoomAndPan="magnify" viewBox="0 0 450 78.749999" height="105" preserveAspectRatio="xMidYMid meet" version="1.0"><defs><g/><clipPath id="672c024ada"><path d="M 0.710938 0 L 235 0 L 235 78.5 L 0.710938 78.5 Z M 0.710938 0 " clip-rule="nonzero"/></clipPath></defs><g clip-path="url(#672c024ada)"><path stroke-linecap="butt" transform="matrix(0.747627, 0, 0, 0.747627, 17.073034, 3.798544)" fill="none" stroke-linejoin="miter" d="M 21.564613 40.291948 C 21.073475 40.025479 20.425592 40.18745 20.164348 40.673363 C 15.017854 48.918204 10.675989 52.596511 9.751187 52.262119 C 9.751187 52.262119 8.664415 51.671709 9.698938 45.438442 C 10.080354 43.332821 10.242325 42.141551 9.207801 41.707887 C 8.2412 41.321246 7.645565 42.141551 6.506544 43.756035 C 5.581743 45.067477 4.338224 46.802133 2.974534 47.993402 C 2.817788 48.0979 2.222153 48.641286 1.945235 48.427066 C 1.13538 47.779183 0.978634 44.247172 2.870036 41.007754 C 3.199203 40.516617 2.974534 39.853059 2.488621 39.539567 C 2.013158 39.257424 1.3496 39.429844 1.083132 39.920982 C -1.085188 43.703786 -1.294183 48.427066 0.597219 49.989302 C 1.083132 50.428191 2.436372 51.191021 4.338224 49.618336 C 5.581743 48.531564 6.668515 47.115625 7.525394 45.92958 C 6.773013 50.966352 7.211901 53.521312 8.998806 54.221445 C 9.26005 54.325942 9.536968 54.325942 9.751187 54.325942 C 13.878833 54.325942 20.535314 43.928455 21.89378 41.760135 C 22.212496 41.268998 22.05575 40.621114 21.564613 40.291948 Z M 31.000724 31.89036 C 29.584785 31.467146 25.906478 31.733614 22.060975 42.951405 C 24.229295 30.699091 24.600261 28.53077 24.548012 28.159805 C 24.548012 27.616419 24.056875 27.125281 23.46124 27.182755 C 22.917854 27.235003 22.48419 27.668667 22.48419 28.212054 C 22.426716 28.964434 21.0787 36.284474 19.610512 44.73831 C 19.291795 46.577463 18.91038 48.479315 18.591663 50.428191 C 17.823608 50.705109 17.071227 50.966352 16.318846 51.191021 C 15.77546 51.352992 15.441068 51.896379 15.603039 52.492014 C 15.77546 53.030175 16.318846 53.348892 16.846557 53.192146 C 17.280221 53.082424 17.71911 52.925678 18.157999 52.805506 C 15.827708 66.03487 13.168251 81.160862 11.924732 89.442278 C 11.872483 89.985664 12.243449 90.523825 12.78161 90.576074 C 12.839084 90.576074 12.891333 90.633547 12.954031 90.633547 C 13.434719 90.633547 13.920632 90.262582 13.97288 89.771444 C 15.336571 81.756497 19.067126 62.727529 21.888555 51.191021 C 23.565737 50.318469 25.138422 49.341418 26.611835 48.202397 C 28.936901 46.310995 31.915076 43.280572 32.944375 39.325347 C 33.978898 35.688839 33.106346 32.553919 31.000724 31.89036 Z M 30.938025 38.781961 C 29.919176 42.622239 26.502113 46.034077 22.599137 48.427066 C 23.090274 46.577463 23.513489 45.015228 23.894904 43.876207 C 26.716332 35.579117 29.323541 33.901934 30.232668 33.901934 C 30.284917 33.901934 30.342391 33.901934 30.394639 33.901934 C 31.105221 34.110929 31.700856 36.018006 30.938025 38.781961 Z M 53.650525 39.696313 C 53.159388 39.429844 52.511504 39.539567 52.234586 40.025479 C 48.556279 45.610863 42.432734 54.921577 38.425261 54.064699 C 37.772152 53.892278 37.233991 53.469064 36.847351 52.753257 C 35.765803 50.809606 35.922549 46.90663 37.166068 43.494791 C 38.529758 39.853059 40.154692 38.943932 40.473409 38.99618 C 40.525658 39.048429 40.854824 39.748561 40.42116 41.430969 C 40.264414 42.026604 40.593581 42.564765 41.136967 42.737186 C 41.732602 42.846908 42.270763 42.512516 42.432734 41.96913 C 43.462033 38.071379 41.664679 37.209276 41.136967 36.984606 C 39.125393 36.388971 36.690605 38.781961 35.222417 42.789434 C 33.978898 46.154249 33.435512 50.914103 35.060446 53.787781 C 35.70833 55.031299 36.742853 55.799355 37.986372 56.060598 C 38.315539 56.165095 38.634255 56.165095 38.963422 56.165095 C 43.676253 56.165095 48.770499 49.07495 53.969242 41.1645 C 54.298409 40.673363 54.141663 40.025479 53.650525 39.696313 Z M 71.425525 40.239699 C 70.934387 39.853059 70.286504 39.973231 69.957337 40.396445 C 67.679295 43.332821 63.948739 45.767609 61.064612 45.224223 C 61.132536 44.842807 61.184784 44.471842 61.184784 44.090426 C 61.55575 37.961657 59.664348 36.718138 58.525327 36.509143 C 57.229559 36.232225 55.865869 37.209276 55.217985 38.834209 C 54.951517 38.719262 54.62235 38.719262 54.355882 38.943932 C 52.187562 40.291948 50.400657 43.756035 51.367258 47.502265 C 52.015142 49.722834 53.535578 51.128323 55.547152 51.128323 C 57.438554 51.128323 59.450128 49.722834 60.468977 47.235797 C 64.267456 48.045651 68.818316 45.224223 71.582271 41.707887 C 71.963686 41.216749 71.859189 40.568866 71.425525 40.239699 Z M 55.599401 49.07495 C 55.547152 49.07495 55.547152 49.07495 55.547152 49.07495 C 54.183462 49.022701 53.587827 47.71126 53.431081 46.958879 C 52.887694 45.119725 53.326583 42.564765 54.831345 41.1645 C 54.951517 43.003654 55.970366 45.015228 58.577575 46.415492 C 57.825194 48.150148 56.513753 49.07495 55.599401 49.07495 Z M 59.120962 43.980704 C 59.068713 44.090426 59.068713 44.194924 59.068713 44.299421 C 57.00489 42.951405 56.686173 41.216749 57.057139 39.853059 C 57.334057 38.99618 57.877443 38.557291 58.138686 38.557291 C 58.420829 38.60954 59.329956 39.644064 59.120962 43.980704 Z M 99.702509 39.920982 C 99.268845 39.539567 98.568712 39.591815 98.182072 40.025479 C 93.855882 45.119725 90.935181 46.415492 89.623739 45.92958 C 88.484718 45.490691 87.836834 43.332821 87.889083 39.920982 C 87.889083 39.325347 87.941331 37.857159 86.750062 37.580241 C 85.402046 37.261524 84.424996 38.834209 81.551318 44.842807 C 81.065406 45.872106 80.626517 46.802133 80.360049 47.345519 C 80.030882 47.935929 79.821887 48.254646 79.659916 48.427066 C 79.382998 47.88368 79.001583 46.467741 79.064281 44.35167 C 79.064281 43.280572 79.064281 42.35577 79.11653 41.603389 C 79.174004 39.205175 79.226252 38.348297 78.243977 37.961657 C 77.387099 37.700413 76.791464 38.505043 76.619043 38.781961 C 74.236504 42.026604 72.120432 45.333945 69.899864 49.341418 C 70.772416 45.610863 72.345102 40.239699 74.341001 35.741088 C 74.56567 35.197702 74.341001 34.549818 73.80284 34.335598 C 73.259453 34.110929 72.663818 34.335598 72.39735 34.878985 C 70.876914 38.400545 69.356477 42.899157 68.217456 47.345519 C 66.430551 54.487913 67.130684 54.81708 67.794242 55.146246 C 67.950988 55.20372 68.112959 55.255968 68.269705 55.255968 C 68.813091 55.255968 69.304229 54.869328 69.737893 54.064699 C 72.345102 49.07495 74.513422 45.386194 77.000459 41.760135 C 77.000459 42.512516 76.94821 43.385069 76.94821 44.35167 C 76.94821 46.034077 77.16243 50.057225 79.174004 50.595387 C 80.798937 50.966352 81.817787 48.970453 82.199202 48.306895 C 82.533593 47.71126 82.956808 46.802133 83.44272 45.767609 C 84.038355 44.52409 85.02063 42.460268 85.840935 41.060003 C 85.945432 44.842807 86.974731 47.173098 88.923607 47.88368 C 91.583064 48.918204 95.203898 46.69241 99.812231 41.37872 C 100.193646 40.939831 100.141397 40.291948 99.702509 39.920982 Z M 113.198342 39.696313 C 112.707204 39.377596 112.111569 39.539567 111.798077 40.025479 C 108.156344 45.872106 102.085048 51.405241 100.245895 50.65286 C 100.031675 50.532688 98.302244 49.513839 100.684784 40.344196 C 100.789281 39.748561 100.460114 39.205175 99.927178 39.048429 C 99.321093 38.943932 98.777707 39.257424 98.620961 39.80081 C 96.672085 47.450016 96.938554 51.509738 99.383792 52.544262 C 99.754757 52.701008 100.141397 52.753257 100.522813 52.753257 C 104.58776 52.753257 110.815802 45.490691 113.579757 41.112252 C 113.846225 40.621114 113.689479 39.973231 113.198342 39.696313 Z M 100.402641 35.302199 C 103.171821 35.47462 103.114347 32.010532 100.893778 32.762913 C 99.754757 33.08163 98.302244 35.197702 100.402641 35.302199 Z M 132.875193 39.920982 C 132.384056 39.644064 131.736172 39.80081 131.459254 40.344196 C 130.163487 42.564765 126.746424 48.589037 124.792323 48.374818 C 124.421357 48.306895 123.334585 47.779183 122.253037 43.980704 C 121.484982 41.321246 120.466133 38.834209 118.454559 38.719262 C 116.986371 38.60954 115.371887 39.748561 112.869175 44.419593 C 113.517059 42.078852 114.232865 39.748561 114.776252 37.857159 C 114.985246 37.157027 115.147217 36.561392 115.303963 35.965757 C 115.476384 35.422371 115.147217 34.826736 114.603831 34.654315 C 114.060445 34.497569 113.46481 34.826736 113.308064 35.422371 C 113.146093 35.965757 112.978897 36.613641 112.764678 37.261524 C 111.348739 42.078852 109.243117 49.393667 108.704956 53.840029 C 108.652707 54.325942 108.966199 54.81708 109.457336 54.921577 C 109.561834 54.979051 109.614082 54.979051 109.734254 54.979051 C 110.157469 54.979051 110.544109 54.712582 110.700855 54.325942 C 115.795101 41.655638 117.858924 40.783085 118.350061 40.783085 C 118.454559 40.783085 119.206939 41.007754 120.241463 44.576339 C 121.323011 48.306895 122.73895 50.213971 124.578103 50.428191 C 127.342058 50.757357 129.829095 47.345519 133.246159 41.37872 C 133.575326 40.835334 133.350656 40.239699 132.875193 39.920982 Z M 155.248077 40.025479 C 154.91891 39.539567 154.271026 39.429844 153.832137 39.696313 C 150.049333 42.141551 145.169307 45.333945 140.12731 49.445916 C 140.670696 45.71536 141.214082 41.760135 141.752243 37.527993 C 141.809717 36.984606 141.491 36.561392 141.052111 36.388971 C 140.560974 36.232225 140.022812 36.44122 139.808593 36.880109 C 138.883791 38.400545 136.328831 42.303522 134.228434 45.119725 C 133.350656 46.206498 132.864744 46.629712 132.598275 46.802133 C 132.054889 45.067477 133.737296 37.313773 137.149135 34.28335 C 138.497151 33.029382 139.756344 33.029382 141.10436 34.231101 C 141.543249 34.602067 142.191132 34.602067 142.572548 34.168403 C 142.943513 33.745188 142.891265 33.08163 142.509849 32.710665 C 140.351979 30.751339 138.392653 31.085731 137.149135 31.733614 C 132.760246 33.901934 130.100789 42.899157 130.482204 46.525215 C 130.586701 48.150148 131.354757 48.745783 131.950392 48.918204 C 133.40813 49.28917 134.824069 47.779183 135.853368 46.363244 C 136.94014 44.962979 138.073937 43.332821 139.092786 41.864633 C 138.669571 45.281696 138.183659 48.479315 137.692521 51.509738 C 131.898143 56.551736 126.08809 62.8895 121.709651 70.920122 C 118.40231 76.871246 117.320762 81.913243 116.986371 85.063838 C 116.552707 89.175809 117.148342 92.587648 118.668778 94.426801 C 119.489082 95.461325 120.507932 96.004711 121.646953 96.004711 C 121.976119 96.004711 122.357535 95.952463 122.7285 95.84274 C 127.942918 94.374553 134.766595 82.017741 139.583923 52.596511 C 145.221556 47.779183 150.749465 44.194924 154.91891 41.483217 C 155.410047 41.1645 155.577243 40.516617 155.248077 40.025479 Z M 122.185114 93.831166 C 121.432733 94.045386 120.837098 93.831166 120.293712 93.131034 C 118.229889 90.576074 117.916397 82.069989 123.496556 71.938971 C 127.27936 65.05782 132.164611 59.420188 137.096886 54.81708 C 132.164611 83.20901 125.664876 92.854116 122.185114 93.831166 Z M 193.175391 39.748561 C 192.637229 39.482093 191.989346 39.696313 191.775126 40.239699 C 185.541859 53.348892 179.632534 60.068072 178.331542 59.859077 C 178.227044 59.806828 176.325193 57.967675 182.448738 39.152926 C 182.605484 38.661789 182.992124 37.527993 182.130021 36.932358 C 181.309716 36.284474 180.384915 36.880109 178.874928 37.909408 C 177.249994 38.943932 175.024201 40.396445 173.294769 40.18745 C 178.822679 30.646842 178.279293 28.53077 177.035775 27.720916 C 175.081674 26.58712 172.260246 29.894461 170.964478 31.785863 C 168.305021 35.897834 168.357269 39.644064 171.178698 41.535466 C 174.04715 43.54704 177.79338 41.112252 180.013949 39.644064 C 180.066198 39.591815 180.066198 39.591815 180.118447 39.539567 C 178.002375 46.206498 176.654359 51.45749 176.163222 55.083548 C 175.567587 59.106696 176.006476 61.207093 177.511238 61.802728 C 177.79338 61.854976 178.002375 61.9229 178.279293 61.9229 C 182.605484 61.9229 190.150192 48.589037 193.666528 41.1645 C 193.880748 40.621114 193.666528 39.973231 193.175391 39.748561 Z M 171.283195 36.018006 C 172.051251 33.08163 174.590537 30.380374 175.729558 29.73249 C 175.619835 30.594593 175.024201 33.029382 171.560113 39.048429 C 171.178698 38.452794 170.91223 37.527993 171.283195 36.018006 Z M 209.320232 39.920982 C 208.844769 39.591815 208.181211 39.696313 207.867719 40.18745 C 203.802772 45.872106 200.49543 49.445916 197.240338 51.786656 C 195.615404 52.925678 194.042719 53.139897 193.02387 52.382291 C 192.360311 51.896379 190.364412 49.722834 192.689478 42.141551 C 197.945695 37.804911 200.814147 33.687715 200.061766 31.519395 C 199.795298 30.871511 199.13174 30.432622 198.431608 30.432622 C 196.263288 30.490096 192.955946 34.231101 190.798076 41.216749 C 188.138618 49.832556 190.312163 52.977926 191.816925 54.064699 C 192.584981 54.660334 193.447084 54.921577 194.424134 54.921577 C 195.667653 54.921577 197.083592 54.435664 198.431608 53.469064 C 201.90092 50.966352 205.312758 47.288045 209.544901 41.37872 C 209.863618 40.887582 209.759121 40.239699 209.320232 39.920982 Z M 197.997944 32.710665 C 197.783724 33.572768 196.858922 35.302199 194.319637 37.909408 C 195.719901 34.758813 197.240338 33.254051 197.997944 32.710665 Z M 229.430747 39.973231 C 228.93961 39.748561 228.291726 39.973231 228.077507 40.464368 C 223.949861 48.850281 220.867189 51.509738 219.399002 51.248495 C 218.803367 51.128323 216.859716 49.989302 216.373803 40.516617 C 216.373803 40.077728 216.039412 39.696313 215.668446 39.591815 C 215.234782 39.482093 214.743644 39.591815 214.53465 39.973231 C 214.200258 40.344196 213.881541 40.783085 213.552375 41.268998 C 212.204359 43.108151 210.407004 45.610863 208.249134 47.935929 C 207.919967 48.306895 207.653499 48.531564 207.481078 48.641286 C 207.110113 46.749884 209.106012 39.482093 212.308856 37.209276 C 213.223208 36.561392 214.477176 36.070254 216.159584 38.013905 C 216.530549 38.452794 217.178433 38.505043 217.617322 38.123627 C 218.050986 37.804911 218.103234 37.104778 217.774068 36.665889 C 215.720695 34.28335 213.766594 34.335598 212.470827 34.758813 C 208.301383 36.232225 205.485179 44.247172 205.375457 47.935929 C 205.312758 49.445916 205.746422 50.428191 206.618975 50.757357 C 207.972216 51.300744 209.330682 49.832556 209.753896 49.341418 C 211.608724 47.345519 213.291131 45.171974 214.477176 43.494791 C 215.072811 49.670585 216.530549 52.753257 218.975787 53.296643 C 219.190007 53.296643 219.399002 53.348892 219.623671 53.348892 C 223.301978 53.348892 227.257202 46.90663 229.91666 41.37872 C 230.183128 40.835334 229.974134 40.239699 229.430747 39.973231 Z M 250.074199 6.753522 C 249.692784 6.424355 249.201647 6.314633 248.726184 6.424355 C 246.385443 7.192411 242.215999 18.514699 238.208525 37.157027 C 238.104028 37.475744 237.931607 37.752662 237.774861 38.071379 C 237.508393 35.965757 236.092454 35.370122 235.601316 35.197702 C 233.27625 34.497569 229.597943 36.613641 227.042983 42.026604 C 225.099332 46.102 224.712692 51.405241 227.14748 52.805506 C 228.33875 53.521312 230.402573 53.40114 233.380747 49.07495 C 234.692189 47.235797 235.825985 45.438442 236.912758 43.703786 C 236.317123 46.802133 235.721488 50.057225 235.178102 53.469064 C 234.148803 59.52991 233.380747 64.618931 232.957533 68.312913 C 232.08498 75.52323 232.518644 76.489831 233.605417 76.818997 C 233.709914 76.871246 233.871885 76.871246 233.976382 76.871246 C 234.953433 76.871246 235.601316 75.627727 235.935708 74.807423 C 236.196951 74.33196 235.987956 73.668402 235.44457 73.459407 C 235.178102 73.302661 234.848935 73.302661 234.582467 73.407159 C 234.692189 71.076868 235.23035 65.757952 237.231475 53.840029 C 238.208525 47.88368 239.243049 42.564765 240.220099 37.909408 C 244.279821 30.207953 246.333194 23.713442 248.010377 18.566948 C 248.240271 17.919064 248.449266 17.323429 248.606012 16.780043 C 251.479689 8.153787 250.408591 7.134937 250.074199 6.753522 Z M 231.646091 47.88368 C 229.597943 50.861855 228.458922 51.128323 228.182004 51.018601 C 227.37215 50.532688 227.095232 46.802133 228.95006 42.899157 C 230.789213 38.99618 233.27625 37.157027 234.634716 37.157027 C 234.796686 37.157027 234.901184 37.157027 235.005681 37.209276 C 235.883459 37.41827 235.721488 38.99618 235.653565 39.429844 C 235.601316 39.920982 235.883459 40.396445 236.369372 40.568866 C 235.005681 42.899157 233.448671 45.333945 231.646091 47.88368 Z M 246.662361 16.12171 C 246.453366 16.665096 246.228697 17.255506 246.066726 17.919064 C 245.089676 20.84499 244.002903 24.152331 242.55039 27.882887 C 244.823207 18.885665 246.87658 13.248033 248.182797 10.431829 C 247.958128 11.743271 247.472215 13.582424 246.662361 16.12171 Z M 268.016395 39.591815 C 267.577506 39.205175 266.929623 39.257424 266.548207 39.696313 C 262.274265 44.628588 255.555086 52.492014 254.468313 53.892278 C 254.139147 54.273693 253.82043 54.712582 253.491263 55.146246 C 253.052374 54.064699 252.508988 53.030175 251.808856 51.948627 C 249.201647 47.935929 246.87658 44.142675 246.981078 41.483217 C 247.10125 39.377596 248.182797 37.527993 249.969702 36.44122 C 251.42744 35.579117 253.052374 35.422371 254.295893 36.018006 C 254.78703 36.232225 255.434914 36.018006 255.659583 35.47462 C 255.926051 34.988707 255.711832 34.335598 255.168445 34.110929 C 253.329292 33.254051 250.936303 33.463046 248.888155 34.654315 C 246.505615 36.122503 245.089676 38.557291 244.927705 41.37872 C 244.770959 44.686061 247.153498 48.641286 250.074199 53.082424 C 251.004226 54.487913 251.599861 55.851603 251.970826 57.147371 C 247.749133 62.8895 243.198274 70.256564 245.52334 72.534606 C 245.90998 72.916021 246.385443 73.072767 246.87658 73.072767 C 247.749133 73.072767 248.726184 72.649553 249.745033 71.829249 C 252.681408 69.399685 255.711832 63.86655 254.243644 57.581035 C 254.839279 56.828654 255.434914 56.008349 256.098472 55.20372 C 257.180019 53.840029 263.88875 45.981828 268.120892 41.060003 C 268.507533 40.621114 268.439609 39.973231 268.016395 39.591815 Z M 250.408591 67.931497 C 248.940403 70.099817 247.472215 70.97237 246.981078 71.024619 C 246.766858 70.256564 247.472215 67.121643 252.508988 59.963574 C 252.733657 63.86655 251.108723 66.844725 250.408591 67.931497 Z M 250.408591 67.931497 " stroke="#ffffff" stroke-width="4.0644" stroke-opacity="1" stroke-miterlimit="4"/></g><g fill="#000000" fill-opacity="1"><g transform="translate(17.073034, 42.675126)"><g><path d="M 16.125 -8.75 C 15.765625 -8.953125 15.28125 -8.828125 15.078125 -8.46875 C 11.21875 -2.3125 7.984375 0.453125 7.296875 0.203125 C 7.296875 0.203125 6.484375 -0.25 7.25 -4.90625 C 7.53125 -6.484375 7.65625 -7.375 6.890625 -7.703125 C 6.15625 -7.984375 5.71875 -7.375 4.859375 -6.15625 C 4.171875 -5.1875 3.234375 -3.890625 2.234375 -3 C 2.109375 -2.921875 1.65625 -2.515625 1.453125 -2.671875 C 0.84375 -3.15625 0.734375 -5.796875 2.140625 -8.21875 C 2.390625 -8.59375 2.234375 -9.078125 1.859375 -9.3125 C 1.5 -9.515625 1.015625 -9.40625 0.8125 -9.03125 C -0.8125 -6.203125 -0.96875 -2.671875 0.453125 -1.5 C 0.8125 -1.171875 1.828125 -0.609375 3.234375 -1.78125 C 4.171875 -2.59375 4.984375 -3.640625 5.625 -4.53125 C 5.0625 -0.765625 5.390625 1.140625 6.71875 1.65625 C 6.921875 1.734375 7.125 1.734375 7.296875 1.734375 C 10.375 1.734375 15.359375 -6.03125 16.375 -7.65625 C 16.609375 -8.015625 16.484375 -8.515625 16.125 -8.75 Z M 16.125 -8.75 "/></g></g></g><g fill="#000000" fill-opacity="1"><g transform="translate(31.576347, 42.675126)"><g><path d="M 8.671875 -15.03125 C 7.609375 -15.359375 4.859375 -15.15625 1.984375 -6.765625 C 3.609375 -15.921875 3.890625 -17.546875 3.84375 -17.828125 C 3.84375 -18.234375 3.484375 -18.59375 3.03125 -18.5625 C 2.640625 -18.515625 2.3125 -18.1875 2.3125 -17.78125 C 2.265625 -17.21875 1.25 -11.75 0.15625 -5.421875 C -0.078125 -4.046875 -0.359375 -2.640625 -0.609375 -1.171875 C -1.171875 -0.96875 -1.734375 -0.765625 -2.3125 -0.609375 C -2.71875 -0.484375 -2.953125 -0.078125 -2.84375 0.359375 C -2.71875 0.765625 -2.3125 1.015625 -1.90625 0.890625 C -1.578125 0.8125 -1.25 0.6875 -0.9375 0.609375 C -2.671875 10.5 -4.65625 21.796875 -5.59375 28 C -5.625 28.40625 -5.34375 28.8125 -4.9375 28.84375 C -4.90625 28.84375 -4.859375 28.890625 -4.828125 28.890625 C -4.453125 28.890625 -4.09375 28.609375 -4.046875 28.234375 C -3.03125 22.25 -0.25 8.015625 1.859375 -0.609375 C 3.125 -1.25 4.296875 -1.984375 5.390625 -2.84375 C 7.125 -4.25 9.359375 -6.515625 10.125 -9.484375 C 10.90625 -12.1875 10.25 -14.546875 8.671875 -15.03125 Z M 8.625 -9.890625 C 7.859375 -7.015625 5.3125 -4.453125 2.390625 -2.671875 C 2.75 -4.046875 3.078125 -5.21875 3.359375 -6.078125 C 5.46875 -12.28125 7.421875 -13.53125 8.109375 -13.53125 C 8.140625 -13.53125 8.1875 -13.53125 8.21875 -13.53125 C 8.75 -13.375 9.203125 -11.953125 8.625 -9.890625 Z M 8.625 -9.890625 "/></g></g></g><g fill="#000000" fill-opacity="1"><g transform="translate(43.810986, 42.675126)"><g><path d="M 13.375 -9.203125 C 13 -9.40625 12.515625 -9.3125 12.3125 -8.953125 C 9.5625 -4.78125 4.984375 2.1875 1.984375 1.546875 C 1.5 1.421875 1.09375 1.09375 0.8125 0.5625 C 0 -0.890625 0.125 -3.8125 1.046875 -6.359375 C 2.0625 -9.078125 3.28125 -9.765625 3.53125 -9.71875 C 3.5625 -9.6875 3.8125 -9.15625 3.484375 -7.90625 C 3.359375 -7.453125 3.609375 -7.046875 4.015625 -6.921875 C 4.453125 -6.84375 4.859375 -7.09375 4.984375 -7.5 C 5.75 -10.40625 4.421875 -11.0625 4.015625 -11.21875 C 2.515625 -11.671875 0.6875 -9.890625 -0.40625 -6.890625 C -1.34375 -4.375 -1.734375 -0.8125 -0.53125 1.34375 C -0.046875 2.265625 0.734375 2.84375 1.65625 3.03125 C 1.90625 3.125 2.140625 3.125 2.390625 3.125 C 5.921875 3.125 9.71875 -2.1875 13.609375 -8.109375 C 13.859375 -8.46875 13.734375 -8.953125 13.375 -9.203125 Z M 13.375 -9.203125 "/></g></g></g><g fill="#000000" fill-opacity="1"><g transform="translate(55.802547, 42.675126)"><g><path d="M 14.671875 -8.796875 C 14.296875 -9.078125 13.8125 -9 13.578125 -8.671875 C 11.875 -6.484375 9.078125 -4.65625 6.921875 -5.0625 C 6.96875 -5.34375 7.015625 -5.625 7.015625 -5.921875 C 7.296875 -10.5 5.875 -11.421875 5.03125 -11.59375 C 4.046875 -11.796875 3.03125 -11.0625 2.546875 -9.84375 C 2.34375 -9.921875 2.109375 -9.921875 1.90625 -9.765625 C 0.28125 -8.75 -1.046875 -6.15625 -0.328125 -3.359375 C 0.15625 -1.703125 1.296875 -0.640625 2.796875 -0.640625 C 4.21875 -0.640625 5.71875 -1.703125 6.484375 -3.5625 C 9.3125 -2.953125 12.71875 -5.0625 14.78125 -7.703125 C 15.078125 -8.0625 14.984375 -8.546875 14.671875 -8.796875 Z M 2.84375 -2.1875 C 2.796875 -2.1875 2.796875 -2.1875 2.796875 -2.1875 C 1.78125 -2.234375 1.34375 -3.203125 1.21875 -3.765625 C 0.8125 -5.140625 1.140625 -7.046875 2.265625 -8.109375 C 2.34375 -6.71875 3.125 -5.21875 5.0625 -4.171875 C 4.5 -2.875 3.53125 -2.1875 2.84375 -2.1875 Z M 5.46875 -6 C 5.421875 -5.921875 5.421875 -5.828125 5.421875 -5.75 C 3.890625 -6.765625 3.640625 -8.0625 3.9375 -9.078125 C 4.125 -9.71875 4.53125 -10.046875 4.734375 -10.046875 C 4.9375 -10 5.625 -9.234375 5.46875 -6 Z M 5.46875 -6 "/></g></g></g><g fill="#000000" fill-opacity="1"><g transform="translate(68.766401, 42.675126)"><g><path d="M 22.84375 -9.03125 C 22.53125 -9.3125 22 -9.28125 21.71875 -8.953125 C 18.46875 -5.140625 16.28125 -4.171875 15.3125 -4.53125 C 14.46875 -4.859375 13.984375 -6.484375 14.015625 -9.03125 C 14.015625 -9.484375 14.0625 -10.578125 13.171875 -10.78125 C 12.15625 -11.015625 11.421875 -9.84375 9.28125 -5.34375 C 8.90625 -4.578125 8.59375 -3.890625 8.390625 -3.484375 C 8.140625 -3.03125 7.984375 -2.796875 7.859375 -2.671875 C 7.65625 -3.078125 7.375 -4.125 7.421875 -5.71875 C 7.421875 -6.515625 7.421875 -7.21875 7.453125 -7.78125 C 7.5 -9.5625 7.53125 -10.203125 6.8125 -10.5 C 6.15625 -10.703125 5.71875 -10.09375 5.59375 -9.890625 C 3.8125 -7.453125 2.234375 -4.984375 0.5625 -1.984375 C 1.21875 -4.78125 2.390625 -8.796875 3.890625 -12.15625 C 4.046875 -12.5625 3.890625 -13.046875 3.484375 -13.203125 C 3.078125 -13.375 2.640625 -13.203125 2.4375 -12.796875 C 1.296875 -10.171875 0.15625 -6.8125 -0.6875 -3.484375 C -2.03125 1.859375 -1.5 2.109375 -1.015625 2.34375 C -0.890625 2.390625 -0.765625 2.4375 -0.640625 2.4375 C -0.25 2.4375 0.125 2.140625 0.453125 1.546875 C 2.390625 -2.1875 4.015625 -4.9375 5.875 -7.65625 C 5.875 -7.09375 5.828125 -6.4375 5.828125 -5.71875 C 5.828125 -4.453125 6 -1.453125 7.5 -1.046875 C 8.703125 -0.765625 9.484375 -2.265625 9.765625 -2.75 C 10 -3.203125 10.328125 -3.890625 10.703125 -4.65625 C 11.140625 -5.59375 11.875 -7.125 12.484375 -8.1875 C 12.5625 -5.34375 13.328125 -3.609375 14.78125 -3.078125 C 16.78125 -2.3125 19.484375 -3.96875 22.9375 -7.9375 C 23.21875 -8.265625 23.171875 -8.75 22.84375 -9.03125 Z M 22.84375 -9.03125 "/></g></g></g><g fill="#000000" fill-opacity="1"><g transform="translate(89.873174, 42.675126)"><g><path d="M 11.828125 -9.203125 C 11.46875 -9.4375 11.015625 -9.3125 10.78125 -8.953125 C 8.0625 -4.578125 3.53125 -0.453125 2.140625 -1.015625 C 1.984375 -1.09375 0.6875 -1.859375 2.46875 -8.703125 C 2.546875 -9.15625 2.3125 -9.5625 1.90625 -9.6875 C 1.453125 -9.765625 1.046875 -9.515625 0.9375 -9.109375 C -0.53125 -3.40625 -0.328125 -0.359375 1.5 0.40625 C 1.78125 0.53125 2.0625 0.5625 2.34375 0.5625 C 5.390625 0.5625 10.046875 -4.859375 12.109375 -8.140625 C 12.3125 -8.515625 12.1875 -9 11.828125 -9.203125 Z M 2.265625 -12.484375 C 4.328125 -12.359375 4.296875 -14.953125 2.640625 -14.390625 C 1.78125 -14.140625 0.6875 -12.5625 2.265625 -12.484375 Z M 2.265625 -12.484375 "/></g></g></g><g fill="#000000" fill-opacity="1"><g transform="translate(100.122718, 42.675126)"><g><path d="M 16.28125 -9.03125 C 15.921875 -9.234375 15.4375 -9.109375 15.234375 -8.703125 C 14.265625 -7.046875 11.703125 -2.546875 10.25 -2.71875 C 9.96875 -2.75 9.15625 -3.15625 8.34375 -6 C 7.78125 -7.984375 7.015625 -9.84375 5.515625 -9.921875 C 4.421875 -10 3.203125 -9.15625 1.34375 -5.671875 C 1.828125 -7.421875 2.34375 -9.15625 2.75 -10.578125 C 2.921875 -11.09375 3.03125 -11.546875 3.15625 -12 C 3.28125 -12.390625 3.03125 -12.84375 2.640625 -12.96875 C 2.234375 -13.09375 1.78125 -12.84375 1.65625 -12.390625 C 1.546875 -12 1.421875 -11.5 1.25 -11.015625 C 0.203125 -7.421875 -1.375 -1.9375 -1.78125 1.375 C -1.828125 1.734375 -1.578125 2.109375 -1.21875 2.1875 C -1.140625 2.234375 -1.09375 2.234375 -1.015625 2.234375 C -0.6875 2.234375 -0.40625 2.03125 -0.28125 1.734375 C 3.53125 -7.734375 5.0625 -8.390625 5.421875 -8.390625 C 5.515625 -8.390625 6.078125 -8.21875 6.84375 -5.546875 C 7.65625 -2.75 8.703125 -1.34375 10.09375 -1.171875 C 12.15625 -0.9375 14.015625 -3.484375 16.578125 -7.9375 C 16.8125 -8.34375 16.65625 -8.796875 16.28125 -9.03125 Z M 16.28125 -9.03125 "/></g></g></g><g fill="#000000" fill-opacity="1"><g transform="translate(114.58552, 42.675126)"><g><path d="M 18.5625 -8.953125 C 18.3125 -9.3125 17.828125 -9.40625 17.5 -9.203125 C 14.671875 -7.375 11.015625 -4.984375 7.25 -1.90625 C 7.65625 -4.703125 8.0625 -7.65625 8.46875 -10.8125 C 8.515625 -11.21875 8.265625 -11.546875 7.9375 -11.671875 C 7.578125 -11.796875 7.171875 -11.625 7.015625 -11.296875 C 6.328125 -10.171875 4.421875 -7.25 2.84375 -5.140625 C 2.1875 -4.328125 1.828125 -4.015625 1.625 -3.890625 C 1.21875 -5.1875 2.46875 -10.984375 5.03125 -13.25 C 6.03125 -14.1875 6.96875 -14.1875 7.984375 -13.296875 C 8.3125 -13 8.796875 -13 9.078125 -13.328125 C 9.359375 -13.65625 9.3125 -14.140625 9.03125 -14.421875 C 7.421875 -15.875 5.953125 -15.640625 5.03125 -15.15625 C 1.734375 -13.53125 -0.25 -6.8125 0.046875 -4.09375 C 0.125 -2.875 0.6875 -2.4375 1.140625 -2.3125 C 2.234375 -2.03125 3.28125 -3.15625 4.046875 -4.21875 C 4.859375 -5.265625 5.71875 -6.484375 6.484375 -7.578125 C 6.15625 -5.03125 5.796875 -2.640625 5.421875 -0.359375 C 1.09375 3.40625 -3.234375 8.140625 -6.515625 14.140625 C -9 18.59375 -9.8125 22.359375 -10.046875 24.71875 C -10.375 27.796875 -9.921875 30.34375 -8.796875 31.71875 C -8.1875 32.5 -7.421875 32.90625 -6.5625 32.90625 C -6.328125 32.90625 -6.03125 32.859375 -5.75 32.78125 C -1.859375 31.6875 3.234375 22.453125 6.84375 0.453125 C 11.0625 -3.15625 15.1875 -5.828125 18.3125 -7.859375 C 18.671875 -8.109375 18.796875 -8.59375 18.5625 -8.953125 Z M -6.15625 31.28125 C -6.71875 31.4375 -7.171875 31.28125 -7.578125 30.75 C -9.109375 28.84375 -9.359375 22.484375 -5.1875 14.90625 C -2.34375 9.765625 1.296875 5.546875 4.984375 2.109375 C 1.296875 23.34375 -3.5625 30.546875 -6.15625 31.28125 Z M -6.15625 31.28125 "/></g></g></g><g fill="#000000" fill-opacity="1"><g transform="translate(131.276488, 42.675126)"><g/></g></g><g fill="#000000" fill-opacity="1"><g transform="translate(143.713685, 42.675126)"><g><path d="M 17.78125 -9.15625 C 17.375 -9.359375 16.890625 -9.203125 16.734375 -8.796875 C 12.078125 1.015625 7.65625 6.03125 6.6875 5.875 C 6.609375 5.828125 5.1875 4.453125 9.765625 -9.609375 C 9.890625 -9.96875 10.171875 -10.8125 9.515625 -11.265625 C 8.90625 -11.75 8.21875 -11.296875 7.09375 -10.53125 C 5.875 -9.765625 4.21875 -8.671875 2.921875 -8.828125 C 7.046875 -15.96875 6.640625 -17.546875 5.71875 -18.15625 C 4.25 -19 2.140625 -16.53125 1.171875 -15.109375 C -0.8125 -12.03125 -0.765625 -9.234375 1.34375 -7.8125 C 3.484375 -6.328125 6.28125 -8.140625 7.9375 -9.234375 C 7.984375 -9.28125 7.984375 -9.28125 8.015625 -9.3125 C 6.4375 -4.328125 5.421875 -0.40625 5.0625 2.3125 C 4.625 5.3125 4.9375 6.890625 6.078125 7.328125 C 6.28125 7.375 6.4375 7.421875 6.640625 7.421875 C 9.890625 7.421875 15.515625 -2.546875 18.15625 -8.109375 C 18.3125 -8.515625 18.15625 -9 17.78125 -9.15625 Z M 1.421875 -11.953125 C 1.984375 -14.140625 3.890625 -16.171875 4.734375 -16.65625 C 4.65625 -16 4.21875 -14.1875 1.625 -9.6875 C 1.34375 -10.125 1.140625 -10.8125 1.421875 -11.953125 Z M 1.421875 -11.953125 "/></g></g></g><g fill="#000000" fill-opacity="1"><g transform="translate(159.877996, 42.675126)"><g><path d="M 13.6875 -9.03125 C 13.328125 -9.28125 12.84375 -9.203125 12.59375 -8.828125 C 9.5625 -4.578125 7.09375 -1.90625 4.65625 -0.15625 C 3.4375 0.6875 2.265625 0.84375 1.5 0.28125 C 1.015625 -0.078125 -0.484375 -1.703125 1.25 -7.375 C 5.1875 -10.609375 7.328125 -13.6875 6.765625 -15.3125 C 6.5625 -15.796875 6.078125 -16.125 5.546875 -16.125 C 3.9375 -16.078125 1.453125 -13.296875 -0.15625 -8.0625 C -2.140625 -1.625 -0.53125 0.734375 0.609375 1.546875 C 1.171875 1.984375 1.828125 2.1875 2.546875 2.1875 C 3.484375 2.1875 4.53125 1.828125 5.546875 1.09375 C 8.140625 -0.765625 10.703125 -3.53125 13.859375 -7.9375 C 14.09375 -8.3125 14.015625 -8.796875 13.6875 -9.03125 Z M 5.21875 -14.421875 C 5.0625 -13.78125 4.375 -12.484375 2.46875 -10.53125 C 3.53125 -12.890625 4.65625 -14.015625 5.21875 -14.421875 Z M 5.21875 -14.421875 "/></g></g></g><g fill="#000000" fill-opacity="1"><g transform="translate(171.666998, 42.675126)"><g><path d="M 16.9375 -9 C 16.578125 -9.15625 16.078125 -9 15.921875 -8.625 C 12.84375 -2.34375 10.53125 -0.359375 9.4375 -0.5625 C 9 -0.640625 7.53125 -1.5 7.171875 -8.59375 C 7.171875 -8.90625 6.921875 -9.203125 6.640625 -9.28125 C 6.328125 -9.359375 5.953125 -9.28125 5.796875 -9 C 5.546875 -8.703125 5.3125 -8.390625 5.0625 -8.015625 C 4.046875 -6.640625 2.71875 -4.78125 1.09375 -3.03125 C 0.84375 -2.75 0.640625 -2.59375 0.53125 -2.515625 C 0.25 -3.9375 1.734375 -9.359375 4.125 -11.0625 C 4.828125 -11.546875 5.75 -11.90625 7.015625 -10.453125 C 7.296875 -10.125 7.78125 -10.09375 8.109375 -10.375 C 8.421875 -10.609375 8.46875 -11.140625 8.21875 -11.46875 C 6.6875 -13.25 5.21875 -13.203125 4.25 -12.890625 C 1.140625 -11.796875 -0.96875 -5.796875 -1.046875 -3.03125 C -1.09375 -1.90625 -0.765625 -1.171875 -0.125 -0.9375 C 0.890625 -0.53125 1.90625 -1.625 2.234375 -1.984375 C 3.609375 -3.484375 4.859375 -5.109375 5.75 -6.359375 C 6.203125 -1.734375 7.296875 0.5625 9.109375 0.96875 C 9.28125 0.96875 9.4375 1.015625 9.609375 1.015625 C 12.359375 1.015625 15.3125 -3.8125 17.296875 -7.9375 C 17.5 -8.34375 17.34375 -8.796875 16.9375 -9 Z M 16.9375 -9 "/></g></g></g><g fill="#000000" fill-opacity="1"><g transform="translate(186.737476, 42.675126)"><g><path d="M 17.296875 -33.828125 C 17.015625 -34.078125 16.65625 -34.15625 16.28125 -34.078125 C 14.546875 -33.5 11.421875 -25.03125 8.421875 -11.09375 C 8.34375 -10.859375 8.21875 -10.65625 8.109375 -10.40625 C 7.90625 -12 6.84375 -12.4375 6.484375 -12.5625 C 4.734375 -13.09375 1.984375 -11.5 0.078125 -7.453125 C -1.375 -4.421875 -1.65625 -0.453125 0.15625 0.609375 C 1.046875 1.140625 2.59375 1.046875 4.828125 -2.1875 C 5.796875 -3.5625 6.640625 -4.90625 7.453125 -6.203125 C 7.015625 -3.890625 6.5625 -1.453125 6.15625 1.09375 C 5.390625 5.625 4.828125 9.4375 4.5 12.1875 C 3.84375 17.578125 4.171875 18.3125 4.984375 18.5625 C 5.0625 18.59375 5.1875 18.59375 5.265625 18.59375 C 6 18.59375 6.484375 17.671875 6.71875 17.0625 C 6.921875 16.6875 6.765625 16.203125 6.359375 16.046875 C 6.15625 15.921875 5.921875 15.921875 5.71875 16 C 5.796875 14.265625 6.203125 10.296875 7.703125 1.375 C 8.421875 -3.078125 9.203125 -7.046875 9.921875 -10.53125 C 12.96875 -16.28125 14.5 -21.15625 15.765625 -25 C 15.921875 -25.484375 16.078125 -25.9375 16.203125 -26.328125 C 18.359375 -32.78125 17.546875 -33.546875 17.296875 -33.828125 Z M 3.53125 -3.078125 C 1.984375 -0.84375 1.140625 -0.640625 0.9375 -0.734375 C 0.328125 -1.09375 0.125 -3.890625 1.5 -6.8125 C 2.875 -9.71875 4.734375 -11.09375 5.75 -11.09375 C 5.875 -11.09375 5.953125 -11.09375 6.03125 -11.0625 C 6.6875 -10.90625 6.5625 -9.71875 6.515625 -9.40625 C 6.484375 -9.03125 6.6875 -8.671875 7.046875 -8.546875 C 6.03125 -6.8125 4.859375 -4.984375 3.53125 -3.078125 Z M 14.75 -26.828125 C 14.578125 -26.421875 14.421875 -25.96875 14.296875 -25.484375 C 13.578125 -23.296875 12.765625 -20.828125 11.671875 -18.03125 C 13.375 -24.75 14.90625 -28.96875 15.875 -31.078125 C 15.71875 -30.109375 15.359375 -28.71875 14.75 -26.828125 Z M 14.75 -26.828125 "/></g></g></g><g fill="#000000" fill-opacity="1"><g transform="translate(199.417741, 42.675126)"><g><path d="M 18.03125 -9.28125 C 17.703125 -9.5625 17.21875 -9.515625 16.9375 -9.203125 C 13.734375 -5.515625 8.703125 0.359375 7.90625 1.421875 C 7.65625 1.703125 7.421875 2.03125 7.171875 2.34375 C 6.84375 1.546875 6.4375 0.765625 5.921875 -0.046875 C 3.96875 -3.03125 2.234375 -5.875 2.3125 -7.859375 C 2.390625 -9.4375 3.203125 -10.8125 4.53125 -11.625 C 5.625 -12.28125 6.84375 -12.390625 7.78125 -11.953125 C 8.140625 -11.796875 8.625 -11.953125 8.796875 -12.359375 C 9 -12.71875 8.828125 -13.203125 8.421875 -13.375 C 7.046875 -14.015625 5.265625 -13.859375 3.734375 -12.96875 C 1.9375 -11.875 0.890625 -10.046875 0.765625 -7.9375 C 0.640625 -5.46875 2.4375 -2.515625 4.625 0.8125 C 5.3125 1.859375 5.75 2.875 6.03125 3.84375 C 2.875 8.140625 -0.53125 13.65625 1.21875 15.359375 C 1.5 15.640625 1.859375 15.765625 2.234375 15.765625 C 2.875 15.765625 3.609375 15.4375 4.375 14.828125 C 6.5625 13 8.828125 8.875 7.734375 4.171875 C 8.1875 3.609375 8.625 3 9.109375 2.390625 C 9.921875 1.375 14.953125 -4.5 18.109375 -8.1875 C 18.390625 -8.515625 18.359375 -9 18.03125 -9.28125 Z M 4.859375 11.90625 C 3.765625 13.53125 2.671875 14.1875 2.3125 14.21875 C 2.140625 13.65625 2.671875 11.296875 6.4375 5.953125 C 6.609375 8.875 5.390625 11.09375 4.859375 11.90625 Z M 4.859375 11.90625 "/></g></g></g></svg>