<svg xmlns="http://www.w3.org/2000/svg" xmlns:xlink="http://www.w3.org/1999/xlink" width="600" zoomAndPan="magnify" viewBox="0 0 450 78.749999" height="105" preserveAspectRatio="xMidYMid meet" version="1.0"><defs><g/><clipPath id="e757055035"><path d="M 0.710938 0 L 170 0 L 170 78.5 L 0.710938 78.5 Z M 0.710938 0 " clip-rule="nonzero"/></clipPath></defs><g clip-path="url(#e757055035)"><path stroke-linecap="butt" transform="matrix(0.747627, 0, 0, 0.747627, 17.073034, 3.798543)" fill="none" stroke-linejoin="miter" d="M 11.60079 31.890361 C 10.184851 31.467146 6.506544 31.733615 2.661042 42.951405 C 4.829362 30.699091 5.200327 28.530771 5.148079 28.159805 C 5.148079 27.616419 4.656941 27.125281 4.061306 27.182755 C 3.51792 27.235004 3.084256 27.668668 3.084256 28.212054 C 3.032007 28.964435 1.678767 36.284474 0.210579 44.73831 C -0.108138 46.577464 -0.489553 48.479315 -0.80827 50.428191 C -1.576326 50.705109 -2.328707 50.966352 -3.081088 51.191022 C -3.624474 51.352993 -3.953641 51.896379 -3.796895 52.492014 C -3.624474 53.030175 -3.081088 53.348892 -2.553376 53.192146 C -2.114487 53.082424 -1.680823 52.925678 -1.241934 52.805506 C -3.572225 66.034871 -6.231683 81.160863 -7.475201 89.442278 C -7.52745 89.985664 -7.156485 90.523825 -6.613098 90.576074 C -6.56085 90.576074 -6.508601 90.633548 -6.440678 90.633548 C -5.965215 90.633548 -5.479302 90.262582 -5.421829 89.771444 C -4.063363 81.756497 -0.332807 62.72753 2.488621 51.191022 C 4.165804 50.318469 5.743714 49.341419 7.211901 48.202397 C 9.536968 46.310995 12.515142 43.280572 13.549666 39.325347 C 14.578965 35.688839 13.706412 32.553919 11.60079 31.890361 Z M 11.538092 38.781961 C 10.519243 42.622239 7.102179 46.034077 3.199203 48.427067 C 3.690341 46.577464 4.113555 45.015228 4.500195 43.876207 C 7.316399 35.579117 9.923608 33.901935 10.83796 33.901935 C 10.890208 33.901935 10.942457 33.901935 10.994706 33.901935 C 11.710513 34.110929 12.306147 36.018006 11.538092 38.781961 Z M 39.015671 39.973231 C 38.524533 39.748562 37.87665 39.973231 37.66243 40.464368 C 33.534785 48.850281 30.452113 51.509739 28.983925 51.248495 C 28.38829 51.128323 26.444639 49.989302 25.958727 40.516617 C 25.958727 40.077728 25.624335 39.696313 25.253369 39.591816 C 24.819705 39.482093 24.328568 39.591816 24.119573 39.973231 C 23.785182 40.344197 23.47169 40.783085 23.137298 41.268998 C 21.789282 43.108151 19.991928 45.610863 17.834057 47.935929 C 17.504891 48.306895 17.238422 48.531564 17.066002 48.641286 C 16.695036 46.749884 18.690936 39.482093 21.89378 37.209276 C 22.808131 36.561392 24.0621 36.070255 25.744507 38.013906 C 26.115473 38.452794 26.763356 38.505043 27.202245 38.123628 C 27.635909 37.804911 27.688158 37.104779 27.358991 36.66589 C 25.305618 34.28335 23.351518 34.335599 22.05575 34.758813 C 17.886306 36.232226 15.070102 44.247173 14.96038 47.935929 C 14.897682 49.445916 15.331346 50.428191 16.203899 50.757358 C 17.557139 51.300744 18.915605 49.832556 19.338819 49.341419 C 21.193647 47.345519 22.876055 45.171974 24.0621 43.494792 C 24.657735 49.670585 26.115473 52.753257 28.560711 53.296643 C 28.77493 53.296643 28.983925 53.348892 29.208594 53.348892 C 32.886901 53.348892 36.842126 46.90663 39.501584 41.37872 C 39.768052 40.835334 39.559057 40.239699 39.015671 39.973231 Z M 60.641398 39.591816 C 60.202509 39.205175 59.554626 39.257424 59.17321 39.696313 C 54.899268 44.628588 48.180089 52.492014 47.093316 53.892278 C 46.76415 54.273694 46.445433 54.712583 46.116266 55.146247 C 45.677377 54.064699 45.133991 53.030175 44.433859 51.948628 C 41.82665 47.935929 39.501584 44.142675 39.606081 41.483218 C 39.726253 39.377596 40.8078 37.527993 42.594705 36.44122 C 44.052443 35.579117 45.677377 35.422371 46.920896 36.018006 C 47.412033 36.232226 48.059917 36.018006 48.284586 35.47462 C 48.551054 34.988707 48.336835 34.335599 47.793448 34.110929 C 45.954295 33.254051 43.561306 33.463046 41.507933 34.654316 C 39.130618 36.122503 37.714679 38.557292 37.552708 41.37872 C 37.395962 44.686062 39.778502 48.641286 42.699203 53.082424 C 43.629229 54.487913 44.219639 55.851604 44.590605 57.147371 C 40.374136 62.8895 35.823277 70.256564 38.148343 72.534606 C 38.534983 72.916021 39.010446 73.072767 39.501584 73.072767 C 40.374136 73.072767 41.351187 72.649553 42.370036 71.829249 C 45.306411 69.399686 48.336835 63.866551 46.868647 57.581035 C 47.464282 56.828654 48.059917 56.00835 48.71825 55.20372 C 49.805023 53.84003 56.513753 45.981829 60.745895 41.060003 C 61.132536 40.621114 61.064612 39.973231 60.641398 39.591816 Z M 43.033594 67.931498 C 41.565406 70.099818 40.091994 70.972371 39.606081 71.024619 C 39.391861 70.256564 40.091994 67.121643 45.133991 59.963575 C 45.35866 63.866551 43.733726 66.844725 43.033594 67.931498 Z M 104.096622 20.024686 C 103.39649 19.058086 100.245895 18.462451 66.602972 19.214832 C 67.68452 14.825943 68.65112 10.865493 69.523673 7.667874 C 69.685644 7.072239 69.356477 6.528853 68.823541 6.372107 C 68.280155 6.210136 67.68452 6.528853 67.517324 7.072239 C 66.602972 10.484078 65.568448 14.611723 64.434652 19.26708 C 61.440803 19.324554 58.201385 19.376803 54.669374 19.4813 C 49.852046 19.601472 46.053568 19.705969 44.601054 19.705969 C 44.005419 19.705969 43.514282 20.197107 43.514282 20.735268 C 43.514282 21.330903 44.005419 21.822041 44.601054 21.822041 C 46.111041 21.754117 49.904295 21.701869 54.737298 21.545123 C 57.276583 21.492874 60.421954 21.440625 63.943514 21.330903 C 61.613223 31.190228 58.953766 43.003654 56.576451 54.555837 C 54.841795 62.993998 53.425856 70.308812 52.511504 75.679976 C 52.020366 78.501405 51.6912 80.721974 51.534454 82.24241 C 51.320234 84.295783 51.200062 85.487053 52.234586 85.868468 C 52.391332 85.868468 52.511504 85.920717 52.673475 85.920717 C 53.598276 85.920717 54.073739 84.62495 54.512628 83.43368 C 54.737298 82.890294 54.455155 82.294659 53.916993 82.06999 C 53.807271 82.06999 53.755022 82.017741 53.650525 82.017741 C 54.193911 77.796048 55.808395 68.312913 58.953766 53.348892 C 61.284057 42.026604 63.839017 30.699091 66.111834 21.278654 C 81.007932 20.949488 100.350392 20.68302 102.576186 21.440625 C 102.957601 21.754117 103.448739 21.754117 103.882403 21.492874 C 104.305617 21.158483 104.425789 20.510599 104.096622 20.024686 Z M 105.988024 39.748562 C 105.449863 39.482093 104.796755 39.696313 104.58776 40.239699 C 98.354493 53.348892 92.439943 60.068072 91.144175 59.859077 C 91.039678 59.806828 89.132601 57.967675 95.261371 39.152927 C 95.418117 38.661789 95.804757 37.527993 94.942654 36.932358 C 94.12235 36.284474 93.197548 36.880109 91.687562 37.909408 C 90.062628 38.943932 87.836834 40.396445 86.107403 40.18745 C 91.635313 30.646842 91.091927 28.530771 89.848408 27.720916 C 87.889083 26.58712 85.072879 29.894461 83.777112 31.785863 C 81.117654 35.897834 81.169903 39.644064 83.986107 41.535466 C 86.859784 43.54704 90.606014 41.112252 92.826583 39.644064 C 92.878831 39.591816 92.878831 39.591816 92.93108 39.539567 C 90.815009 46.206498 89.466993 51.45749 88.975855 55.083548 C 88.38022 59.106696 88.819109 61.207093 90.323871 61.802728 C 90.606014 61.854977 90.815009 61.9229 91.091927 61.9229 C 95.418117 61.9229 102.962826 48.589038 106.479162 41.164501 C 106.693381 40.621114 106.479162 39.973231 105.988024 39.748562 Z M 84.095829 36.018006 C 84.863884 33.08163 87.40317 30.380374 88.542191 29.73249 C 88.432469 30.594593 87.836834 33.029382 84.372747 39.048429 C 83.986107 38.452794 83.724863 37.527993 84.095829 36.018006 Z M 122.132865 39.920982 C 121.657402 39.591816 120.993844 39.696313 120.680352 40.18745 C 116.615405 45.872106 113.308064 49.445916 110.052971 51.786657 C 108.428038 52.925678 106.855352 53.139897 105.836503 52.382292 C 105.172945 51.896379 103.177046 49.722834 105.502112 42.141551 C 110.758329 37.804911 113.626781 33.687715 112.8744 31.519395 C 112.607932 30.871511 111.944373 30.432623 111.244241 30.432623 C 109.075921 30.490096 105.76858 34.231101 103.61071 41.216749 C 100.951252 49.832556 103.119572 52.977926 104.629559 54.064699 C 105.397614 54.660334 106.259717 54.921577 107.236768 54.921577 C 108.480286 54.921577 109.896225 54.435665 111.244241 53.469064 C 114.713553 50.966352 118.125392 47.288046 122.357535 41.37872 C 122.676252 40.887583 122.571754 40.239699 122.132865 39.920982 Z M 110.810577 32.710665 C 110.596358 33.572768 109.671556 35.302199 107.13227 37.909408 C 108.532535 34.758813 110.052971 33.254051 110.810577 32.710665 Z M 142.243381 39.973231 C 141.752243 39.748562 141.10436 39.973231 140.89014 40.464368 C 136.762495 48.850281 133.679823 51.509739 132.211635 51.248495 C 131.616 51.128323 129.672349 49.989302 129.181212 40.516617 C 129.181212 40.077728 128.852045 39.696313 128.48108 39.591816 C 128.047416 39.482093 127.556278 39.591816 127.342058 39.973231 C 127.012892 40.344197 126.694175 40.783085 126.365008 41.268998 C 125.016992 43.108151 123.214413 45.610863 121.061768 47.935929 C 120.727376 48.306895 120.466133 48.531564 120.293712 48.641286 C 119.922746 46.749884 121.918646 39.482093 125.12149 37.209276 C 126.035842 36.561392 127.28981 36.070255 128.972217 38.013906 C 129.343183 38.452794 129.991066 38.505043 130.42473 38.123628 C 130.863619 37.804911 130.915868 37.104779 130.586701 36.66589 C 128.533328 34.28335 126.579228 34.335599 125.278236 34.758813 C 121.114016 36.232226 118.297813 44.247173 118.18809 47.935929 C 118.125392 49.445916 118.559056 50.428191 119.431609 50.757358 C 120.78485 51.300744 122.143315 49.832556 122.566529 49.341419 C 124.421357 47.345519 126.09854 45.171974 127.28981 43.494792 C 127.885445 49.670585 129.343183 52.753257 131.788421 53.296643 C 132.00264 53.296643 132.211635 53.348892 132.436304 53.348892 C 136.114611 53.348892 140.069836 46.90663 142.729294 41.37872 C 142.995762 40.835334 142.781542 40.239699 142.243381 39.973231 Z M 162.886833 6.753522 C 162.505418 6.424356 162.01428 6.314634 161.538817 6.424356 C 159.198076 7.192411 155.028632 18.514699 151.021159 37.157027 C 150.916661 37.475744 150.744241 37.752662 150.587495 38.071379 C 150.321026 35.965757 148.905087 35.370123 148.41395 35.197702 C 146.088884 34.49757 142.410577 36.613641 139.855616 42.026604 C 137.911966 46.102001 137.525325 51.405241 139.960114 52.805506 C 141.151384 53.521313 143.215206 53.401141 146.193381 49.07495 C 147.504823 47.235797 148.638619 45.438442 149.725391 43.703786 C 149.129757 46.802133 148.534122 50.057225 147.990735 53.469064 C 146.961436 59.529911 146.193381 64.618932 145.770167 68.312913 C 144.897614 75.52323 145.331278 76.489831 146.41805 76.818998 C 146.522548 76.871246 146.684518 76.871246 146.789016 76.871246 C 147.766066 76.871246 148.41395 75.627728 148.748341 74.807424 C 149.009585 74.331961 148.80059 73.668402 148.257204 73.459408 C 147.990735 73.302662 147.661569 73.302662 147.3951 73.407159 C 147.504823 71.076868 148.042984 65.757953 150.044108 53.84003 C 151.021159 47.883681 152.055682 42.564765 153.032733 37.909408 C 157.092455 30.207953 159.145828 23.713443 160.82301 18.566948 C 161.04768 17.919065 161.261899 17.32343 161.418645 16.780043 C 164.292322 8.153787 163.221225 7.134938 162.886833 6.753522 Z M 144.458725 47.883681 C 142.410577 50.861855 141.271556 51.128323 140.994638 51.018601 C 140.184783 50.532688 139.907865 46.802133 141.762693 42.899157 C 143.601847 38.996181 146.088884 37.157027 147.447349 37.157027 C 147.60932 37.157027 147.713817 37.157027 147.818315 37.209276 C 148.690868 37.418271 148.534122 38.996181 148.466198 39.429845 C 148.41395 39.920982 148.690868 40.396445 149.182005 40.568866 C 147.818315 42.899157 146.261304 45.333945 144.458725 47.883681 Z M 159.474994 16.12171 C 159.266 16.665096 159.04133 17.255506 158.87936 17.919065 C 157.902309 20.84499 156.815537 24.152332 155.363024 27.882887 C 157.635841 18.885665 159.689214 13.248033 160.995431 10.431829 C 160.770762 11.743271 160.284849 13.582424 159.474994 16.12171 Z M 180.829029 39.591816 C 180.39014 39.205175 179.742256 39.257424 179.360841 39.696313 C 175.086899 44.628588 168.367719 52.492014 167.280947 53.892278 C 166.95178 54.273694 166.633063 54.712583 166.303896 55.146247 C 165.865008 54.064699 165.321621 53.030175 164.621489 51.948628 C 162.01428 47.935929 159.689214 44.142675 159.793711 41.483218 C 159.913883 39.377596 160.995431 37.527993 162.782336 36.44122 C 164.240074 35.579117 165.865008 35.422371 167.108526 36.018006 C 167.599664 36.232226 168.247547 36.018006 168.472217 35.47462 C 168.738685 34.988707 168.524465 34.335599 167.981079 34.110929 C 166.141926 33.254051 163.748936 33.463046 161.695563 34.654316 C 159.318248 36.122503 157.902309 38.557292 157.740338 41.37872 C 157.583592 44.686062 159.966132 48.641286 162.886833 53.082424 C 163.816859 54.487913 164.412494 55.851604 164.778235 57.147371 C 160.561767 62.8895 156.010907 70.256564 158.335973 72.534606 C 158.722614 72.916021 159.198076 73.072767 159.689214 73.072767 C 160.561767 73.072767 161.538817 72.649553 162.557666 71.829249 C 165.494042 69.399686 168.524465 63.866551 167.056277 57.581035 C 167.651912 56.828654 168.247547 56.00835 168.905881 55.20372 C 169.992653 53.84003 176.701383 45.981829 180.933526 41.060003 C 181.320166 40.621114 181.252243 39.973231 180.829029 39.591816 Z M 163.221225 67.931498 C 161.753037 70.099818 160.284849 70.972371 159.793711 71.024619 C 159.579492 70.256564 160.284849 67.121643 165.321621 59.963575 C 165.546291 63.866551 163.921357 66.844725 163.221225 67.931498 Z M 163.221225 67.931498 " stroke="#ffffff" stroke-width="4.0644" stroke-opacity="1" stroke-miterlimit="4"/></g><g fill="#000000" fill-opacity="1"><g transform="translate(17.073034, 42.675126)"><g><path d="M 8.671875 -15.03125 C 7.609375 -15.359375 4.859375 -15.15625 1.984375 -6.765625 C 3.609375 -15.921875 3.890625 -17.546875 3.84375 -17.828125 C 3.84375 -18.234375 3.484375 -18.59375 3.03125 -18.5625 C 2.640625 -18.515625 2.3125 -18.1875 2.3125 -17.78125 C 2.265625 -17.21875 1.25 -11.75 0.15625 -5.421875 C -0.078125 -4.046875 -0.359375 -2.640625 -0.609375 -1.171875 C -1.171875 -0.96875 -1.734375 -0.765625 -2.3125 -0.609375 C -2.71875 -0.484375 -2.953125 -0.078125 -2.84375 0.359375 C -2.71875 0.765625 -2.3125 1.015625 -1.90625 0.890625 C -1.578125 0.8125 -1.25 0.6875 -0.9375 0.609375 C -2.671875 10.5 -4.65625 21.796875 -5.59375 28 C -5.625 28.40625 -5.34375 28.8125 -4.9375 28.84375 C -4.90625 28.84375 -4.859375 28.890625 -4.828125 28.890625 C -4.453125 28.890625 -4.09375 28.609375 -4.046875 28.234375 C -3.03125 22.25 -0.25 8.015625 1.859375 -0.609375 C 3.125 -1.25 4.296875 -1.984375 5.390625 -2.84375 C 7.125 -4.25 9.359375 -6.515625 10.125 -9.484375 C 10.90625 -12.1875 10.25 -14.546875 8.671875 -15.03125 Z M 8.625 -9.890625 C 7.859375 -7.015625 5.3125 -4.453125 2.390625 -2.671875 C 2.75 -4.046875 3.078125 -5.21875 3.359375 -6.078125 C 5.46875 -12.28125 7.421875 -13.53125 8.109375 -13.53125 C 8.140625 -13.53125 8.1875 -13.53125 8.21875 -13.53125 C 8.75 -13.375 9.203125 -11.953125 8.625 -9.890625 Z M 8.625 -9.890625 "/></g></g></g><g fill="#000000" fill-opacity="1"><g transform="translate(29.307674, 42.675126)"><g><path d="M 16.9375 -9 C 16.578125 -9.15625 16.078125 -9 15.921875 -8.625 C 12.84375 -2.34375 10.53125 -0.359375 9.4375 -0.5625 C 9 -0.640625 7.53125 -1.5 7.171875 -8.59375 C 7.171875 -8.90625 6.921875 -9.203125 6.640625 -9.28125 C 6.328125 -9.359375 5.953125 -9.28125 5.796875 -9 C 5.546875 -8.703125 5.3125 -8.390625 5.0625 -8.015625 C 4.046875 -6.640625 2.71875 -4.78125 1.09375 -3.03125 C 0.84375 -2.75 0.640625 -2.59375 0.53125 -2.515625 C 0.25 -3.9375 1.734375 -9.359375 4.125 -11.0625 C 4.828125 -11.546875 5.75 -11.90625 7.015625 -10.453125 C 7.296875 -10.125 7.78125 -10.09375 8.109375 -10.375 C 8.421875 -10.609375 8.46875 -11.140625 8.21875 -11.46875 C 6.6875 -13.25 5.21875 -13.203125 4.25 -12.890625 C 1.140625 -11.796875 -0.96875 -5.796875 -1.046875 -3.03125 C -1.09375 -1.90625 -0.765625 -1.171875 -0.125 -0.9375 C 0.890625 -0.53125 1.90625 -1.625 2.234375 -1.984375 C 3.609375 -3.484375 4.859375 -5.109375 5.75 -6.359375 C 6.203125 -1.734375 7.296875 0.5625 9.109375 0.96875 C 9.28125 0.96875 9.4375 1.015625 9.609375 1.015625 C 12.359375 1.015625 15.3125 -3.8125 17.296875 -7.9375 C 17.5 -8.34375 17.34375 -8.796875 16.9375 -9 Z M 16.9375 -9 "/></g></g></g><g fill="#000000" fill-opacity="1"><g transform="translate(44.378152, 42.675126)"><g><path d="M 18.03125 -9.28125 C 17.703125 -9.5625 17.21875 -9.515625 16.9375 -9.203125 C 13.734375 -5.515625 8.703125 0.359375 7.90625 1.421875 C 7.65625 1.703125 7.421875 2.03125 7.171875 2.34375 C 6.84375 1.546875 6.4375 0.765625 5.921875 -0.046875 C 3.96875 -3.03125 2.234375 -5.875 2.3125 -7.859375 C 2.390625 -9.4375 3.203125 -10.8125 4.53125 -11.625 C 5.625 -12.28125 6.84375 -12.390625 7.78125 -11.953125 C 8.140625 -11.796875 8.625 -11.953125 8.796875 -12.359375 C 9 -12.71875 8.828125 -13.203125 8.421875 -13.375 C 7.046875 -14.015625 5.265625 -13.859375 3.734375 -12.96875 C 1.9375 -11.875 0.890625 -10.046875 0.765625 -7.9375 C 0.640625 -5.46875 2.4375 -2.515625 4.625 0.8125 C 5.3125 1.859375 5.75 2.875 6.03125 3.84375 C 2.875 8.140625 -0.53125 13.65625 1.21875 15.359375 C 1.5 15.640625 1.859375 15.765625 2.234375 15.765625 C 2.875 15.765625 3.609375 15.4375 4.375 14.828125 C 6.5625 13 8.828125 8.875 7.734375 4.171875 C 8.1875 3.609375 8.625 3 9.109375 2.390625 C 9.921875 1.375 14.953125 -4.5 18.109375 -8.1875 C 18.390625 -8.515625 18.359375 -9 18.03125 -9.28125 Z M 4.859375 11.90625 C 3.765625 13.53125 2.671875 14.1875 2.3125 14.21875 C 2.140625 13.65625 2.671875 11.296875 6.4375 5.953125 C 6.609375 8.875 5.390625 11.09375 4.859375 11.90625 Z M 4.859375 11.90625 "/></g></g></g><g fill="#000000" fill-opacity="1"><g transform="translate(60.7045, 42.675126)"><g><path d="M 34.1875 -23.90625 C 33.671875 -24.640625 31.3125 -25.078125 6.15625 -24.515625 C 6.96875 -27.796875 7.703125 -30.75 8.34375 -33.140625 C 8.46875 -33.59375 8.21875 -34 7.8125 -34.109375 C 7.421875 -34.234375 6.96875 -34 6.84375 -33.59375 C 6.15625 -31.03125 5.390625 -27.953125 4.53125 -24.46875 C 2.3125 -24.4375 -0.125 -24.390625 -2.75 -24.3125 C -6.359375 -24.234375 -9.203125 -24.140625 -10.296875 -24.140625 C -10.734375 -24.140625 -11.09375 -23.78125 -11.09375 -23.375 C -11.09375 -22.9375 -10.734375 -22.5625 -10.296875 -22.5625 C -9.15625 -22.609375 -6.328125 -22.640625 -2.71875 -22.765625 C -0.8125 -22.8125 1.546875 -22.84375 4.171875 -22.9375 C 2.4375 -15.5625 0.453125 -6.71875 -1.34375 1.90625 C -2.640625 8.21875 -3.6875 13.6875 -4.375 17.703125 C -4.734375 19.8125 -4.984375 21.46875 -5.109375 22.609375 C -5.265625 24.140625 -5.34375 25.03125 -4.578125 25.328125 C -4.453125 25.328125 -4.375 25.359375 -4.25 25.359375 C -3.5625 25.359375 -3.203125 24.390625 -2.875 23.5 C -2.71875 23.09375 -2.921875 22.640625 -3.328125 22.484375 C -3.40625 22.484375 -3.4375 22.453125 -3.53125 22.453125 C -3.125 19.28125 -1.90625 12.1875 0.453125 1.015625 C 2.1875 -7.453125 4.09375 -15.921875 5.796875 -22.96875 C 16.9375 -23.21875 31.40625 -23.421875 33.0625 -22.84375 C 33.34375 -22.609375 33.703125 -22.609375 34.03125 -22.8125 C 34.359375 -23.046875 34.4375 -23.546875 34.1875 -23.90625 Z M 34.1875 -23.90625 "/></g></g></g><g fill="#000000" fill-opacity="1"><g transform="translate(66.0926, 42.675126)"><g/></g></g><g fill="#000000" fill-opacity="1"><g transform="translate(78.529798, 42.675126)"><g><path d="M 17.78125 -9.15625 C 17.375 -9.359375 16.890625 -9.203125 16.734375 -8.796875 C 12.078125 1.015625 7.65625 6.03125 6.6875 5.875 C 6.609375 5.828125 5.1875 4.453125 9.765625 -9.609375 C 9.890625 -9.96875 10.171875 -10.8125 9.515625 -11.265625 C 8.90625 -11.75 8.21875 -11.296875 7.09375 -10.53125 C 5.875 -9.765625 4.21875 -8.671875 2.921875 -8.828125 C 7.046875 -15.96875 6.640625 -17.546875 5.71875 -18.15625 C 4.25 -19 2.140625 -16.53125 1.171875 -15.109375 C -0.8125 -12.03125 -0.765625 -9.234375 1.34375 -7.8125 C 3.484375 -6.328125 6.28125 -8.140625 7.9375 -9.234375 C 7.984375 -9.28125 7.984375 -9.28125 8.015625 -9.3125 C 6.4375 -4.328125 5.421875 -0.40625 5.0625 2.3125 C 4.625 5.3125 4.9375 6.890625 6.078125 7.328125 C 6.28125 7.375 6.4375 7.421875 6.640625 7.421875 C 9.890625 7.421875 15.515625 -2.546875 18.15625 -8.109375 C 18.3125 -8.515625 18.15625 -9 17.78125 -9.15625 Z M 1.421875 -11.953125 C 1.984375 -14.140625 3.890625 -16.171875 4.734375 -16.65625 C 4.65625 -16 4.21875 -14.1875 1.625 -9.6875 C 1.34375 -10.125 1.140625 -10.8125 1.421875 -11.953125 Z M 1.421875 -11.953125 "/></g></g></g><g fill="#000000" fill-opacity="1"><g transform="translate(94.694108, 42.675126)"><g><path d="M 13.6875 -9.03125 C 13.328125 -9.28125 12.84375 -9.203125 12.59375 -8.828125 C 9.5625 -4.578125 7.09375 -1.90625 4.65625 -0.15625 C 3.4375 0.6875 2.265625 0.84375 1.5 0.28125 C 1.015625 -0.078125 -0.484375 -1.703125 1.25 -7.375 C 5.1875 -10.609375 7.328125 -13.6875 6.765625 -15.3125 C 6.5625 -15.796875 6.078125 -16.125 5.546875 -16.125 C 3.9375 -16.078125 1.453125 -13.296875 -0.15625 -8.0625 C -2.140625 -1.625 -0.53125 0.734375 0.609375 1.546875 C 1.171875 1.984375 1.828125 2.1875 2.546875 2.1875 C 3.484375 2.1875 4.53125 1.828125 5.546875 1.09375 C 8.140625 -0.765625 10.703125 -3.53125 13.859375 -7.9375 C 14.09375 -8.3125 14.015625 -8.796875 13.6875 -9.03125 Z M 5.21875 -14.421875 C 5.0625 -13.78125 4.375 -12.484375 2.46875 -10.53125 C 3.53125 -12.890625 4.65625 -14.015625 5.21875 -14.421875 Z M 5.21875 -14.421875 "/></g></g></g><g fill="#000000" fill-opacity="1"><g transform="translate(106.48311, 42.675126)"><g><path d="M 16.9375 -9 C 16.578125 -9.15625 16.078125 -9 15.921875 -8.625 C 12.84375 -2.34375 10.53125 -0.359375 9.4375 -0.5625 C 9 -0.640625 7.53125 -1.5 7.171875 -8.59375 C 7.171875 -8.90625 6.921875 -9.203125 6.640625 -9.28125 C 6.328125 -9.359375 5.953125 -9.28125 5.796875 -9 C 5.546875 -8.703125 5.3125 -8.390625 5.0625 -8.015625 C 4.046875 -6.640625 2.71875 -4.78125 1.09375 -3.03125 C 0.84375 -2.75 0.640625 -2.59375 0.53125 -2.515625 C 0.25 -3.9375 1.734375 -9.359375 4.125 -11.0625 C 4.828125 -11.546875 5.75 -11.90625 7.015625 -10.453125 C 7.296875 -10.125 7.78125 -10.09375 8.109375 -10.375 C 8.421875 -10.609375 8.46875 -11.140625 8.21875 -11.46875 C 6.6875 -13.25 5.21875 -13.203125 4.25 -12.890625 C 1.140625 -11.796875 -0.96875 -5.796875 -1.046875 -3.03125 C -1.09375 -1.90625 -0.765625 -1.171875 -0.125 -0.9375 C 0.890625 -0.53125 1.90625 -1.625 2.234375 -1.984375 C 3.609375 -3.484375 4.859375 -5.109375 5.75 -6.359375 C 6.203125 -1.734375 7.296875 0.5625 9.109375 0.96875 C 9.28125 0.96875 9.4375 1.015625 9.609375 1.015625 C 12.359375 1.015625 15.3125 -3.8125 17.296875 -7.9375 C 17.5 -8.34375 17.34375 -8.796875 16.9375 -9 Z M 16.9375 -9 "/></g></g></g><g fill="#000000" fill-opacity="1"><g transform="translate(121.553589, 42.675126)"><g><path d="M 17.296875 -33.828125 C 17.015625 -34.078125 16.65625 -34.15625 16.28125 -34.078125 C 14.546875 -33.5 11.421875 -25.03125 8.421875 -11.09375 C 8.34375 -10.859375 8.21875 -10.65625 8.109375 -10.40625 C 7.90625 -12 6.84375 -12.4375 6.484375 -12.5625 C 4.734375 -13.09375 1.984375 -11.5 0.078125 -7.453125 C -1.375 -4.421875 -1.65625 -0.453125 0.15625 0.609375 C 1.046875 1.140625 2.59375 1.046875 4.828125 -2.1875 C 5.796875 -3.5625 6.640625 -4.90625 7.453125 -6.203125 C 7.015625 -3.890625 6.5625 -1.453125 6.15625 1.09375 C 5.390625 5.625 4.828125 9.4375 4.5 12.1875 C 3.84375 17.578125 4.171875 18.3125 4.984375 18.5625 C 5.0625 18.59375 5.1875 18.59375 5.265625 18.59375 C 6 18.59375 6.484375 17.671875 6.71875 17.0625 C 6.921875 16.6875 6.765625 16.203125 6.359375 16.046875 C 6.15625 15.921875 5.921875 15.921875 5.71875 16 C 5.796875 14.265625 6.203125 10.296875 7.703125 1.375 C 8.421875 -3.078125 9.203125 -7.046875 9.921875 -10.53125 C 12.96875 -16.28125 14.5 -21.15625 15.765625 -25 C 15.921875 -25.484375 16.078125 -25.9375 16.203125 -26.328125 C 18.359375 -32.78125 17.546875 -33.546875 17.296875 -33.828125 Z M 3.53125 -3.078125 C 1.984375 -0.84375 1.140625 -0.640625 0.9375 -0.734375 C 0.328125 -1.09375 0.125 -3.890625 1.5 -6.8125 C 2.875 -9.71875 4.734375 -11.09375 5.75 -11.09375 C 5.875 -11.09375 5.953125 -11.09375 6.03125 -11.0625 C 6.6875 -10.90625 6.5625 -9.71875 6.515625 -9.40625 C 6.484375 -9.03125 6.6875 -8.671875 7.046875 -8.546875 C 6.03125 -6.8125 4.859375 -4.984375 3.53125 -3.078125 Z M 14.75 -26.828125 C 14.578125 -26.421875 14.421875 -25.96875 14.296875 -25.484375 C 13.578125 -23.296875 12.765625 -20.828125 11.671875 -18.03125 C 13.375 -24.75 14.90625 -28.96875 15.875 -31.078125 C 15.71875 -30.109375 15.359375 -28.71875 14.75 -26.828125 Z M 14.75 -26.828125 "/></g></g></g><g fill="#000000" fill-opacity="1"><g transform="translate(134.233854, 42.675126)"><g><path d="M 18.03125 -9.28125 C 17.703125 -9.5625 17.21875 -9.515625 16.9375 -9.203125 C 13.734375 -5.515625 8.703125 0.359375 7.90625 1.421875 C 7.65625 1.703125 7.421875 2.03125 7.171875 2.34375 C 6.84375 1.546875 6.4375 0.765625 5.921875 -0.046875 C 3.96875 -3.03125 2.234375 -5.875 2.3125 -7.859375 C 2.390625 -9.4375 3.203125 -10.8125 4.53125 -11.625 C 5.625 -12.28125 6.84375 -12.390625 7.78125 -11.953125 C 8.140625 -11.796875 8.625 -11.953125 8.796875 -12.359375 C 9 -12.71875 8.828125 -13.203125 8.421875 -13.375 C 7.046875 -14.015625 5.265625 -13.859375 3.734375 -12.96875 C 1.9375 -11.875 0.890625 -10.046875 0.765625 -7.9375 C 0.640625 -5.46875 2.4375 -2.515625 4.625 0.8125 C 5.3125 1.859375 5.75 2.875 6.03125 3.84375 C 2.875 8.140625 -0.53125 13.65625 1.21875 15.359375 C 1.5 15.640625 1.859375 15.765625 2.234375 15.765625 C 2.875 15.765625 3.609375 15.4375 4.375 14.828125 C 6.5625 13 8.828125 8.875 7.734375 4.171875 C 8.1875 3.609375 8.625 3 9.109375 2.390625 C 9.921875 1.375 14.953125 -4.5 18.109375 -8.1875 C 18.390625 -8.515625 18.359375 -9 18.03125 -9.28125 Z M 4.859375 11.90625 C 3.765625 13.53125 2.671875 14.1875 2.3125 14.21875 C 2.140625 13.65625 2.671875 11.296875 6.4375 5.953125 C 6.609375 8.875 5.390625 11.09375 4.859375 11.90625 Z M 4.859375 11.90625 "/></g></g></g></svg>