<svg xmlns="http://www.w3.org/2000/svg" xmlns:xlink="http://www.w3.org/1999/xlink" width="450" zoomAndPan="magnify" viewBox="0 0 337.5 60" height="80" preserveAspectRatio="xMidYMid meet" version="1.0"><defs><g/><clipPath id="3007330573"><path d="M 0 0.0429688 L 337 0.0429688 L 337 59.953125 L 0 59.953125 Z M 0 0.0429688 " clip-rule="nonzero"/></clipPath></defs><g clip-path="url(#3007330573)"><path fill="#ffffff" d="M 0 0.0429688 L 337 0.0429688 L 337 59.957031 L 0 59.957031 Z M 0 0.0429688 " fill-opacity="1" fill-rule="nonzero"/><path fill="#ffffff" d="M 0 0.0429688 L 337 0.0429688 L 337 59.957031 L 0 59.957031 Z M 0 0.0429688 " fill-opacity="1" fill-rule="nonzero"/></g><g fill="#fffff3" fill-opacity="0.4"><g transform="translate(89.337438, 33.437555)"><g><path d="M 11.484375 -6.015625 C 11.234375 -6.140625 10.921875 -6.0625 10.78125 -5.828125 C 8.515625 -2.1875 4.4375 0.875 2.90625 0.59375 C 2.671875 0.5625 2.34375 0.421875 2.1875 -0.1875 C 2.265625 -0.296875 2.40625 -0.40625 2.53125 -0.5 C 2.96875 -0.875 3.578125 -1.421875 4.109375 -2.078125 C 4.96875 -3.203125 5.34375 -4.5625 5.015625 -5.34375 C 4.859375 -5.65625 4.59375 -5.875 4.25 -5.90625 C 3.5 -5.953125 2.640625 -5.203125 1.625 -3.625 C 1.140625 -2.890625 0.6875 -2.0625 0.296875 -1.171875 C 1.125 -4.890625 2.140625 -9.34375 2.90625 -12.6875 C 6.484375 -19.09375 8.28125 -23.90625 7.53125 -24.9375 C 7.375 -25.15625 7.109375 -25.265625 6.84375 -25.203125 C 5.6875 -25 3.90625 -21.09375 2.703125 -16.15625 C 2.515625 -15.40625 2.25 -14.3125 1.953125 -13.03125 C 1.921875 -13 1.921875 -12.953125 1.921875 -12.890625 C 0.40625 -6.46875 -2.15625 4.90625 -2.1875 5.796875 C -2.1875 6.0625 -2 6.28125 -1.765625 6.296875 C -1.734375 6.328125 -1.703125 6.328125 -1.65625 6.328125 C -1.4375 6.328125 -1.25 6.171875 -1.171875 5.953125 L -1.0625 5.578125 C -0.1875 2.796875 0.9375 -0.6875 2.484375 -3.078125 C 3.390625 -4.484375 3.921875 -4.8125 4.078125 -4.859375 C 4.171875 -4.5625 4.03125 -3.65625 3.28125 -2.703125 C 2.828125 -2.140625 2.265625 -1.625 1.84375 -1.28125 C 1.3125 -0.796875 1.0625 -0.59375 1.125 -0.21875 C 1.390625 1.09375 2.140625 1.5 2.71875 1.609375 C 2.859375 1.625 2.984375 1.625 3.125 1.625 C 5.6875 1.625 9.859375 -2.40625 11.640625 -5.28125 C 11.796875 -5.53125 11.71875 -5.84375 11.484375 -6.015625 Z M 6.65625 -23.734375 C 6.46875 -22.640625 5.6875 -20.375 3.90625 -16.75 C 4.9375 -20.609375 6.03125 -22.828125 6.65625 -23.734375 Z M 6.65625 -23.734375 "/></g></g></g><g fill="#fffff3" fill-opacity="0.4"><g transform="translate(102.443446, 33.437555)"><g><path d="M 9.03125 -5.953125 C 8.78125 -6.109375 8.46875 -6.0625 8.296875 -5.828125 C 6.296875 -3.015625 4.671875 -1.25 3.078125 -0.109375 C 2.265625 0.453125 1.5 0.5625 0.984375 0.1875 C 0.671875 -0.046875 -0.328125 -1.125 0.828125 -4.859375 C 3.421875 -7 4.828125 -9.03125 4.453125 -10.09375 C 4.328125 -10.421875 4 -10.625 3.65625 -10.625 C 2.59375 -10.59375 0.96875 -8.765625 -0.109375 -5.3125 C -1.421875 -1.0625 -0.34375 0.484375 0.40625 1.015625 C 0.78125 1.3125 1.203125 1.4375 1.6875 1.4375 C 2.296875 1.4375 2.984375 1.203125 3.65625 0.71875 C 5.375 -0.5 7.046875 -2.328125 9.125 -5.234375 C 9.296875 -5.46875 9.234375 -5.796875 9.03125 -5.953125 Z M 3.4375 -9.5 C 3.34375 -9.078125 2.890625 -8.21875 1.625 -6.9375 C 2.328125 -8.484375 3.078125 -9.234375 3.4375 -9.5 Z M 3.4375 -9.5 "/></g></g></g><g fill="#fffff3" fill-opacity="0.4"><g transform="translate(112.907037, 33.437555)"><g><path d="M 13.0625 -5.875 C 12.890625 -6.109375 12.578125 -6.171875 12.34375 -6.015625 C 10.046875 -4.515625 7.6875 -2.859375 5.453125 -0.78125 C 5.765625 -2.75 6.09375 -4.859375 6.375 -7.078125 C 6.4375 -7.3125 6.28125 -7.5625 6.03125 -7.640625 C 5.828125 -7.71875 5.546875 -7.609375 5.453125 -7.390625 C 4.90625 -6.484375 3.734375 -4.625 2.703125 -3.359375 C 2.328125 -2.90625 1.953125 -2.671875 1.765625 -2.796875 C 1.3125 -3.078125 0.984375 -4.90625 2.03125 -7.453125 C 2.140625 -7.71875 2 -8.015625 1.765625 -8.125 C 1.5 -8.21875 1.203125 -8.09375 1.09375 -7.828125 C 0 -5.15625 0.046875 -2.609375 1.25 -1.921875 C 1.546875 -1.703125 2.40625 -1.421875 3.46875 -2.703125 C 4.03125 -3.359375 4.5625 -4.109375 5.046875 -4.828125 C 4.78125 -2.984375 4.515625 -1.234375 4.21875 0.453125 C 1.96875 2.75 -0.140625 5.53125 -1.953125 9.046875 C -5 14.90625 -5.546875 21.390625 -4.03125 23.265625 C -3.734375 23.625 -3.359375 23.8125 -2.96875 23.8125 C -2.828125 23.8125 -2.71875 23.796875 -2.59375 23.765625 C -0.859375 23.265625 0.6875 19.40625 1.703125 16.265625 C 2.96875 12.34375 4.109375 7.203125 5.1875 0.9375 C 7.65625 -1.546875 10.3125 -3.46875 12.890625 -5.15625 C 13.140625 -5.3125 13.21875 -5.640625 13.0625 -5.875 Z M 0.71875 15.9375 C -1.203125 22.03125 -2.59375 22.703125 -2.859375 22.78125 C -2.96875 22.796875 -3.078125 22.796875 -3.234375 22.625 C -4.1875 21.4375 -4.265625 15.75 -1.046875 9.5 C 0.453125 6.65625 2.109375 4.296875 3.90625 2.296875 C 2.9375 7.828125 1.875 12.390625 0.71875 15.9375 Z M 0.71875 15.9375 "/></g></g></g><g fill="#fffff3" fill-opacity="0.4"><g transform="translate(127.42766, 33.437555)"><g/></g></g><g fill="#fffff3" fill-opacity="0.4"><g transform="translate(138.318306, 33.437555)"><g><path d="M 22.53125 -15.75 C 22.1875 -16.234375 20.640625 -16.53125 4.0625 -16.15625 C 4.59375 -18.3125 5.078125 -20.265625 5.5 -21.84375 C 5.578125 -22.140625 5.421875 -22.40625 5.15625 -22.484375 C 4.890625 -22.5625 4.59375 -22.40625 4.515625 -22.140625 C 4.0625 -20.453125 3.546875 -18.421875 2.984375 -16.125 C 1.515625 -16.109375 -0.078125 -16.078125 -1.8125 -16.015625 C -4.1875 -15.96875 -6.0625 -15.921875 -6.78125 -15.921875 C -7.078125 -15.921875 -7.3125 -15.671875 -7.3125 -15.40625 C -7.3125 -15.109375 -7.078125 -14.875 -6.78125 -14.875 C -6.03125 -14.90625 -4.171875 -14.921875 -1.796875 -15 C -0.53125 -15.03125 1.015625 -15.0625 2.75 -15.109375 C 1.609375 -10.25 0.296875 -4.4375 -0.875 1.25 C -1.734375 5.421875 -2.4375 9.03125 -2.890625 11.671875 C -3.125 13.0625 -3.28125 14.15625 -3.359375 14.90625 C -3.46875 15.921875 -3.53125 16.5 -3.015625 16.6875 C -2.9375 16.6875 -2.890625 16.71875 -2.796875 16.71875 C -2.34375 16.71875 -2.109375 16.078125 -1.890625 15.484375 C -1.796875 15.21875 -1.921875 14.921875 -2.1875 14.8125 C -2.25 14.8125 -2.265625 14.796875 -2.328125 14.796875 C -2.0625 12.703125 -1.25 8.03125 0.296875 0.671875 C 1.4375 -4.90625 2.703125 -10.5 3.8125 -15.140625 C 11.15625 -15.296875 20.6875 -15.4375 21.796875 -15.0625 C 21.984375 -14.90625 22.21875 -14.90625 22.4375 -15.03125 C 22.640625 -15.1875 22.703125 -15.515625 22.53125 -15.75 Z M 22.53125 -15.75 "/></g></g></g><g fill="#fffff3" fill-opacity="0.4"><g transform="translate(144.564724, 33.437555)"><g><path d="M 11.15625 -5.921875 C 10.921875 -6.03125 10.59375 -5.921875 10.5 -5.6875 C 8.46875 -1.546875 6.9375 -0.234375 6.21875 -0.375 C 5.921875 -0.421875 4.96875 -0.984375 4.71875 -5.65625 C 4.71875 -5.875 4.5625 -6.0625 4.375 -6.109375 C 4.171875 -6.171875 3.921875 -6.109375 3.8125 -5.921875 C 3.65625 -5.734375 3.5 -5.53125 3.34375 -5.28125 C 2.671875 -4.375 1.796875 -3.15625 0.71875 -2 C 0.5625 -1.8125 0.421875 -1.703125 0.34375 -1.65625 C 0.15625 -2.59375 1.140625 -6.171875 2.71875 -7.296875 C 3.171875 -7.609375 3.796875 -7.84375 4.625 -6.890625 C 4.8125 -6.671875 5.125 -6.65625 5.34375 -6.84375 C 5.546875 -7 5.578125 -7.34375 5.421875 -7.5625 C 4.40625 -8.734375 3.4375 -8.703125 2.796875 -8.484375 C 0.75 -7.765625 -0.640625 -3.8125 -0.6875 -2 C -0.71875 -1.25 -0.5 -0.78125 -0.078125 -0.609375 C 0.59375 -0.34375 1.25 -1.0625 1.46875 -1.3125 C 2.375 -2.296875 3.203125 -3.359375 3.796875 -4.1875 C 4.078125 -1.140625 4.8125 0.375 6.015625 0.640625 C 6.109375 0.640625 6.21875 0.671875 6.328125 0.671875 C 8.140625 0.671875 10.09375 -2.515625 11.40625 -5.234375 C 11.53125 -5.5 11.421875 -5.796875 11.15625 -5.921875 Z M 11.15625 -5.921875 "/></g></g></g><g fill="#fffff3" fill-opacity="0.4"><g transform="translate(157.190287, 33.437555)"><g><path d="M 11.484375 -6.015625 C 11.234375 -6.140625 10.921875 -6.0625 10.78125 -5.828125 C 8.515625 -2.1875 4.4375 0.875 2.90625 0.59375 C 2.671875 0.5625 2.34375 0.421875 2.1875 -0.1875 C 2.265625 -0.296875 2.40625 -0.40625 2.53125 -0.5 C 2.96875 -0.875 3.578125 -1.421875 4.109375 -2.078125 C 4.96875 -3.203125 5.34375 -4.5625 5.015625 -5.34375 C 4.859375 -5.65625 4.59375 -5.875 4.25 -5.90625 C 3.5 -5.953125 2.640625 -5.203125 1.625 -3.625 C 1.140625 -2.890625 0.6875 -2.0625 0.296875 -1.171875 C 1.125 -4.890625 2.140625 -9.34375 2.90625 -12.6875 C 6.484375 -19.09375 8.28125 -23.90625 7.53125 -24.9375 C 7.375 -25.15625 7.109375 -25.265625 6.84375 -25.203125 C 5.6875 -25 3.90625 -21.09375 2.703125 -16.15625 C 2.515625 -15.40625 2.25 -14.3125 1.953125 -13.03125 C 1.921875 -13 1.921875 -12.953125 1.921875 -12.890625 C 0.40625 -6.46875 -2.15625 4.90625 -2.1875 5.796875 C -2.1875 6.0625 -2 6.28125 -1.765625 6.296875 C -1.734375 6.328125 -1.703125 6.328125 -1.65625 6.328125 C -1.4375 6.328125 -1.25 6.171875 -1.171875 5.953125 L -1.0625 5.578125 C -0.1875 2.796875 0.9375 -0.6875 2.484375 -3.078125 C 3.390625 -4.484375 3.921875 -4.8125 4.078125 -4.859375 C 4.171875 -4.5625 4.03125 -3.65625 3.28125 -2.703125 C 2.828125 -2.140625 2.265625 -1.625 1.84375 -1.28125 C 1.3125 -0.796875 1.0625 -0.59375 1.125 -0.21875 C 1.390625 1.09375 2.140625 1.5 2.71875 1.609375 C 2.859375 1.625 2.984375 1.625 3.125 1.625 C 5.6875 1.625 9.859375 -2.40625 11.640625 -5.28125 C 11.796875 -5.53125 11.71875 -5.84375 11.484375 -6.015625 Z M 6.65625 -23.734375 C 6.46875 -22.640625 5.6875 -20.375 3.90625 -16.75 C 4.9375 -20.609375 6.03125 -22.828125 6.65625 -23.734375 Z M 6.65625 -23.734375 "/></g></g></g><g fill="#fffff3" fill-opacity="0.4"><g transform="translate(170.296294, 33.437555)"><g><path d="M 9.03125 -5.953125 C 8.78125 -6.109375 8.46875 -6.0625 8.296875 -5.828125 C 6.296875 -3.015625 4.671875 -1.25 3.078125 -0.109375 C 2.265625 0.453125 1.5 0.5625 0.984375 0.1875 C 0.671875 -0.046875 -0.328125 -1.125 0.828125 -4.859375 C 3.421875 -7 4.828125 -9.03125 4.453125 -10.09375 C 4.328125 -10.421875 4 -10.625 3.65625 -10.625 C 2.59375 -10.59375 0.96875 -8.765625 -0.109375 -5.3125 C -1.421875 -1.0625 -0.34375 0.484375 0.40625 1.015625 C 0.78125 1.3125 1.203125 1.4375 1.6875 1.4375 C 2.296875 1.4375 2.984375 1.203125 3.65625 0.71875 C 5.375 -0.5 7.046875 -2.328125 9.125 -5.234375 C 9.296875 -5.46875 9.234375 -5.796875 9.03125 -5.953125 Z M 3.4375 -9.5 C 3.34375 -9.078125 2.890625 -8.21875 1.625 -6.9375 C 2.328125 -8.484375 3.078125 -9.234375 3.4375 -9.5 Z M 3.4375 -9.5 "/></g></g></g><g fill="#fffff3" fill-opacity="0.4"><g transform="translate(180.759883, 33.437555)"><g><path d="M 11.15625 -5.921875 C 10.921875 -6.03125 10.59375 -5.921875 10.5 -5.6875 C 8.46875 -1.546875 6.9375 -0.234375 6.21875 -0.375 C 5.921875 -0.421875 4.96875 -0.984375 4.71875 -5.65625 C 4.71875 -5.875 4.5625 -6.0625 4.375 -6.109375 C 4.171875 -6.171875 3.921875 -6.109375 3.8125 -5.921875 C 3.65625 -5.734375 3.5 -5.53125 3.34375 -5.28125 C 2.671875 -4.375 1.796875 -3.15625 0.71875 -2 C 0.5625 -1.8125 0.421875 -1.703125 0.34375 -1.65625 C 0.15625 -2.59375 1.140625 -6.171875 2.71875 -7.296875 C 3.171875 -7.609375 3.796875 -7.84375 4.625 -6.890625 C 4.8125 -6.671875 5.125 -6.65625 5.34375 -6.84375 C 5.546875 -7 5.578125 -7.34375 5.421875 -7.5625 C 4.40625 -8.734375 3.4375 -8.703125 2.796875 -8.484375 C 0.75 -7.765625 -0.640625 -3.8125 -0.6875 -2 C -0.71875 -1.25 -0.5 -0.78125 -0.078125 -0.609375 C 0.59375 -0.34375 1.25 -1.0625 1.46875 -1.3125 C 2.375 -2.296875 3.203125 -3.359375 3.796875 -4.1875 C 4.078125 -1.140625 4.8125 0.375 6.015625 0.640625 C 6.109375 0.640625 6.21875 0.671875 6.328125 0.671875 C 8.140625 0.671875 10.09375 -2.515625 11.40625 -5.234375 C 11.53125 -5.5 11.421875 -5.796875 11.15625 -5.921875 Z M 11.15625 -5.921875 "/></g></g></g><g fill="#fffff3" fill-opacity="0.4"><g transform="translate(193.385452, 33.437555)"><g><path d="M 16.34375 -6.015625 C 16.15625 -6.1875 15.8125 -6.1875 15.625 -6.015625 C 14.265625 -4.59375 12.796875 -3.953125 11.703125 -4.296875 C 10.78125 -4.5625 10.140625 -5.5 9.859375 -7.015625 C 9.796875 -7.265625 9.59375 -7.453125 9.34375 -7.453125 C 9.078125 -7.421875 8.859375 -7.234375 8.84375 -7 C 8.46875 -4.296875 6.84375 -0.296875 6.171875 0.140625 C 6.09375 0.046875 5.953125 -0.1875 5.84375 -0.828125 C 5.6875 -1.625 5.640625 -2.671875 5.640625 -3.3125 C 5.640625 -3.53125 5.46875 -3.734375 5.265625 -3.796875 C 5.015625 -3.875 4.8125 -3.765625 4.671875 -3.578125 C 2.9375 -0.859375 2.1875 0.21875 1.578125 0.796875 C 1.28125 1.0625 1.09375 1.125 1.046875 1.0625 C 0.5625 0.78125 0.21875 -2.140625 2.140625 -7.484375 C 2.25 -7.75 2.078125 -8.03125 1.8125 -8.140625 C 1.546875 -8.21875 1.25 -8.09375 1.171875 -7.828125 C -0.5625 -3.046875 -0.859375 1.0625 0.484375 1.953125 C 0.609375 2.03125 0.828125 2.109375 1.0625 2.109375 C 1.390625 2.109375 1.796875 1.96875 2.265625 1.546875 C 2.828125 1.015625 3.46875 0.1875 4.671875 -1.6875 C 4.71875 -1.3125 4.75 -0.96875 4.828125 -0.609375 C 4.90625 -0.15625 5.203125 1.203125 6.140625 1.171875 C 6.671875 1.171875 7.421875 0.78125 8.546875 -2.15625 C 8.890625 -3.078125 9.21875 -4.078125 9.453125 -5 C 10.015625 -3.953125 10.78125 -3.5 11.40625 -3.3125 C 12.875 -2.859375 14.6875 -3.578125 16.34375 -5.28125 C 16.5625 -5.46875 16.5625 -5.796875 16.34375 -6.015625 Z M 16.34375 -6.015625 "/></g></g></g><g fill="#fffff3" fill-opacity="0.4"><g transform="translate(211.269144, 33.437555)"><g><path d="M 11.15625 -5.921875 C 10.921875 -6.03125 10.59375 -5.921875 10.5 -5.6875 C 8.46875 -1.546875 6.9375 -0.234375 6.21875 -0.375 C 5.921875 -0.421875 4.96875 -0.984375 4.71875 -5.65625 C 4.71875 -5.875 4.5625 -6.0625 4.375 -6.109375 C 4.171875 -6.171875 3.921875 -6.109375 3.8125 -5.921875 C 3.65625 -5.734375 3.5 -5.53125 3.34375 -5.28125 C 2.671875 -4.375 1.796875 -3.15625 0.71875 -2 C 0.5625 -1.8125 0.421875 -1.703125 0.34375 -1.65625 C 0.15625 -2.59375 1.140625 -6.171875 2.71875 -7.296875 C 3.171875 -7.609375 3.796875 -7.84375 4.625 -6.890625 C 4.8125 -6.671875 5.125 -6.65625 5.34375 -6.84375 C 5.546875 -7 5.578125 -7.34375 5.421875 -7.5625 C 4.40625 -8.734375 3.4375 -8.703125 2.796875 -8.484375 C 0.75 -7.765625 -0.640625 -3.8125 -0.6875 -2 C -0.71875 -1.25 -0.5 -0.78125 -0.078125 -0.609375 C 0.59375 -0.34375 1.25 -1.0625 1.46875 -1.3125 C 2.375 -2.296875 3.203125 -3.359375 3.796875 -4.1875 C 4.078125 -1.140625 4.8125 0.375 6.015625 0.640625 C 6.109375 0.640625 6.21875 0.671875 6.328125 0.671875 C 8.140625 0.671875 10.09375 -2.515625 11.40625 -5.234375 C 11.53125 -5.5 11.421875 -5.796875 11.15625 -5.921875 Z M 11.15625 -5.921875 "/></g></g></g><g fill="#fffff3" fill-opacity="0.4"><g transform="translate(223.894707, 33.437555)"><g><path d="M 13.0625 -5.875 C 12.890625 -6.109375 12.578125 -6.171875 12.34375 -6.015625 C 10.046875 -4.515625 7.6875 -2.859375 5.453125 -0.78125 C 5.765625 -2.75 6.09375 -4.859375 6.375 -7.078125 C 6.4375 -7.3125 6.28125 -7.5625 6.03125 -7.640625 C 5.828125 -7.71875 5.546875 -7.609375 5.453125 -7.390625 C 4.90625 -6.484375 3.734375 -4.625 2.703125 -3.359375 C 2.328125 -2.90625 1.953125 -2.671875 1.765625 -2.796875 C 1.3125 -3.078125 0.984375 -4.90625 2.03125 -7.453125 C 2.140625 -7.71875 2 -8.015625 1.765625 -8.125 C 1.5 -8.21875 1.203125 -8.09375 1.09375 -7.828125 C 0 -5.15625 0.046875 -2.609375 1.25 -1.921875 C 1.546875 -1.703125 2.40625 -1.421875 3.46875 -2.703125 C 4.03125 -3.359375 4.5625 -4.109375 5.046875 -4.828125 C 4.78125 -2.984375 4.515625 -1.234375 4.21875 0.453125 C 1.96875 2.75 -0.140625 5.53125 -1.953125 9.046875 C -5 14.90625 -5.546875 21.390625 -4.03125 23.265625 C -3.734375 23.625 -3.359375 23.8125 -2.96875 23.8125 C -2.828125 23.8125 -2.71875 23.796875 -2.59375 23.765625 C -0.859375 23.265625 0.6875 19.40625 1.703125 16.265625 C 2.96875 12.34375 4.109375 7.203125 5.1875 0.9375 C 7.65625 -1.546875 10.3125 -3.46875 12.890625 -5.15625 C 13.140625 -5.3125 13.21875 -5.640625 13.0625 -5.875 Z M 0.71875 15.9375 C -1.203125 22.03125 -2.59375 22.703125 -2.859375 22.78125 C -2.96875 22.796875 -3.078125 22.796875 -3.234375 22.625 C -4.1875 21.4375 -4.265625 15.75 -1.046875 9.5 C 0.453125 6.65625 2.109375 4.296875 3.90625 2.296875 C 2.9375 7.828125 1.875 12.390625 0.71875 15.9375 Z M 0.71875 15.9375 "/></g></g></g><g fill="#fffff3" fill-opacity="0.4"><g transform="translate(238.415328, 33.437555)"><g><path d="M 11.890625 -6.109375 C 11.671875 -6.296875 11.34375 -6.28125 11.15625 -6.0625 C 9.046875 -3.625 5.734375 0.234375 5.203125 0.9375 C 5.046875 1.125 4.890625 1.328125 4.71875 1.546875 C 4.515625 1.015625 4.25 0.5 3.90625 -0.03125 C 2.609375 -2 1.46875 -3.875 1.515625 -5.1875 C 1.578125 -6.21875 2.109375 -7.125 2.984375 -7.65625 C 3.71875 -8.09375 4.515625 -8.171875 5.125 -7.875 C 5.375 -7.765625 5.6875 -7.875 5.796875 -8.140625 C 5.921875 -8.390625 5.828125 -8.703125 5.546875 -8.8125 C 4.640625 -9.234375 3.46875 -9.125 2.453125 -8.546875 C 1.28125 -7.828125 0.59375 -6.625 0.5 -5.234375 C 0.421875 -3.609375 1.609375 -1.65625 3.046875 0.53125 C 3.5 1.234375 3.796875 1.890625 3.984375 2.53125 C 1.890625 5.375 -0.34375 9 0.796875 10.125 C 0.984375 10.3125 1.234375 10.390625 1.46875 10.390625 C 1.890625 10.390625 2.375 10.171875 2.890625 9.765625 C 4.328125 8.578125 5.828125 5.84375 5.09375 2.75 C 5.390625 2.375 5.6875 1.96875 6.015625 1.578125 C 6.546875 0.90625 9.859375 -2.96875 11.9375 -5.390625 C 12.125 -5.609375 12.09375 -5.921875 11.890625 -6.109375 Z M 3.203125 7.84375 C 2.484375 8.921875 1.765625 9.34375 1.515625 9.375 C 1.421875 9 1.765625 7.453125 4.25 3.921875 C 4.359375 5.84375 3.546875 7.3125 3.203125 7.84375 Z M 3.203125 7.84375 "/></g></g></g><g fill="#000000" fill-opacity="1"><g transform="translate(88.582299, 32.682417)"><g><path d="M 11.484375 -6.015625 C 11.234375 -6.140625 10.921875 -6.0625 10.78125 -5.828125 C 8.515625 -2.1875 4.4375 0.875 2.90625 0.59375 C 2.671875 0.5625 2.34375 0.421875 2.1875 -0.1875 C 2.265625 -0.296875 2.40625 -0.40625 2.53125 -0.5 C 2.96875 -0.875 3.578125 -1.421875 4.109375 -2.078125 C 4.96875 -3.203125 5.34375 -4.5625 5.015625 -5.34375 C 4.859375 -5.65625 4.59375 -5.875 4.25 -5.90625 C 3.5 -5.953125 2.640625 -5.203125 1.625 -3.625 C 1.140625 -2.890625 0.6875 -2.0625 0.296875 -1.171875 C 1.125 -4.890625 2.140625 -9.34375 2.90625 -12.6875 C 6.484375 -19.09375 8.28125 -23.90625 7.53125 -24.9375 C 7.375 -25.15625 7.109375 -25.265625 6.84375 -25.203125 C 5.6875 -25 3.90625 -21.09375 2.703125 -16.15625 C 2.515625 -15.40625 2.25 -14.3125 1.953125 -13.03125 C 1.921875 -13 1.921875 -12.953125 1.921875 -12.890625 C 0.40625 -6.46875 -2.15625 4.90625 -2.1875 5.796875 C -2.1875 6.0625 -2 6.28125 -1.765625 6.296875 C -1.734375 6.328125 -1.703125 6.328125 -1.65625 6.328125 C -1.4375 6.328125 -1.25 6.171875 -1.171875 5.953125 L -1.0625 5.578125 C -0.1875 2.796875 0.9375 -0.6875 2.484375 -3.078125 C 3.390625 -4.484375 3.921875 -4.8125 4.078125 -4.859375 C 4.171875 -4.5625 4.03125 -3.65625 3.28125 -2.703125 C 2.828125 -2.140625 2.265625 -1.625 1.84375 -1.28125 C 1.3125 -0.796875 1.0625 -0.59375 1.125 -0.21875 C 1.390625 1.09375 2.140625 1.5 2.71875 1.609375 C 2.859375 1.625 2.984375 1.625 3.125 1.625 C 5.6875 1.625 9.859375 -2.40625 11.640625 -5.28125 C 11.796875 -5.53125 11.71875 -5.84375 11.484375 -6.015625 Z M 6.65625 -23.734375 C 6.46875 -22.640625 5.6875 -20.375 3.90625 -16.75 C 4.9375 -20.609375 6.03125 -22.828125 6.65625 -23.734375 Z M 6.65625 -23.734375 "/></g></g></g><g fill="#000000" fill-opacity="1"><g transform="translate(101.688307, 32.682417)"><g><path d="M 9.03125 -5.953125 C 8.78125 -6.109375 8.46875 -6.0625 8.296875 -5.828125 C 6.296875 -3.015625 4.671875 -1.25 3.078125 -0.109375 C 2.265625 0.453125 1.5 0.5625 0.984375 0.1875 C 0.671875 -0.046875 -0.328125 -1.125 0.828125 -4.859375 C 3.421875 -7 4.828125 -9.03125 4.453125 -10.09375 C 4.328125 -10.421875 4 -10.625 3.65625 -10.625 C 2.59375 -10.59375 0.96875 -8.765625 -0.109375 -5.3125 C -1.421875 -1.0625 -0.34375 0.484375 0.40625 1.015625 C 0.78125 1.3125 1.203125 1.4375 1.6875 1.4375 C 2.296875 1.4375 2.984375 1.203125 3.65625 0.71875 C 5.375 -0.5 7.046875 -2.328125 9.125 -5.234375 C 9.296875 -5.46875 9.234375 -5.796875 9.03125 -5.953125 Z M 3.4375 -9.5 C 3.34375 -9.078125 2.890625 -8.21875 1.625 -6.9375 C 2.328125 -8.484375 3.078125 -9.234375 3.4375 -9.5 Z M 3.4375 -9.5 "/></g></g></g><g fill="#000000" fill-opacity="1"><g transform="translate(112.151898, 32.682417)"><g><path d="M 13.0625 -5.875 C 12.890625 -6.109375 12.578125 -6.171875 12.34375 -6.015625 C 10.046875 -4.515625 7.6875 -2.859375 5.453125 -0.78125 C 5.765625 -2.75 6.09375 -4.859375 6.375 -7.078125 C 6.4375 -7.3125 6.28125 -7.5625 6.03125 -7.640625 C 5.828125 -7.71875 5.546875 -7.609375 5.453125 -7.390625 C 4.90625 -6.484375 3.734375 -4.625 2.703125 -3.359375 C 2.328125 -2.90625 1.953125 -2.671875 1.765625 -2.796875 C 1.3125 -3.078125 0.984375 -4.90625 2.03125 -7.453125 C 2.140625 -7.71875 2 -8.015625 1.765625 -8.125 C 1.5 -8.21875 1.203125 -8.09375 1.09375 -7.828125 C 0 -5.15625 0.046875 -2.609375 1.25 -1.921875 C 1.546875 -1.703125 2.40625 -1.421875 3.46875 -2.703125 C 4.03125 -3.359375 4.5625 -4.109375 5.046875 -4.828125 C 4.78125 -2.984375 4.515625 -1.234375 4.21875 0.453125 C 1.96875 2.75 -0.140625 5.53125 -1.953125 9.046875 C -5 14.90625 -5.546875 21.390625 -4.03125 23.265625 C -3.734375 23.625 -3.359375 23.8125 -2.96875 23.8125 C -2.828125 23.8125 -2.71875 23.796875 -2.59375 23.765625 C -0.859375 23.265625 0.6875 19.40625 1.703125 16.265625 C 2.96875 12.34375 4.109375 7.203125 5.1875 0.9375 C 7.65625 -1.546875 10.3125 -3.46875 12.890625 -5.15625 C 13.140625 -5.3125 13.21875 -5.640625 13.0625 -5.875 Z M 0.71875 15.9375 C -1.203125 22.03125 -2.59375 22.703125 -2.859375 22.78125 C -2.96875 22.796875 -3.078125 22.796875 -3.234375 22.625 C -4.1875 21.4375 -4.265625 15.75 -1.046875 9.5 C 0.453125 6.65625 2.109375 4.296875 3.90625 2.296875 C 2.9375 7.828125 1.875 12.390625 0.71875 15.9375 Z M 0.71875 15.9375 "/></g></g></g><g fill="#000000" fill-opacity="1"><g transform="translate(126.672522, 32.682417)"><g/></g></g><g fill="#000000" fill-opacity="1"><g transform="translate(137.563167, 32.682417)"><g><path d="M 22.53125 -15.75 C 22.1875 -16.234375 20.640625 -16.53125 4.0625 -16.15625 C 4.59375 -18.3125 5.078125 -20.265625 5.5 -21.84375 C 5.578125 -22.140625 5.421875 -22.40625 5.15625 -22.484375 C 4.890625 -22.5625 4.59375 -22.40625 4.515625 -22.140625 C 4.0625 -20.453125 3.546875 -18.421875 2.984375 -16.125 C 1.515625 -16.109375 -0.078125 -16.078125 -1.8125 -16.015625 C -4.1875 -15.96875 -6.0625 -15.921875 -6.78125 -15.921875 C -7.078125 -15.921875 -7.3125 -15.671875 -7.3125 -15.40625 C -7.3125 -15.109375 -7.078125 -14.875 -6.78125 -14.875 C -6.03125 -14.90625 -4.171875 -14.921875 -1.796875 -15 C -0.53125 -15.03125 1.015625 -15.0625 2.75 -15.109375 C 1.609375 -10.25 0.296875 -4.4375 -0.875 1.25 C -1.734375 5.421875 -2.4375 9.03125 -2.890625 11.671875 C -3.125 13.0625 -3.28125 14.15625 -3.359375 14.90625 C -3.46875 15.921875 -3.53125 16.5 -3.015625 16.6875 C -2.9375 16.6875 -2.890625 16.71875 -2.796875 16.71875 C -2.34375 16.71875 -2.109375 16.078125 -1.890625 15.484375 C -1.796875 15.21875 -1.921875 14.921875 -2.1875 14.8125 C -2.25 14.8125 -2.265625 14.796875 -2.328125 14.796875 C -2.0625 12.703125 -1.25 8.03125 0.296875 0.671875 C 1.4375 -4.90625 2.703125 -10.5 3.8125 -15.140625 C 11.15625 -15.296875 20.6875 -15.4375 21.796875 -15.0625 C 21.984375 -14.90625 22.21875 -14.90625 22.4375 -15.03125 C 22.640625 -15.1875 22.703125 -15.515625 22.53125 -15.75 Z M 22.53125 -15.75 "/></g></g></g><g fill="#000000" fill-opacity="1"><g transform="translate(143.809585, 32.682417)"><g><path d="M 11.15625 -5.921875 C 10.921875 -6.03125 10.59375 -5.921875 10.5 -5.6875 C 8.46875 -1.546875 6.9375 -0.234375 6.21875 -0.375 C 5.921875 -0.421875 4.96875 -0.984375 4.71875 -5.65625 C 4.71875 -5.875 4.5625 -6.0625 4.375 -6.109375 C 4.171875 -6.171875 3.921875 -6.109375 3.8125 -5.921875 C 3.65625 -5.734375 3.5 -5.53125 3.34375 -5.28125 C 2.671875 -4.375 1.796875 -3.15625 0.71875 -2 C 0.5625 -1.8125 0.421875 -1.703125 0.34375 -1.65625 C 0.15625 -2.59375 1.140625 -6.171875 2.71875 -7.296875 C 3.171875 -7.609375 3.796875 -7.84375 4.625 -6.890625 C 4.8125 -6.671875 5.125 -6.65625 5.34375 -6.84375 C 5.546875 -7 5.578125 -7.34375 5.421875 -7.5625 C 4.40625 -8.734375 3.4375 -8.703125 2.796875 -8.484375 C 0.75 -7.765625 -0.640625 -3.8125 -0.6875 -2 C -0.71875 -1.25 -0.5 -0.78125 -0.078125 -0.609375 C 0.59375 -0.34375 1.25 -1.0625 1.46875 -1.3125 C 2.375 -2.296875 3.203125 -3.359375 3.796875 -4.1875 C 4.078125 -1.140625 4.8125 0.375 6.015625 0.640625 C 6.109375 0.640625 6.21875 0.671875 6.328125 0.671875 C 8.140625 0.671875 10.09375 -2.515625 11.40625 -5.234375 C 11.53125 -5.5 11.421875 -5.796875 11.15625 -5.921875 Z M 11.15625 -5.921875 "/></g></g></g><g fill="#000000" fill-opacity="1"><g transform="translate(156.435148, 32.682417)"><g><path d="M 11.484375 -6.015625 C 11.234375 -6.140625 10.921875 -6.0625 10.78125 -5.828125 C 8.515625 -2.1875 4.4375 0.875 2.90625 0.59375 C 2.671875 0.5625 2.34375 0.421875 2.1875 -0.1875 C 2.265625 -0.296875 2.40625 -0.40625 2.53125 -0.5 C 2.96875 -0.875 3.578125 -1.421875 4.109375 -2.078125 C 4.96875 -3.203125 5.34375 -4.5625 5.015625 -5.34375 C 4.859375 -5.65625 4.59375 -5.875 4.25 -5.90625 C 3.5 -5.953125 2.640625 -5.203125 1.625 -3.625 C 1.140625 -2.890625 0.6875 -2.0625 0.296875 -1.171875 C 1.125 -4.890625 2.140625 -9.34375 2.90625 -12.6875 C 6.484375 -19.09375 8.28125 -23.90625 7.53125 -24.9375 C 7.375 -25.15625 7.109375 -25.265625 6.84375 -25.203125 C 5.6875 -25 3.90625 -21.09375 2.703125 -16.15625 C 2.515625 -15.40625 2.25 -14.3125 1.953125 -13.03125 C 1.921875 -13 1.921875 -12.953125 1.921875 -12.890625 C 0.40625 -6.46875 -2.15625 4.90625 -2.1875 5.796875 C -2.1875 6.0625 -2 6.28125 -1.765625 6.296875 C -1.734375 6.328125 -1.703125 6.328125 -1.65625 6.328125 C -1.4375 6.328125 -1.25 6.171875 -1.171875 5.953125 L -1.0625 5.578125 C -0.1875 2.796875 0.9375 -0.6875 2.484375 -3.078125 C 3.390625 -4.484375 3.921875 -4.8125 4.078125 -4.859375 C 4.171875 -4.5625 4.03125 -3.65625 3.28125 -2.703125 C 2.828125 -2.140625 2.265625 -1.625 1.84375 -1.28125 C 1.3125 -0.796875 1.0625 -0.59375 1.125 -0.21875 C 1.390625 1.09375 2.140625 1.5 2.71875 1.609375 C 2.859375 1.625 2.984375 1.625 3.125 1.625 C 5.6875 1.625 9.859375 -2.40625 11.640625 -5.28125 C 11.796875 -5.53125 11.71875 -5.84375 11.484375 -6.015625 Z M 6.65625 -23.734375 C 6.46875 -22.640625 5.6875 -20.375 3.90625 -16.75 C 4.9375 -20.609375 6.03125 -22.828125 6.65625 -23.734375 Z M 6.65625 -23.734375 "/></g></g></g><g fill="#000000" fill-opacity="1"><g transform="translate(169.541155, 32.682417)"><g><path d="M 9.03125 -5.953125 C 8.78125 -6.109375 8.46875 -6.0625 8.296875 -5.828125 C 6.296875 -3.015625 4.671875 -1.25 3.078125 -0.109375 C 2.265625 0.453125 1.5 0.5625 0.984375 0.1875 C 0.671875 -0.046875 -0.328125 -1.125 0.828125 -4.859375 C 3.421875 -7 4.828125 -9.03125 4.453125 -10.09375 C 4.328125 -10.421875 4 -10.625 3.65625 -10.625 C 2.59375 -10.59375 0.96875 -8.765625 -0.109375 -5.3125 C -1.421875 -1.0625 -0.34375 0.484375 0.40625 1.015625 C 0.78125 1.3125 1.203125 1.4375 1.6875 1.4375 C 2.296875 1.4375 2.984375 1.203125 3.65625 0.71875 C 5.375 -0.5 7.046875 -2.328125 9.125 -5.234375 C 9.296875 -5.46875 9.234375 -5.796875 9.03125 -5.953125 Z M 3.4375 -9.5 C 3.34375 -9.078125 2.890625 -8.21875 1.625 -6.9375 C 2.328125 -8.484375 3.078125 -9.234375 3.4375 -9.5 Z M 3.4375 -9.5 "/></g></g></g><g fill="#000000" fill-opacity="1"><g transform="translate(180.004745, 32.682417)"><g><path d="M 11.15625 -5.921875 C 10.921875 -6.03125 10.59375 -5.921875 10.5 -5.6875 C 8.46875 -1.546875 6.9375 -0.234375 6.21875 -0.375 C 5.921875 -0.421875 4.96875 -0.984375 4.71875 -5.65625 C 4.71875 -5.875 4.5625 -6.0625 4.375 -6.109375 C 4.171875 -6.171875 3.921875 -6.109375 3.8125 -5.921875 C 3.65625 -5.734375 3.5 -5.53125 3.34375 -5.28125 C 2.671875 -4.375 1.796875 -3.15625 0.71875 -2 C 0.5625 -1.8125 0.421875 -1.703125 0.34375 -1.65625 C 0.15625 -2.59375 1.140625 -6.171875 2.71875 -7.296875 C 3.171875 -7.609375 3.796875 -7.84375 4.625 -6.890625 C 4.8125 -6.671875 5.125 -6.65625 5.34375 -6.84375 C 5.546875 -7 5.578125 -7.34375 5.421875 -7.5625 C 4.40625 -8.734375 3.4375 -8.703125 2.796875 -8.484375 C 0.75 -7.765625 -0.640625 -3.8125 -0.6875 -2 C -0.71875 -1.25 -0.5 -0.78125 -0.078125 -0.609375 C 0.59375 -0.34375 1.25 -1.0625 1.46875 -1.3125 C 2.375 -2.296875 3.203125 -3.359375 3.796875 -4.1875 C 4.078125 -1.140625 4.8125 0.375 6.015625 0.640625 C 6.109375 0.640625 6.21875 0.671875 6.328125 0.671875 C 8.140625 0.671875 10.09375 -2.515625 11.40625 -5.234375 C 11.53125 -5.5 11.421875 -5.796875 11.15625 -5.921875 Z M 11.15625 -5.921875 "/></g></g></g><g fill="#000000" fill-opacity="1"><g transform="translate(192.630314, 32.682417)"><g><path d="M 16.34375 -6.015625 C 16.15625 -6.1875 15.8125 -6.1875 15.625 -6.015625 C 14.265625 -4.59375 12.796875 -3.953125 11.703125 -4.296875 C 10.78125 -4.5625 10.140625 -5.5 9.859375 -7.015625 C 9.796875 -7.265625 9.59375 -7.453125 9.34375 -7.453125 C 9.078125 -7.421875 8.859375 -7.234375 8.84375 -7 C 8.46875 -4.296875 6.84375 -0.296875 6.171875 0.140625 C 6.09375 0.046875 5.953125 -0.1875 5.84375 -0.828125 C 5.6875 -1.625 5.640625 -2.671875 5.640625 -3.3125 C 5.640625 -3.53125 5.46875 -3.734375 5.265625 -3.796875 C 5.015625 -3.875 4.8125 -3.765625 4.671875 -3.578125 C 2.9375 -0.859375 2.1875 0.21875 1.578125 0.796875 C 1.28125 1.0625 1.09375 1.125 1.046875 1.0625 C 0.5625 0.78125 0.21875 -2.140625 2.140625 -7.484375 C 2.25 -7.75 2.078125 -8.03125 1.8125 -8.140625 C 1.546875 -8.21875 1.25 -8.09375 1.171875 -7.828125 C -0.5625 -3.046875 -0.859375 1.0625 0.484375 1.953125 C 0.609375 2.03125 0.828125 2.109375 1.0625 2.109375 C 1.390625 2.109375 1.796875 1.96875 2.265625 1.546875 C 2.828125 1.015625 3.46875 0.1875 4.671875 -1.6875 C 4.71875 -1.3125 4.75 -0.96875 4.828125 -0.609375 C 4.90625 -0.15625 5.203125 1.203125 6.140625 1.171875 C 6.671875 1.171875 7.421875 0.78125 8.546875 -2.15625 C 8.890625 -3.078125 9.21875 -4.078125 9.453125 -5 C 10.015625 -3.953125 10.78125 -3.5 11.40625 -3.3125 C 12.875 -2.859375 14.6875 -3.578125 16.34375 -5.28125 C 16.5625 -5.46875 16.5625 -5.796875 16.34375 -6.015625 Z M 16.34375 -6.015625 "/></g></g></g><g fill="#000000" fill-opacity="1"><g transform="translate(210.514005, 32.682417)"><g><path d="M 11.15625 -5.921875 C 10.921875 -6.03125 10.59375 -5.921875 10.5 -5.6875 C 8.46875 -1.546875 6.9375 -0.234375 6.21875 -0.375 C 5.921875 -0.421875 4.96875 -0.984375 4.71875 -5.65625 C 4.71875 -5.875 4.5625 -6.0625 4.375 -6.109375 C 4.171875 -6.171875 3.921875 -6.109375 3.8125 -5.921875 C 3.65625 -5.734375 3.5 -5.53125 3.34375 -5.28125 C 2.671875 -4.375 1.796875 -3.15625 0.71875 -2 C 0.5625 -1.8125 0.421875 -1.703125 0.34375 -1.65625 C 0.15625 -2.59375 1.140625 -6.171875 2.71875 -7.296875 C 3.171875 -7.609375 3.796875 -7.84375 4.625 -6.890625 C 4.8125 -6.671875 5.125 -6.65625 5.34375 -6.84375 C 5.546875 -7 5.578125 -7.34375 5.421875 -7.5625 C 4.40625 -8.734375 3.4375 -8.703125 2.796875 -8.484375 C 0.75 -7.765625 -0.640625 -3.8125 -0.6875 -2 C -0.71875 -1.25 -0.5 -0.78125 -0.078125 -0.609375 C 0.59375 -0.34375 1.25 -1.0625 1.46875 -1.3125 C 2.375 -2.296875 3.203125 -3.359375 3.796875 -4.1875 C 4.078125 -1.140625 4.8125 0.375 6.015625 0.640625 C 6.109375 0.640625 6.21875 0.671875 6.328125 0.671875 C 8.140625 0.671875 10.09375 -2.515625 11.40625 -5.234375 C 11.53125 -5.5 11.421875 -5.796875 11.15625 -5.921875 Z M 11.15625 -5.921875 "/></g></g></g><g fill="#000000" fill-opacity="1"><g transform="translate(223.139568, 32.682417)"><g><path d="M 13.0625 -5.875 C 12.890625 -6.109375 12.578125 -6.171875 12.34375 -6.015625 C 10.046875 -4.515625 7.6875 -2.859375 5.453125 -0.78125 C 5.765625 -2.75 6.09375 -4.859375 6.375 -7.078125 C 6.4375 -7.3125 6.28125 -7.5625 6.03125 -7.640625 C 5.828125 -7.71875 5.546875 -7.609375 5.453125 -7.390625 C 4.90625 -6.484375 3.734375 -4.625 2.703125 -3.359375 C 2.328125 -2.90625 1.953125 -2.671875 1.765625 -2.796875 C 1.3125 -3.078125 0.984375 -4.90625 2.03125 -7.453125 C 2.140625 -7.71875 2 -8.015625 1.765625 -8.125 C 1.5 -8.21875 1.203125 -8.09375 1.09375 -7.828125 C 0 -5.15625 0.046875 -2.609375 1.25 -1.921875 C 1.546875 -1.703125 2.40625 -1.421875 3.46875 -2.703125 C 4.03125 -3.359375 4.5625 -4.109375 5.046875 -4.828125 C 4.78125 -2.984375 4.515625 -1.234375 4.21875 0.453125 C 1.96875 2.75 -0.140625 5.53125 -1.953125 9.046875 C -5 14.90625 -5.546875 21.390625 -4.03125 23.265625 C -3.734375 23.625 -3.359375 23.8125 -2.96875 23.8125 C -2.828125 23.8125 -2.71875 23.796875 -2.59375 23.765625 C -0.859375 23.265625 0.6875 19.40625 1.703125 16.265625 C 2.96875 12.34375 4.109375 7.203125 5.1875 0.9375 C 7.65625 -1.546875 10.3125 -3.46875 12.890625 -5.15625 C 13.140625 -5.3125 13.21875 -5.640625 13.0625 -5.875 Z M 0.71875 15.9375 C -1.203125 22.03125 -2.59375 22.703125 -2.859375 22.78125 C -2.96875 22.796875 -3.078125 22.796875 -3.234375 22.625 C -4.1875 21.4375 -4.265625 15.75 -1.046875 9.5 C 0.453125 6.65625 2.109375 4.296875 3.90625 2.296875 C 2.9375 7.828125 1.875 12.390625 0.71875 15.9375 Z M 0.71875 15.9375 "/></g></g></g><g fill="#000000" fill-opacity="1"><g transform="translate(237.660189, 32.682417)"><g><path d="M 11.890625 -6.109375 C 11.671875 -6.296875 11.34375 -6.28125 11.15625 -6.0625 C 9.046875 -3.625 5.734375 0.234375 5.203125 0.9375 C 5.046875 1.125 4.890625 1.328125 4.71875 1.546875 C 4.515625 1.015625 4.25 0.5 3.90625 -0.03125 C 2.609375 -2 1.46875 -3.875 1.515625 -5.1875 C 1.578125 -6.21875 2.109375 -7.125 2.984375 -7.65625 C 3.71875 -8.09375 4.515625 -8.171875 5.125 -7.875 C 5.375 -7.765625 5.6875 -7.875 5.796875 -8.140625 C 5.921875 -8.390625 5.828125 -8.703125 5.546875 -8.8125 C 4.640625 -9.234375 3.46875 -9.125 2.453125 -8.546875 C 1.28125 -7.828125 0.59375 -6.625 0.5 -5.234375 C 0.421875 -3.609375 1.609375 -1.65625 3.046875 0.53125 C 3.5 1.234375 3.796875 1.890625 3.984375 2.53125 C 1.890625 5.375 -0.34375 9 0.796875 10.125 C 0.984375 10.3125 1.234375 10.390625 1.46875 10.390625 C 1.890625 10.390625 2.375 10.171875 2.890625 9.765625 C 4.328125 8.578125 5.828125 5.84375 5.09375 2.75 C 5.390625 2.375 5.6875 1.96875 6.015625 1.578125 C 6.546875 0.90625 9.859375 -2.96875 11.9375 -5.390625 C 12.125 -5.609375 12.09375 -5.921875 11.890625 -6.109375 Z M 3.203125 7.84375 C 2.484375 8.921875 1.765625 9.34375 1.515625 9.375 C 1.421875 9 1.765625 7.453125 4.25 3.921875 C 4.359375 5.84375 3.546875 7.3125 3.203125 7.84375 Z M 3.203125 7.84375 "/></g></g></g></svg>