<svg xmlns="http://www.w3.org/2000/svg" xmlns:xlink="http://www.w3.org/1999/xlink" width="450" zoomAndPan="magnify" viewBox="0 0 337.5 60" height="80" preserveAspectRatio="xMidYMid meet" version="1.0"><defs><g/><clipPath id="34729f8fb9"><path d="M 0 0.0429688 L 179 0.0429688 L 179 59.953125 L 0 59.953125 Z M 0 0.0429688 " clip-rule="nonzero"/></clipPath></defs><g clip-path="url(#34729f8fb9)"><path stroke-linecap="butt" transform="matrix(0.748891, 0, 0, 0.748891, 5.991124, 7.969031)" fill="none" stroke-linejoin="miter" d="M 15.326174 24.97407 C 15.002779 24.801941 14.580279 24.906262 14.402933 25.229657 C 11.377624 30.075367 5.91642 34.175182 3.882161 33.783978 C 3.569198 33.747466 3.13105 33.575336 2.922408 32.745984 C 3.026729 32.610367 3.209291 32.469534 3.386636 32.323484 C 3.960402 31.822743 4.779322 31.113361 5.49392 30.221416 C 6.631019 28.719194 7.126544 26.909225 6.704044 25.871231 C 6.48497 25.443515 6.135494 25.156632 5.66605 25.125336 C 4.675001 25.052311 3.532686 26.043361 2.176513 28.150645 C 1.529723 29.152126 0.924661 30.257929 0.392624 31.43154 C 1.498426 26.471077 2.854599 20.519564 3.882161 16.065058 C 8.660062 7.50552 11.054229 1.094995 10.052748 -0.29769 C 9.833674 -0.579357 9.489414 -0.725406 9.129507 -0.657597 C 7.590772 -0.370715 5.207038 4.834903 3.60571 11.433206 C 3.350124 12.434687 2.995433 13.895181 2.604229 15.600829 C 2.567716 15.637342 2.567716 15.70515 2.567716 15.783391 C 0.533457 24.374225 -2.888271 39.563361 -2.924784 40.736972 C -2.924784 41.09688 -2.674413 41.383762 -2.351018 41.415059 C -2.314506 41.451571 -2.277994 41.451571 -2.210185 41.451571 C -1.923302 41.451571 -1.678148 41.232497 -1.568611 40.945614 L -1.427778 40.45009 C -0.254166 36.741478 1.24284 32.07833 3.313612 28.901756 C 4.523735 27.013546 5.238334 26.58583 5.457408 26.518021 C 5.561729 26.909225 5.379167 28.119348 4.388118 29.39728 C 3.77784 30.143175 3.026729 30.826478 2.463395 31.28549 C 1.748797 31.927064 1.425402 32.219163 1.498426 32.714688 C 1.853118 34.462065 2.854599 34.994102 3.637007 35.140151 C 3.814352 35.176663 3.996914 35.176663 4.169044 35.176663 C 7.590772 35.176663 13.151081 29.788484 15.545248 25.93904 C 15.75389 25.62086 15.649569 25.193144 15.326174 24.97407 Z M 8.879137 1.308853 C 8.62355 2.774563 7.590772 5.799872 5.207038 10.650798 C 6.599723 5.481693 8.060217 2.518977 8.879137 1.308853 Z M 29.545125 25.052311 C 29.232162 24.838453 28.79923 24.906262 28.590588 25.229657 C 25.914754 28.969564 23.739662 31.322003 21.601081 32.860737 C 20.531791 33.611848 19.493797 33.747466 18.820927 33.251941 C 18.387995 32.928546 17.07355 31.504564 18.607069 26.518021 C 22.060094 23.659626 23.948304 20.952496 23.452779 19.528515 C 23.280649 19.100798 22.842501 18.813916 22.383489 18.813916 C 20.954291 18.850428 18.779199 21.312404 17.360433 25.907743 C 15.613057 31.572373 17.037038 33.643145 18.033304 34.357744 C 18.534044 34.748947 19.102594 34.921077 19.744168 34.921077 C 20.563088 34.921077 21.49676 34.602898 22.383489 33.96654 C 24.662903 32.323484 26.91102 29.903237 29.69639 26.012064 C 29.905032 25.688669 29.832008 25.260953 29.545125 25.052311 Z M 22.096606 20.310922 C 21.955773 20.874255 21.345495 22.01657 19.676359 23.732651 C 20.5996 21.656663 21.601081 20.665613 22.096606 20.310922 Z M 48.907101 25.156632 C 48.688027 24.838453 48.260311 24.765428 47.942132 24.97407 C 44.875095 26.977033 41.745465 29.188638 38.751453 31.963577 C 39.173953 29.329472 39.601669 26.518021 39.992872 23.555305 C 40.060681 23.237126 39.852039 22.913731 39.53386 22.80941 C 39.246977 22.694657 38.88707 22.840706 38.751453 23.122373 C 38.036854 24.337712 36.461607 26.830984 35.074138 28.510552 C 34.573397 29.115614 34.072656 29.433793 33.822286 29.256447 C 33.22244 28.901756 32.794724 26.43978 34.176977 23.049348 C 34.328243 22.694657 34.145681 22.303453 33.822286 22.16262 C 33.467594 22.01657 33.076391 22.199132 32.935557 22.553823 C 31.475063 26.116385 31.542872 29.512033 33.154631 30.430058 C 33.545835 30.722157 34.682934 31.113361 36.101699 29.39728 C 36.852811 28.510552 37.567409 27.50907 38.208983 26.549317 C 37.854292 29.006077 37.494385 31.363731 37.103181 33.611848 C 34.109168 36.67367 31.297718 40.382281 28.872255 45.087158 C 24.803736 52.895584 24.057841 61.554226 26.0921 64.052714 C 26.483304 64.548239 26.984045 64.803825 27.510866 64.803825 C 27.693427 64.803825 27.834261 64.767313 28.016822 64.725584 C 30.332749 64.052714 32.393088 58.920121 33.754477 54.705553 C 35.434045 49.468639 36.962348 42.625182 38.391545 34.24299 C 41.708953 30.930799 45.235002 28.369719 48.688027 26.116385 C 49.011422 25.907743 49.126175 25.480027 48.907101 25.156632 Z M 32.440033 54.277837 C 29.873736 62.409658 28.016822 63.306819 27.662131 63.41114 C 27.510866 63.447652 27.375248 63.447652 27.156174 63.192066 C 25.878242 61.627251 25.773921 54.037899 30.082378 45.692219 C 32.080125 41.879287 34.29173 38.734009 36.675465 36.063392 C 35.397533 43.444102 33.968335 49.54688 32.440033 54.277837 Z M 95.49164 11.965243 C 95.032628 11.328885 92.961856 10.937681 70.824942 11.433206 C 71.53954 8.543514 72.175898 5.940705 72.749664 3.833421 C 72.853985 3.442218 72.634911 3.087526 72.290651 2.983205 C 71.930744 2.878884 71.53954 3.087526 71.430003 3.442218 C 70.824942 5.690335 70.146855 8.402681 69.40096 11.469718 C 67.434509 11.501014 65.301145 11.537527 62.974787 11.605335 C 59.808645 11.683576 57.310157 11.756601 56.350404 11.756601 C 55.9592 11.756601 55.641021 12.07478 55.641021 12.434687 C 55.641021 12.825891 55.9592 13.149286 56.350404 13.149286 C 57.346669 13.102341 59.845157 13.071045 63.021731 12.966724 C 64.690867 12.930212 66.761639 12.893699 69.077565 12.825891 C 67.544046 19.30944 65.79667 27.081354 64.231855 34.681139 C 63.08954 40.231015 62.155867 45.045429 61.556021 48.581911 C 61.237842 50.433608 61.018768 51.894102 60.914447 52.895584 C 60.773614 54.246541 60.695373 55.028948 61.37346 55.279319 C 61.477781 55.279319 61.556021 55.315831 61.660342 55.315831 C 62.27062 55.315831 62.583583 54.465615 62.870466 53.677991 C 63.021731 53.3233 62.83917 52.932096 62.479262 52.780831 C 62.411454 52.780831 62.374941 52.749534 62.307133 52.749534 C 62.661824 49.974596 63.725898 43.730985 65.79667 33.888299 C 67.330188 26.43978 69.009756 18.986045 70.506763 12.789378 C 80.30772 12.570304 93.029665 12.398175 94.490159 12.893699 C 94.745745 13.102341 95.063924 13.102341 95.356023 12.930212 C 95.632473 12.711138 95.710714 12.283422 95.49164 11.965243 Z M 88.648183 25.088823 C 88.324788 24.942774 87.897072 25.088823 87.756239 25.412219 C 85.043893 30.930799 83.014849 32.678176 82.04988 32.506046 C 81.658677 32.427805 80.375528 31.676694 80.057349 25.443515 C 80.057349 25.156632 79.838275 24.906262 79.593121 24.838453 C 79.306238 24.765428 78.982843 24.838453 78.847226 25.088823 C 78.628152 25.333978 78.41951 25.62086 78.200436 25.93904 C 77.313707 27.149163 76.129664 28.797435 74.710899 30.325737 C 74.491824 30.570892 74.319695 30.722157 74.204942 30.789966 C 73.965003 29.54333 75.279448 24.765428 77.381516 23.268422 C 77.986578 22.840706 78.810713 22.522527 79.916516 23.800459 C 80.16167 24.087342 80.58417 24.123854 80.876269 23.868268 C 81.163152 23.659626 81.194448 23.200613 80.98059 22.913731 C 79.629633 21.3437 78.341269 21.380212 77.485837 21.656663 C 74.747411 22.626848 72.890497 27.900274 72.822689 30.325737 C 72.78096 31.322003 73.067843 31.963577 73.641608 32.182651 C 74.528337 32.537342 75.425497 31.572373 75.701948 31.248978 C 76.922504 29.934534 78.028306 28.510552 78.810713 27.404749 C 79.201917 31.468052 80.16167 33.497095 81.768214 33.851787 C 81.909047 33.851787 82.04988 33.888299 82.19593 33.888299 C 84.616177 33.888299 87.218985 29.647651 88.966362 26.012064 C 89.143708 25.652157 89.002874 25.260953 88.648183 25.088823 Z M 105.934171 24.97407 C 105.610776 24.801941 105.18306 24.906262 105.010931 25.229657 C 101.980406 30.075367 96.524418 34.175182 94.484943 33.783978 C 94.17198 33.747466 93.739047 33.575336 93.530405 32.745984 C 93.634726 32.610367 93.817288 32.469534 93.989418 32.323484 C 94.563183 31.822743 95.382103 31.113361 96.096702 30.221416 C 97.239017 28.719194 97.734541 26.909225 97.306825 25.871231 C 97.087751 25.443515 96.738276 25.156632 96.268832 25.125336 C 95.277782 25.052311 94.140683 26.043361 92.779294 28.150645 C 92.13772 29.152126 91.527442 30.257929 90.995405 31.43154 C 92.101208 26.471077 93.457381 20.519564 94.484943 16.065058 C 99.262844 7.50552 101.657011 1.094995 100.655529 -0.29769 C 100.441671 -0.579357 100.092196 -0.725406 99.732288 -0.657597 C 98.193554 -0.370715 95.809819 4.834903 94.208492 11.433206 C 93.952905 12.434687 93.598214 13.895181 93.20701 15.600829 C 93.170498 15.637342 93.170498 15.70515 93.170498 15.783391 C 91.136239 24.374225 87.71451 39.563361 87.677998 40.736972 C 87.677998 41.09688 87.933584 41.383762 88.256979 41.415059 C 88.288276 41.451571 88.324788 41.451571 88.392597 41.451571 C 88.679479 41.451571 88.924634 41.232497 89.039387 40.945614 L 89.175004 40.45009 C 90.353831 36.741478 91.850837 32.07833 93.921609 28.901756 C 95.131733 27.013546 95.846331 26.58583 96.06019 26.518021 C 96.164511 26.909225 95.981949 28.119348 94.990899 29.39728 C 94.380622 30.143175 93.634726 30.826478 93.066177 31.28549 C 92.351578 31.927064 92.033399 32.219163 92.101208 32.714688 C 92.455899 34.462065 93.457381 34.994102 94.245004 35.140151 C 94.417134 35.176663 94.599696 35.176663 94.771825 35.176663 C 98.193554 35.176663 103.753863 29.788484 106.148029 25.93904 C 106.356671 25.62086 106.25235 25.193144 105.934171 24.97407 Z M 99.481918 1.308853 C 99.231548 2.774563 98.193554 5.799872 95.809819 10.650798 C 97.202504 5.481693 98.662998 2.518977 99.481918 1.308853 Z M 120.153123 25.052311 C 119.834944 24.838453 119.402011 24.906262 119.193369 25.229657 C 116.522752 28.969564 114.347659 31.322003 112.203863 32.860737 C 111.134573 33.611848 110.096579 33.747466 109.428925 33.251941 C 108.990776 32.928546 107.676332 31.504564 109.209851 26.518021 C 112.668091 23.659626 114.556301 20.952496 114.060777 19.528515 C 113.883431 19.100798 113.450499 18.813916 112.98627 18.813916 C 111.562289 18.850428 109.38198 21.312404 107.963215 25.907743 C 106.215838 31.572373 107.645036 33.643145 108.636085 34.357744 C 109.142042 34.748947 109.705375 34.921077 110.352165 34.921077 C 111.171085 34.921077 112.099542 34.602898 112.98627 33.96654 C 115.265684 32.323484 117.513802 29.903237 120.299172 26.012064 C 120.507814 25.688669 120.440005 25.260953 120.153123 25.052311 Z M 112.699388 20.310922 C 112.56377 20.874255 111.953493 22.01657 110.279141 23.732651 C 111.202382 21.656663 112.203863 20.665613 112.699388 20.310922 Z M 136.980099 25.088823 C 136.656704 24.942774 136.228987 25.088823 136.088154 25.412219 C 133.375808 30.930799 131.346765 32.678176 130.381796 32.506046 C 129.990592 32.427805 128.707444 31.676694 128.389265 25.443515 C 128.389265 25.156632 128.170191 24.906262 127.925037 24.838453 C 127.638154 24.765428 127.314759 24.838453 127.179141 25.088823 C 126.960067 25.333978 126.751425 25.62086 126.532351 25.93904 C 125.645623 27.149163 124.46158 28.797435 123.042814 30.325737 C 122.82374 30.570892 122.65161 30.722157 122.536857 30.789966 C 122.296919 29.54333 123.611364 24.765428 125.713431 23.268422 C 126.313277 22.840706 127.142629 22.522527 128.248432 23.800459 C 128.493586 24.087342 128.916086 24.123854 129.202969 23.868268 C 129.495067 23.659626 129.526364 23.200613 129.30729 22.913731 C 127.961549 21.3437 126.673185 21.380212 125.817752 21.656663 C 123.079326 22.626848 121.222413 27.900274 121.154604 30.325737 C 121.112876 31.322003 121.399758 31.963577 121.973524 32.182651 C 122.860252 32.537342 123.757413 31.572373 124.033864 31.248978 C 125.254419 29.934534 126.360222 28.510552 127.142629 27.404749 C 127.533833 31.468052 128.493586 33.497095 130.100129 33.851787 C 130.240963 33.851787 130.381796 33.888299 130.527845 33.888299 C 132.948092 33.888299 135.550901 29.647651 137.298278 26.012064 C 137.475623 25.652157 137.33479 25.260953 136.980099 25.088823 Z M 160.754853 24.97407 C 160.504482 24.734132 160.040254 24.734132 159.789884 24.97407 C 157.969482 26.86228 156.013464 27.728145 154.55297 27.263916 C 153.342846 26.909225 152.476982 25.652157 152.085778 23.62833 C 152.01797 23.304934 151.731087 23.049348 151.418124 23.049348 C 151.058217 23.08586 150.771334 23.341447 150.740037 23.659626 C 150.234081 27.263916 148.064204 32.610367 147.17226 33.1737 C 147.067939 33.069379 146.880161 32.745984 146.744543 31.895768 C 146.525469 30.826478 146.457661 29.433793 146.457661 28.578361 C 146.457661 28.291478 146.249019 28.015027 145.962136 27.936787 C 145.638741 27.832466 145.351858 27.968083 145.174513 28.223669 C 142.863803 31.859256 141.862321 33.288453 141.043401 34.070861 C 140.652198 34.425552 140.396611 34.498577 140.328802 34.425552 C 139.687228 34.034348 139.223 30.143175 141.789296 23.018052 C 141.93013 22.658144 141.711056 22.266941 141.366796 22.131323 C 141.006889 22.01657 140.615685 22.199132 140.500932 22.553823 C 138.190222 28.933052 137.793802 34.425552 139.577691 35.604379 C 139.755037 35.7087 140.04192 35.818237 140.365315 35.818237 C 140.787815 35.818237 141.319852 35.635676 141.966642 35.072342 C 142.712537 34.357744 143.567969 33.251941 145.174513 30.753453 C 145.247537 31.248978 145.278834 31.718422 145.383155 32.182651 C 145.497908 32.782497 145.889111 34.602898 147.135747 34.566386 C 147.850346 34.566386 148.851828 34.034348 150.348834 30.111879 C 150.807846 28.901756 151.235562 27.540367 151.558957 26.335459 C 152.304852 27.728145 153.342846 28.32799 154.15655 28.578361 C 156.117785 29.188638 158.543248 28.223669 160.754853 25.93904 C 161.041735 25.688669 161.041735 25.260953 160.754853 24.97407 Z M 177.717446 25.088823 C 177.394051 24.942774 176.966335 25.088823 176.830718 25.412219 C 174.113156 30.930799 172.084112 32.678176 171.119143 32.506046 C 170.72794 32.427805 169.450007 31.676694 169.126612 25.443515 C 169.126612 25.156632 168.907538 24.906262 168.6676 24.838453 C 168.375501 24.765428 168.057322 24.838453 167.916489 25.088823 C 167.697415 25.333978 167.488773 25.62086 167.274915 25.93904 C 166.38297 27.149163 165.198927 28.797435 163.780161 30.325737 C 163.566303 30.570892 163.388958 30.722157 163.279421 30.789966 C 163.034266 29.54333 164.348711 24.765428 166.455995 23.268422 C 167.055841 22.840706 167.879976 22.522527 168.985779 23.800459 C 169.230933 24.087342 169.658649 24.123854 169.945532 23.868268 C 170.232415 23.659626 170.268927 23.200613 170.049853 22.913731 C 168.698896 21.3437 167.410532 21.380212 166.560316 21.656663 C 163.816674 22.626848 161.964976 27.900274 161.891952 30.325737 C 161.850223 31.322003 162.137106 31.963577 162.710871 32.182651 C 163.5976 32.537342 164.49476 31.572373 164.776427 31.248978 C 165.991767 29.934534 167.097569 28.510552 167.879976 27.404749 C 168.27118 31.468052 169.230933 33.497095 170.842693 33.851787 C 170.97831 33.851787 171.119143 33.888299 171.265193 33.888299 C 173.68544 33.888299 176.288248 29.647651 178.040841 26.012064 C 178.212971 25.652157 178.072137 25.260953 177.717446 25.088823 Z M 197.110718 25.156632 C 196.891644 24.838453 196.463928 24.765428 196.140533 24.97407 C 193.078712 26.977033 189.943866 29.188638 186.949854 31.963577 C 187.37757 29.329472 187.805286 26.518021 188.19649 23.555305 C 188.264298 23.237126 188.055656 22.913731 187.737477 22.80941 C 187.445379 22.694657 187.090687 22.840706 186.949854 23.122373 C 186.240471 24.337712 184.665224 26.830984 183.277755 28.510552 C 182.771798 29.115614 182.276273 29.433793 182.025903 29.256447 C 181.426057 28.901756 180.998341 26.43978 182.380594 23.049348 C 182.53186 22.694657 182.349298 22.303453 182.025903 22.16262 C 181.671212 22.01657 181.274792 22.199132 181.139175 22.553823 C 179.673465 26.116385 179.746489 29.512033 181.353033 30.430058 C 181.749452 30.722157 182.886551 31.113361 184.305317 29.39728 C 185.056428 28.510552 185.765811 27.50907 186.412601 26.549317 C 186.052693 29.006077 185.698002 31.363731 185.306798 33.611848 C 182.312786 36.67367 179.501335 40.382281 177.070656 45.087158 C 173.007353 52.895584 172.261458 61.554226 174.295717 64.052714 C 174.686921 64.548239 175.182446 64.803825 175.714483 64.803825 C 175.897045 64.803825 176.037878 64.767313 176.22044 64.725584 C 178.536366 64.052714 180.596705 58.920121 181.958094 54.705553 C 183.637662 49.468639 185.165965 42.625182 186.595162 34.24299 C 189.91257 30.930799 193.433403 28.369719 196.891644 26.116385 C 197.215039 25.907743 197.324576 25.480027 197.110718 25.156632 Z M 180.64365 54.277837 C 178.072137 62.409658 176.22044 63.306819 175.865748 63.41114 C 175.714483 63.447652 175.57365 63.447652 175.359792 63.192066 C 174.076643 61.627251 173.972322 54.037899 178.280779 45.692219 C 180.283742 41.879287 182.495347 38.734009 184.879082 36.063392 C 183.60115 43.444102 182.171952 49.54688 180.64365 54.277837 Z M 214.93396 24.838453 C 214.647077 24.582867 214.219361 24.619379 213.963775 24.906262 C 211.152324 28.150645 206.73433 33.31975 206.019731 34.24299 C 205.800657 34.498577 205.592015 34.78546 205.372941 35.072342 C 205.086058 34.357744 204.731367 33.679657 204.272355 32.965058 C 202.556274 30.325737 201.022756 27.832466 201.090564 26.079873 C 201.168805 24.69762 201.883404 23.477064 203.062231 22.762465 C 204.016768 22.199132 205.086058 22.094811 205.904978 22.486015 C 206.228373 22.626848 206.656089 22.486015 206.802139 22.131323 C 206.974268 21.807928 206.838651 21.380212 206.478744 21.234163 C 205.26862 20.665613 203.693373 20.806447 202.347632 21.588854 C 200.777601 22.553823 199.849144 24.155151 199.744823 26.012064 C 199.640502 28.187157 201.205317 30.789966 203.13004 33.716169 C 203.740317 34.634194 204.131521 35.531355 204.376676 36.386787 C 201.596521 40.163207 198.602509 45.008917 200.136027 46.505923 C 200.386398 46.76151 200.699361 46.865831 201.022756 46.865831 C 201.596521 46.865831 202.243311 46.584164 202.910966 46.046911 C 204.84612 44.445583 206.838651 40.804781 205.873682 36.67367 C 206.264885 36.178145 206.656089 35.635676 207.089021 35.108855 C 207.80362 34.211694 212.216398 29.037373 215.001769 25.803422 C 215.252139 25.516539 215.210411 25.088823 214.93396 24.838453 Z M 203.349114 43.480614 C 202.378929 44.904596 201.413959 45.483577 201.090564 45.514874 C 200.954947 45.008917 201.413959 42.948577 204.731367 38.238484 C 204.877416 40.804781 203.808126 42.766016 203.349114 43.480614 Z M 203.349114 43.480614 " stroke="#ffffff" stroke-width="2.673773" stroke-opacity="1" stroke-miterlimit="4"/></g><g fill="#000000" fill-opacity="1"><g transform="translate(5.991124, 32.682417)"><g><path d="M 11.484375 -6.015625 C 11.234375 -6.140625 10.921875 -6.0625 10.78125 -5.828125 C 8.515625 -2.1875 4.4375 0.875 2.90625 0.59375 C 2.671875 0.5625 2.34375 0.421875 2.1875 -0.1875 C 2.265625 -0.296875 2.40625 -0.40625 2.53125 -0.5 C 2.96875 -0.875 3.578125 -1.421875 4.109375 -2.078125 C 4.96875 -3.203125 5.34375 -4.5625 5.015625 -5.34375 C 4.859375 -5.65625 4.59375 -5.875 4.25 -5.90625 C 3.5 -5.953125 2.640625 -5.203125 1.625 -3.625 C 1.140625 -2.890625 0.6875 -2.0625 0.296875 -1.171875 C 1.125 -4.890625 2.140625 -9.34375 2.90625 -12.6875 C 6.484375 -19.09375 8.28125 -23.90625 7.53125 -24.9375 C 7.375 -25.15625 7.109375 -25.265625 6.84375 -25.203125 C 5.6875 -25 3.90625 -21.09375 2.703125 -16.15625 C 2.515625 -15.40625 2.25 -14.3125 1.953125 -13.03125 C 1.921875 -13 1.921875 -12.953125 1.921875 -12.890625 C 0.40625 -6.46875 -2.15625 4.90625 -2.1875 5.796875 C -2.1875 6.0625 -2 6.28125 -1.765625 6.296875 C -1.734375 6.328125 -1.703125 6.328125 -1.65625 6.328125 C -1.4375 6.328125 -1.25 6.171875 -1.171875 5.953125 L -1.0625 5.578125 C -0.1875 2.796875 0.9375 -0.6875 2.484375 -3.078125 C 3.390625 -4.484375 3.921875 -4.8125 4.078125 -4.859375 C 4.171875 -4.5625 4.03125 -3.65625 3.28125 -2.703125 C 2.828125 -2.140625 2.265625 -1.625 1.84375 -1.28125 C 1.3125 -0.796875 1.0625 -0.59375 1.125 -0.21875 C 1.390625 1.09375 2.140625 1.5 2.71875 1.609375 C 2.859375 1.625 2.984375 1.625 3.125 1.625 C 5.6875 1.625 9.859375 -2.40625 11.640625 -5.28125 C 11.796875 -5.53125 11.71875 -5.84375 11.484375 -6.015625 Z M 6.65625 -23.734375 C 6.46875 -22.640625 5.6875 -20.375 3.90625 -16.75 C 4.9375 -20.609375 6.03125 -22.828125 6.65625 -23.734375 Z M 6.65625 -23.734375 "/></g></g></g><g fill="#000000" fill-opacity="1"><g transform="translate(19.097132, 32.682417)"><g><path d="M 9.03125 -5.953125 C 8.78125 -6.109375 8.46875 -6.0625 8.296875 -5.828125 C 6.296875 -3.015625 4.671875 -1.25 3.078125 -0.109375 C 2.265625 0.453125 1.5 0.5625 0.984375 0.1875 C 0.671875 -0.046875 -0.328125 -1.125 0.828125 -4.859375 C 3.421875 -7 4.828125 -9.03125 4.453125 -10.09375 C 4.328125 -10.421875 4 -10.625 3.65625 -10.625 C 2.59375 -10.59375 0.96875 -8.765625 -0.109375 -5.3125 C -1.421875 -1.0625 -0.34375 0.484375 0.40625 1.015625 C 0.78125 1.3125 1.203125 1.4375 1.6875 1.4375 C 2.296875 1.4375 2.984375 1.203125 3.65625 0.71875 C 5.375 -0.5 7.046875 -2.328125 9.125 -5.234375 C 9.296875 -5.46875 9.234375 -5.796875 9.03125 -5.953125 Z M 3.4375 -9.5 C 3.34375 -9.078125 2.890625 -8.21875 1.625 -6.9375 C 2.328125 -8.484375 3.078125 -9.234375 3.4375 -9.5 Z M 3.4375 -9.5 "/></g></g></g><g fill="#000000" fill-opacity="1"><g transform="translate(29.560723, 32.682417)"><g><path d="M 13.0625 -5.875 C 12.890625 -6.109375 12.578125 -6.171875 12.34375 -6.015625 C 10.046875 -4.515625 7.6875 -2.859375 5.453125 -0.78125 C 5.765625 -2.75 6.09375 -4.859375 6.375 -7.078125 C 6.4375 -7.3125 6.28125 -7.5625 6.03125 -7.640625 C 5.828125 -7.71875 5.546875 -7.609375 5.453125 -7.390625 C 4.90625 -6.484375 3.734375 -4.625 2.703125 -3.359375 C 2.328125 -2.90625 1.953125 -2.671875 1.765625 -2.796875 C 1.3125 -3.078125 0.984375 -4.90625 2.03125 -7.453125 C 2.140625 -7.71875 2 -8.015625 1.765625 -8.125 C 1.5 -8.21875 1.203125 -8.09375 1.09375 -7.828125 C 0 -5.15625 0.046875 -2.609375 1.25 -1.921875 C 1.546875 -1.703125 2.40625 -1.421875 3.46875 -2.703125 C 4.03125 -3.359375 4.5625 -4.109375 5.046875 -4.828125 C 4.78125 -2.984375 4.515625 -1.234375 4.21875 0.453125 C 1.96875 2.75 -0.140625 5.53125 -1.953125 9.046875 C -5 14.90625 -5.546875 21.390625 -4.03125 23.265625 C -3.734375 23.625 -3.359375 23.8125 -2.96875 23.8125 C -2.828125 23.8125 -2.71875 23.796875 -2.59375 23.765625 C -0.859375 23.265625 0.6875 19.40625 1.703125 16.265625 C 2.96875 12.34375 4.109375 7.203125 5.1875 0.9375 C 7.65625 -1.546875 10.3125 -3.46875 12.890625 -5.15625 C 13.140625 -5.3125 13.21875 -5.640625 13.0625 -5.875 Z M 0.71875 15.9375 C -1.203125 22.03125 -2.59375 22.703125 -2.859375 22.78125 C -2.96875 22.796875 -3.078125 22.796875 -3.234375 22.625 C -4.1875 21.4375 -4.265625 15.75 -1.046875 9.5 C 0.453125 6.65625 2.109375 4.296875 3.90625 2.296875 C 2.9375 7.828125 1.875 12.390625 0.71875 15.9375 Z M 0.71875 15.9375 "/></g></g></g><g fill="#000000" fill-opacity="1"><g transform="translate(44.081346, 32.682417)"><g/></g></g><g fill="#000000" fill-opacity="1"><g transform="translate(54.971992, 32.682417)"><g><path d="M 22.53125 -15.75 C 22.1875 -16.234375 20.640625 -16.53125 4.0625 -16.15625 C 4.59375 -18.3125 5.078125 -20.265625 5.5 -21.84375 C 5.578125 -22.140625 5.421875 -22.40625 5.15625 -22.484375 C 4.890625 -22.5625 4.59375 -22.40625 4.515625 -22.140625 C 4.0625 -20.453125 3.546875 -18.421875 2.984375 -16.125 C 1.515625 -16.109375 -0.078125 -16.078125 -1.8125 -16.015625 C -4.1875 -15.96875 -6.0625 -15.921875 -6.78125 -15.921875 C -7.078125 -15.921875 -7.3125 -15.671875 -7.3125 -15.40625 C -7.3125 -15.109375 -7.078125 -14.875 -6.78125 -14.875 C -6.03125 -14.90625 -4.171875 -14.921875 -1.796875 -15 C -0.53125 -15.03125 1.015625 -15.0625 2.75 -15.109375 C 1.609375 -10.25 0.296875 -4.4375 -0.875 1.25 C -1.734375 5.421875 -2.4375 9.03125 -2.890625 11.671875 C -3.125 13.0625 -3.28125 14.15625 -3.359375 14.90625 C -3.46875 15.921875 -3.53125 16.5 -3.015625 16.6875 C -2.9375 16.6875 -2.890625 16.71875 -2.796875 16.71875 C -2.34375 16.71875 -2.109375 16.078125 -1.890625 15.484375 C -1.796875 15.21875 -1.921875 14.921875 -2.1875 14.8125 C -2.25 14.8125 -2.265625 14.796875 -2.328125 14.796875 C -2.0625 12.703125 -1.25 8.03125 0.296875 0.671875 C 1.4375 -4.90625 2.703125 -10.5 3.8125 -15.140625 C 11.15625 -15.296875 20.6875 -15.4375 21.796875 -15.0625 C 21.984375 -14.90625 22.21875 -14.90625 22.4375 -15.03125 C 22.640625 -15.1875 22.703125 -15.515625 22.53125 -15.75 Z M 22.53125 -15.75 "/></g></g></g><g fill="#000000" fill-opacity="1"><g transform="translate(61.21841, 32.682417)"><g><path d="M 11.15625 -5.921875 C 10.921875 -6.03125 10.59375 -5.921875 10.5 -5.6875 C 8.46875 -1.546875 6.9375 -0.234375 6.21875 -0.375 C 5.921875 -0.421875 4.96875 -0.984375 4.71875 -5.65625 C 4.71875 -5.875 4.5625 -6.0625 4.375 -6.109375 C 4.171875 -6.171875 3.921875 -6.109375 3.8125 -5.921875 C 3.65625 -5.734375 3.5 -5.53125 3.34375 -5.28125 C 2.671875 -4.375 1.796875 -3.15625 0.71875 -2 C 0.5625 -1.8125 0.421875 -1.703125 0.34375 -1.65625 C 0.15625 -2.59375 1.140625 -6.171875 2.71875 -7.296875 C 3.171875 -7.609375 3.796875 -7.84375 4.625 -6.890625 C 4.8125 -6.671875 5.125 -6.65625 5.34375 -6.84375 C 5.546875 -7 5.578125 -7.34375 5.421875 -7.5625 C 4.40625 -8.734375 3.4375 -8.703125 2.796875 -8.484375 C 0.75 -7.765625 -0.640625 -3.8125 -0.6875 -2 C -0.71875 -1.25 -0.5 -0.78125 -0.078125 -0.609375 C 0.59375 -0.34375 1.25 -1.0625 1.46875 -1.3125 C 2.375 -2.296875 3.203125 -3.359375 3.796875 -4.1875 C 4.078125 -1.140625 4.8125 0.375 6.015625 0.640625 C 6.109375 0.640625 6.21875 0.671875 6.328125 0.671875 C 8.140625 0.671875 10.09375 -2.515625 11.40625 -5.234375 C 11.53125 -5.5 11.421875 -5.796875 11.15625 -5.921875 Z M 11.15625 -5.921875 "/></g></g></g><g fill="#000000" fill-opacity="1"><g transform="translate(73.843973, 32.682417)"><g><path d="M 11.484375 -6.015625 C 11.234375 -6.140625 10.921875 -6.0625 10.78125 -5.828125 C 8.515625 -2.1875 4.4375 0.875 2.90625 0.59375 C 2.671875 0.5625 2.34375 0.421875 2.1875 -0.1875 C 2.265625 -0.296875 2.40625 -0.40625 2.53125 -0.5 C 2.96875 -0.875 3.578125 -1.421875 4.109375 -2.078125 C 4.96875 -3.203125 5.34375 -4.5625 5.015625 -5.34375 C 4.859375 -5.65625 4.59375 -5.875 4.25 -5.90625 C 3.5 -5.953125 2.640625 -5.203125 1.625 -3.625 C 1.140625 -2.890625 0.6875 -2.0625 0.296875 -1.171875 C 1.125 -4.890625 2.140625 -9.34375 2.90625 -12.6875 C 6.484375 -19.09375 8.28125 -23.90625 7.53125 -24.9375 C 7.375 -25.15625 7.109375 -25.265625 6.84375 -25.203125 C 5.6875 -25 3.90625 -21.09375 2.703125 -16.15625 C 2.515625 -15.40625 2.25 -14.3125 1.953125 -13.03125 C 1.921875 -13 1.921875 -12.953125 1.921875 -12.890625 C 0.40625 -6.46875 -2.15625 4.90625 -2.1875 5.796875 C -2.1875 6.0625 -2 6.28125 -1.765625 6.296875 C -1.734375 6.328125 -1.703125 6.328125 -1.65625 6.328125 C -1.4375 6.328125 -1.25 6.171875 -1.171875 5.953125 L -1.0625 5.578125 C -0.1875 2.796875 0.9375 -0.6875 2.484375 -3.078125 C 3.390625 -4.484375 3.921875 -4.8125 4.078125 -4.859375 C 4.171875 -4.5625 4.03125 -3.65625 3.28125 -2.703125 C 2.828125 -2.140625 2.265625 -1.625 1.84375 -1.28125 C 1.3125 -0.796875 1.0625 -0.59375 1.125 -0.21875 C 1.390625 1.09375 2.140625 1.5 2.71875 1.609375 C 2.859375 1.625 2.984375 1.625 3.125 1.625 C 5.6875 1.625 9.859375 -2.40625 11.640625 -5.28125 C 11.796875 -5.53125 11.71875 -5.84375 11.484375 -6.015625 Z M 6.65625 -23.734375 C 6.46875 -22.640625 5.6875 -20.375 3.90625 -16.75 C 4.9375 -20.609375 6.03125 -22.828125 6.65625 -23.734375 Z M 6.65625 -23.734375 "/></g></g></g><g fill="#000000" fill-opacity="1"><g transform="translate(86.94998, 32.682417)"><g><path d="M 9.03125 -5.953125 C 8.78125 -6.109375 8.46875 -6.0625 8.296875 -5.828125 C 6.296875 -3.015625 4.671875 -1.25 3.078125 -0.109375 C 2.265625 0.453125 1.5 0.5625 0.984375 0.1875 C 0.671875 -0.046875 -0.328125 -1.125 0.828125 -4.859375 C 3.421875 -7 4.828125 -9.03125 4.453125 -10.09375 C 4.328125 -10.421875 4 -10.625 3.65625 -10.625 C 2.59375 -10.59375 0.96875 -8.765625 -0.109375 -5.3125 C -1.421875 -1.0625 -0.34375 0.484375 0.40625 1.015625 C 0.78125 1.3125 1.203125 1.4375 1.6875 1.4375 C 2.296875 1.4375 2.984375 1.203125 3.65625 0.71875 C 5.375 -0.5 7.046875 -2.328125 9.125 -5.234375 C 9.296875 -5.46875 9.234375 -5.796875 9.03125 -5.953125 Z M 3.4375 -9.5 C 3.34375 -9.078125 2.890625 -8.21875 1.625 -6.9375 C 2.328125 -8.484375 3.078125 -9.234375 3.4375 -9.5 Z M 3.4375 -9.5 "/></g></g></g><g fill="#000000" fill-opacity="1"><g transform="translate(97.413569, 32.682417)"><g><path d="M 11.15625 -5.921875 C 10.921875 -6.03125 10.59375 -5.921875 10.5 -5.6875 C 8.46875 -1.546875 6.9375 -0.234375 6.21875 -0.375 C 5.921875 -0.421875 4.96875 -0.984375 4.71875 -5.65625 C 4.71875 -5.875 4.5625 -6.0625 4.375 -6.109375 C 4.171875 -6.171875 3.921875 -6.109375 3.8125 -5.921875 C 3.65625 -5.734375 3.5 -5.53125 3.34375 -5.28125 C 2.671875 -4.375 1.796875 -3.15625 0.71875 -2 C 0.5625 -1.8125 0.421875 -1.703125 0.34375 -1.65625 C 0.15625 -2.59375 1.140625 -6.171875 2.71875 -7.296875 C 3.171875 -7.609375 3.796875 -7.84375 4.625 -6.890625 C 4.8125 -6.671875 5.125 -6.65625 5.34375 -6.84375 C 5.546875 -7 5.578125 -7.34375 5.421875 -7.5625 C 4.40625 -8.734375 3.4375 -8.703125 2.796875 -8.484375 C 0.75 -7.765625 -0.640625 -3.8125 -0.6875 -2 C -0.71875 -1.25 -0.5 -0.78125 -0.078125 -0.609375 C 0.59375 -0.34375 1.25 -1.0625 1.46875 -1.3125 C 2.375 -2.296875 3.203125 -3.359375 3.796875 -4.1875 C 4.078125 -1.140625 4.8125 0.375 6.015625 0.640625 C 6.109375 0.640625 6.21875 0.671875 6.328125 0.671875 C 8.140625 0.671875 10.09375 -2.515625 11.40625 -5.234375 C 11.53125 -5.5 11.421875 -5.796875 11.15625 -5.921875 Z M 11.15625 -5.921875 "/></g></g></g><g fill="#000000" fill-opacity="1"><g transform="translate(110.039138, 32.682417)"><g><path d="M 16.34375 -6.015625 C 16.15625 -6.1875 15.8125 -6.1875 15.625 -6.015625 C 14.265625 -4.59375 12.796875 -3.953125 11.703125 -4.296875 C 10.78125 -4.5625 10.140625 -5.5 9.859375 -7.015625 C 9.796875 -7.265625 9.59375 -7.453125 9.34375 -7.453125 C 9.078125 -7.421875 8.859375 -7.234375 8.84375 -7 C 8.46875 -4.296875 6.84375 -0.296875 6.171875 0.140625 C 6.09375 0.046875 5.953125 -0.1875 5.84375 -0.828125 C 5.6875 -1.625 5.640625 -2.671875 5.640625 -3.3125 C 5.640625 -3.53125 5.46875 -3.734375 5.265625 -3.796875 C 5.015625 -3.875 4.8125 -3.765625 4.671875 -3.578125 C 2.9375 -0.859375 2.1875 0.21875 1.578125 0.796875 C 1.28125 1.0625 1.09375 1.125 1.046875 1.0625 C 0.5625 0.78125 0.21875 -2.140625 2.140625 -7.484375 C 2.25 -7.75 2.078125 -8.03125 1.8125 -8.140625 C 1.546875 -8.21875 1.25 -8.09375 1.171875 -7.828125 C -0.5625 -3.046875 -0.859375 1.0625 0.484375 1.953125 C 0.609375 2.03125 0.828125 2.109375 1.0625 2.109375 C 1.390625 2.109375 1.796875 1.96875 2.265625 1.546875 C 2.828125 1.015625 3.46875 0.1875 4.671875 -1.6875 C 4.71875 -1.3125 4.75 -0.96875 4.828125 -0.609375 C 4.90625 -0.15625 5.203125 1.203125 6.140625 1.171875 C 6.671875 1.171875 7.421875 0.78125 8.546875 -2.15625 C 8.890625 -3.078125 9.21875 -4.078125 9.453125 -5 C 10.015625 -3.953125 10.78125 -3.5 11.40625 -3.3125 C 12.875 -2.859375 14.6875 -3.578125 16.34375 -5.28125 C 16.5625 -5.46875 16.5625 -5.796875 16.34375 -6.015625 Z M 16.34375 -6.015625 "/></g></g></g><g fill="#000000" fill-opacity="1"><g transform="translate(127.92283, 32.682417)"><g><path d="M 11.15625 -5.921875 C 10.921875 -6.03125 10.59375 -5.921875 10.5 -5.6875 C 8.46875 -1.546875 6.9375 -0.234375 6.21875 -0.375 C 5.921875 -0.421875 4.96875 -0.984375 4.71875 -5.65625 C 4.71875 -5.875 4.5625 -6.0625 4.375 -6.109375 C 4.171875 -6.171875 3.921875 -6.109375 3.8125 -5.921875 C 3.65625 -5.734375 3.5 -5.53125 3.34375 -5.28125 C 2.671875 -4.375 1.796875 -3.15625 0.71875 -2 C 0.5625 -1.8125 0.421875 -1.703125 0.34375 -1.65625 C 0.15625 -2.59375 1.140625 -6.171875 2.71875 -7.296875 C 3.171875 -7.609375 3.796875 -7.84375 4.625 -6.890625 C 4.8125 -6.671875 5.125 -6.65625 5.34375 -6.84375 C 5.546875 -7 5.578125 -7.34375 5.421875 -7.5625 C 4.40625 -8.734375 3.4375 -8.703125 2.796875 -8.484375 C 0.75 -7.765625 -0.640625 -3.8125 -0.6875 -2 C -0.71875 -1.25 -0.5 -0.78125 -0.078125 -0.609375 C 0.59375 -0.34375 1.25 -1.0625 1.46875 -1.3125 C 2.375 -2.296875 3.203125 -3.359375 3.796875 -4.1875 C 4.078125 -1.140625 4.8125 0.375 6.015625 0.640625 C 6.109375 0.640625 6.21875 0.671875 6.328125 0.671875 C 8.140625 0.671875 10.09375 -2.515625 11.40625 -5.234375 C 11.53125 -5.5 11.421875 -5.796875 11.15625 -5.921875 Z M 11.15625 -5.921875 "/></g></g></g><g fill="#000000" fill-opacity="1"><g transform="translate(140.548393, 32.682417)"><g><path d="M 13.0625 -5.875 C 12.890625 -6.109375 12.578125 -6.171875 12.34375 -6.015625 C 10.046875 -4.515625 7.6875 -2.859375 5.453125 -0.78125 C 5.765625 -2.75 6.09375 -4.859375 6.375 -7.078125 C 6.4375 -7.3125 6.28125 -7.5625 6.03125 -7.640625 C 5.828125 -7.71875 5.546875 -7.609375 5.453125 -7.390625 C 4.90625 -6.484375 3.734375 -4.625 2.703125 -3.359375 C 2.328125 -2.90625 1.953125 -2.671875 1.765625 -2.796875 C 1.3125 -3.078125 0.984375 -4.90625 2.03125 -7.453125 C 2.140625 -7.71875 2 -8.015625 1.765625 -8.125 C 1.5 -8.21875 1.203125 -8.09375 1.09375 -7.828125 C 0 -5.15625 0.046875 -2.609375 1.25 -1.921875 C 1.546875 -1.703125 2.40625 -1.421875 3.46875 -2.703125 C 4.03125 -3.359375 4.5625 -4.109375 5.046875 -4.828125 C 4.78125 -2.984375 4.515625 -1.234375 4.21875 0.453125 C 1.96875 2.75 -0.140625 5.53125 -1.953125 9.046875 C -5 14.90625 -5.546875 21.390625 -4.03125 23.265625 C -3.734375 23.625 -3.359375 23.8125 -2.96875 23.8125 C -2.828125 23.8125 -2.71875 23.796875 -2.59375 23.765625 C -0.859375 23.265625 0.6875 19.40625 1.703125 16.265625 C 2.96875 12.34375 4.109375 7.203125 5.1875 0.9375 C 7.65625 -1.546875 10.3125 -3.46875 12.890625 -5.15625 C 13.140625 -5.3125 13.21875 -5.640625 13.0625 -5.875 Z M 0.71875 15.9375 C -1.203125 22.03125 -2.59375 22.703125 -2.859375 22.78125 C -2.96875 22.796875 -3.078125 22.796875 -3.234375 22.625 C -4.1875 21.4375 -4.265625 15.75 -1.046875 9.5 C 0.453125 6.65625 2.109375 4.296875 3.90625 2.296875 C 2.9375 7.828125 1.875 12.390625 0.71875 15.9375 Z M 0.71875 15.9375 "/></g></g></g><g fill="#000000" fill-opacity="1"><g transform="translate(155.069014, 32.682417)"><g><path d="M 11.890625 -6.109375 C 11.671875 -6.296875 11.34375 -6.28125 11.15625 -6.0625 C 9.046875 -3.625 5.734375 0.234375 5.203125 0.9375 C 5.046875 1.125 4.890625 1.328125 4.71875 1.546875 C 4.515625 1.015625 4.25 0.5 3.90625 -0.03125 C 2.609375 -2 1.46875 -3.875 1.515625 -5.1875 C 1.578125 -6.21875 2.109375 -7.125 2.984375 -7.65625 C 3.71875 -8.09375 4.515625 -8.171875 5.125 -7.875 C 5.375 -7.765625 5.6875 -7.875 5.796875 -8.140625 C 5.921875 -8.390625 5.828125 -8.703125 5.546875 -8.8125 C 4.640625 -9.234375 3.46875 -9.125 2.453125 -8.546875 C 1.28125 -7.828125 0.59375 -6.625 0.5 -5.234375 C 0.421875 -3.609375 1.609375 -1.65625 3.046875 0.53125 C 3.5 1.234375 3.796875 1.890625 3.984375 2.53125 C 1.890625 5.375 -0.34375 9 0.796875 10.125 C 0.984375 10.3125 1.234375 10.390625 1.46875 10.390625 C 1.890625 10.390625 2.375 10.171875 2.890625 9.765625 C 4.328125 8.578125 5.828125 5.84375 5.09375 2.75 C 5.390625 2.375 5.6875 1.96875 6.015625 1.578125 C 6.546875 0.90625 9.859375 -2.96875 11.9375 -5.390625 C 12.125 -5.609375 12.09375 -5.921875 11.890625 -6.109375 Z M 3.203125 7.84375 C 2.484375 8.921875 1.765625 9.34375 1.515625 9.375 C 1.421875 9 1.765625 7.453125 4.25 3.921875 C 4.359375 5.84375 3.546875 7.3125 3.203125 7.84375 Z M 3.203125 7.84375 "/></g></g></g></svg>