<svg xmlns="http://www.w3.org/2000/svg" xmlns:xlink="http://www.w3.org/1999/xlink" width="450" zoomAndPan="magnify" viewBox="0 0 337.5 60" height="80" preserveAspectRatio="xMidYMid meet" version="1.0"><defs><g/><clipPath id="30de9b81e5"><path d="M 0 0.0429688 L 337 0.0429688 L 337 59.953125 L 0 59.953125 Z M 0 0.0429688 " clip-rule="nonzero"/></clipPath></defs><g clip-path="url(#30de9b81e5)"><path fill="#ffffff" d="M 0 0.0429688 L 337 0.0429688 L 337 59.957031 L 0 59.957031 Z M 0 0.0429688 " fill-opacity="1" fill-rule="nonzero"/><path fill="#ffffff" d="M 0 0.0429688 L 337 0.0429688 L 337 59.957031 L 0 59.957031 Z M 0 0.0429688 " fill-opacity="1" fill-rule="nonzero"/></g><g fill="#fffff3" fill-opacity="0.4"><g transform="translate(132.152912, 37.120708)"><g><path d="M 11.71875 -6.03125 C 11.453125 -6.171875 11.140625 -6.0625 11.03125 -5.796875 C 7.953125 0.671875 5.046875 3.984375 4.40625 3.875 C 4.359375 3.84375 3.421875 2.9375 6.4375 -6.328125 C 6.515625 -6.5625 6.703125 -7.125 6.28125 -7.421875 C 5.875 -7.75 5.421875 -7.453125 4.671875 -6.9375 C 3.875 -6.4375 2.78125 -5.71875 1.921875 -5.828125 C 4.640625 -10.515625 4.375 -11.5625 3.765625 -11.96875 C 2.796875 -12.53125 1.421875 -10.890625 0.78125 -9.953125 C -0.53125 -7.9375 -0.5 -6.09375 0.875 -5.15625 C 2.296875 -4.171875 4.140625 -5.375 5.234375 -6.09375 C 5.265625 -6.109375 5.265625 -6.109375 5.28125 -6.140625 C 4.25 -2.859375 3.578125 -0.265625 3.34375 1.515625 C 3.046875 3.5 3.25 4.546875 4 4.828125 C 4.140625 4.859375 4.25 4.890625 4.375 4.890625 C 6.515625 4.890625 10.234375 -1.6875 11.96875 -5.34375 C 12.0625 -5.609375 11.96875 -5.921875 11.71875 -6.03125 Z M 0.9375 -7.875 C 1.3125 -9.3125 2.5625 -10.65625 3.125 -10.96875 C 3.078125 -10.546875 2.78125 -9.34375 1.0625 -6.375 C 0.875 -6.671875 0.75 -7.125 0.9375 -7.875 Z M 0.9375 -7.875 "/></g></g></g><g fill="#fffff3" fill-opacity="0.4"><g transform="translate(145.49913, 37.120708)"><g><path d="M 9.03125 -5.953125 C 8.78125 -6.109375 8.46875 -6.0625 8.296875 -5.828125 C 6.296875 -3.015625 4.671875 -1.25 3.078125 -0.109375 C 2.265625 0.453125 1.5 0.5625 0.984375 0.1875 C 0.671875 -0.046875 -0.328125 -1.125 0.828125 -4.859375 C 3.421875 -7 4.828125 -9.03125 4.453125 -10.09375 C 4.328125 -10.421875 4 -10.625 3.65625 -10.625 C 2.59375 -10.59375 0.96875 -8.765625 -0.109375 -5.3125 C -1.421875 -1.0625 -0.34375 0.484375 0.40625 1.015625 C 0.78125 1.3125 1.203125 1.4375 1.6875 1.4375 C 2.296875 1.4375 2.984375 1.203125 3.65625 0.71875 C 5.375 -0.5 7.046875 -2.328125 9.125 -5.234375 C 9.296875 -5.46875 9.234375 -5.796875 9.03125 -5.953125 Z M 3.4375 -9.5 C 3.34375 -9.078125 2.890625 -8.21875 1.625 -6.9375 C 2.328125 -8.484375 3.078125 -9.234375 3.4375 -9.5 Z M 3.4375 -9.5 "/></g></g></g><g fill="#fffff3" fill-opacity="0.4"><g transform="translate(155.962721, 37.120708)"><g><path d="M 13.40625 -5.828125 C 13.1875 -6.015625 12.875 -5.984375 12.6875 -5.765625 C 11.59375 -4.484375 10.125 -3.84375 8.921875 -4.171875 C 7.9375 -4.4375 7.203125 -5.390625 6.9375 -6.84375 C 6.890625 -7.078125 6.65625 -7.234375 6.40625 -7.234375 C 6.171875 -7.234375 5.953125 -7.046875 5.921875 -6.8125 C 5.375 -2.796875 2.1875 1.96875 0.671875 2.484375 C 0.484375 2.53125 0.421875 2.515625 0.421875 2.484375 C 0.296875 2.375 -0.609375 1.125 2.21875 -7.296875 C 2.296875 -7.5625 2.15625 -7.84375 1.890625 -7.9375 C 1.625 -8.03125 1.328125 -7.875 1.234375 -7.609375 C -1.875 1.65625 -0.6875 2.828125 -0.328125 3.203125 C -0.15625 3.34375 0.109375 3.546875 0.5 3.546875 C 0.640625 3.546875 0.796875 3.53125 0.984375 3.4375 C 1.96875 3.125 3.3125 1.703125 4.515625 -0.296875 C 5.421875 -1.796875 6.109375 -3.390625 6.546875 -4.890625 C 7.046875 -4 7.765625 -3.421875 8.65625 -3.171875 C 10.234375 -2.78125 12.09375 -3.53125 13.453125 -5.09375 C 13.640625 -5.3125 13.625 -5.640625 13.40625 -5.828125 Z M 13.40625 -5.828125 "/></g></g></g><g fill="#fffff3" fill-opacity="0.4"><g transform="translate(171.257387, 37.120708)"><g><path d="M 7.796875 -6.0625 C 7.5625 -6.21875 7.265625 -6.140625 7.109375 -5.90625 C 5.3125 -3.015625 2.328125 -0.296875 1.421875 -0.671875 C 1.3125 -0.71875 0.453125 -1.234375 1.625 -5.734375 C 1.6875 -6.03125 1.515625 -6.296875 1.25 -6.375 C 0.96875 -6.4375 0.6875 -6.28125 0.609375 -6.015625 C -0.34375 -2.25 -0.21875 -0.234375 0.984375 0.265625 C 1.171875 0.34375 1.359375 0.375 1.546875 0.375 C 3.546875 0.375 6.625 -3.203125 7.984375 -5.375 C 8.125 -5.609375 8.03125 -5.921875 7.796875 -6.0625 Z M 1.5 -8.21875 C 2.859375 -8.140625 2.828125 -9.859375 1.734375 -9.484375 C 1.171875 -9.3125 0.453125 -8.28125 1.5 -8.21875 Z M 1.5 -8.21875 "/></g></g></g><g fill="#fffff3" fill-opacity="0.4"><g transform="translate(180.706724, 37.120708)"><g><path d="M 9.03125 -5.953125 C 8.78125 -6.109375 8.46875 -6.0625 8.296875 -5.828125 C 6.296875 -3.015625 4.671875 -1.25 3.078125 -0.109375 C 2.265625 0.453125 1.5 0.5625 0.984375 0.1875 C 0.671875 -0.046875 -0.328125 -1.125 0.828125 -4.859375 C 3.421875 -7 4.828125 -9.03125 4.453125 -10.09375 C 4.328125 -10.421875 4 -10.625 3.65625 -10.625 C 2.59375 -10.59375 0.96875 -8.765625 -0.109375 -5.3125 C -1.421875 -1.0625 -0.34375 0.484375 0.40625 1.015625 C 0.78125 1.3125 1.203125 1.4375 1.6875 1.4375 C 2.296875 1.4375 2.984375 1.203125 3.65625 0.71875 C 5.375 -0.5 7.046875 -2.328125 9.125 -5.234375 C 9.296875 -5.46875 9.234375 -5.796875 9.03125 -5.953125 Z M 3.4375 -9.5 C 3.34375 -9.078125 2.890625 -8.21875 1.625 -6.9375 C 2.328125 -8.484375 3.078125 -9.234375 3.4375 -9.5 Z M 3.4375 -9.5 "/></g></g></g><g fill="#fffff3" fill-opacity="0.4"><g transform="translate(191.170314, 37.120708)"><g><path d="M 16.34375 -6.015625 C 16.15625 -6.1875 15.8125 -6.1875 15.625 -6.015625 C 14.265625 -4.59375 12.796875 -3.953125 11.703125 -4.296875 C 10.78125 -4.5625 10.140625 -5.5 9.859375 -7.015625 C 9.796875 -7.265625 9.59375 -7.453125 9.34375 -7.453125 C 9.078125 -7.421875 8.859375 -7.234375 8.84375 -7 C 8.46875 -4.296875 6.84375 -0.296875 6.171875 0.140625 C 6.09375 0.046875 5.953125 -0.1875 5.84375 -0.828125 C 5.6875 -1.625 5.640625 -2.671875 5.640625 -3.3125 C 5.640625 -3.53125 5.46875 -3.734375 5.265625 -3.796875 C 5.015625 -3.875 4.8125 -3.765625 4.671875 -3.578125 C 2.9375 -0.859375 2.1875 0.21875 1.578125 0.796875 C 1.28125 1.0625 1.09375 1.125 1.046875 1.0625 C 0.5625 0.78125 0.21875 -2.140625 2.140625 -7.484375 C 2.25 -7.75 2.078125 -8.03125 1.8125 -8.140625 C 1.546875 -8.21875 1.25 -8.09375 1.171875 -7.828125 C -0.5625 -3.046875 -0.859375 1.0625 0.484375 1.953125 C 0.609375 2.03125 0.828125 2.109375 1.0625 2.109375 C 1.390625 2.109375 1.796875 1.96875 2.265625 1.546875 C 2.828125 1.015625 3.46875 0.1875 4.671875 -1.6875 C 4.71875 -1.3125 4.75 -0.96875 4.828125 -0.609375 C 4.90625 -0.15625 5.203125 1.203125 6.140625 1.171875 C 6.671875 1.171875 7.421875 0.78125 8.546875 -2.15625 C 8.890625 -3.078125 9.21875 -4.078125 9.453125 -5 C 10.015625 -3.953125 10.78125 -3.5 11.40625 -3.3125 C 12.875 -2.859375 14.6875 -3.578125 16.34375 -5.28125 C 16.5625 -5.46875 16.5625 -5.796875 16.34375 -6.015625 Z M 16.34375 -6.015625 "/></g></g></g><g fill="#000000" fill-opacity="1"><g transform="translate(131.397774, 36.36557)"><g><path d="M 11.71875 -6.03125 C 11.453125 -6.171875 11.140625 -6.0625 11.03125 -5.796875 C 7.953125 0.671875 5.046875 3.984375 4.40625 3.875 C 4.359375 3.84375 3.421875 2.9375 6.4375 -6.328125 C 6.515625 -6.5625 6.703125 -7.125 6.28125 -7.421875 C 5.875 -7.75 5.421875 -7.453125 4.671875 -6.9375 C 3.875 -6.4375 2.78125 -5.71875 1.921875 -5.828125 C 4.640625 -10.515625 4.375 -11.5625 3.765625 -11.96875 C 2.796875 -12.53125 1.421875 -10.890625 0.78125 -9.953125 C -0.53125 -7.9375 -0.5 -6.09375 0.875 -5.15625 C 2.296875 -4.171875 4.140625 -5.375 5.234375 -6.09375 C 5.265625 -6.109375 5.265625 -6.109375 5.28125 -6.140625 C 4.25 -2.859375 3.578125 -0.265625 3.34375 1.515625 C 3.046875 3.5 3.25 4.546875 4 4.828125 C 4.140625 4.859375 4.25 4.890625 4.375 4.890625 C 6.515625 4.890625 10.234375 -1.6875 11.96875 -5.34375 C 12.0625 -5.609375 11.96875 -5.921875 11.71875 -6.03125 Z M 0.9375 -7.875 C 1.3125 -9.3125 2.5625 -10.65625 3.125 -10.96875 C 3.078125 -10.546875 2.78125 -9.34375 1.0625 -6.375 C 0.875 -6.671875 0.75 -7.125 0.9375 -7.875 Z M 0.9375 -7.875 "/></g></g></g><g fill="#000000" fill-opacity="1"><g transform="translate(144.743992, 36.36557)"><g><path d="M 9.03125 -5.953125 C 8.78125 -6.109375 8.46875 -6.0625 8.296875 -5.828125 C 6.296875 -3.015625 4.671875 -1.25 3.078125 -0.109375 C 2.265625 0.453125 1.5 0.5625 0.984375 0.1875 C 0.671875 -0.046875 -0.328125 -1.125 0.828125 -4.859375 C 3.421875 -7 4.828125 -9.03125 4.453125 -10.09375 C 4.328125 -10.421875 4 -10.625 3.65625 -10.625 C 2.59375 -10.59375 0.96875 -8.765625 -0.109375 -5.3125 C -1.421875 -1.0625 -0.34375 0.484375 0.40625 1.015625 C 0.78125 1.3125 1.203125 1.4375 1.6875 1.4375 C 2.296875 1.4375 2.984375 1.203125 3.65625 0.71875 C 5.375 -0.5 7.046875 -2.328125 9.125 -5.234375 C 9.296875 -5.46875 9.234375 -5.796875 9.03125 -5.953125 Z M 3.4375 -9.5 C 3.34375 -9.078125 2.890625 -8.21875 1.625 -6.9375 C 2.328125 -8.484375 3.078125 -9.234375 3.4375 -9.5 Z M 3.4375 -9.5 "/></g></g></g><g fill="#000000" fill-opacity="1"><g transform="translate(155.207583, 36.36557)"><g><path d="M 13.40625 -5.828125 C 13.1875 -6.015625 12.875 -5.984375 12.6875 -5.765625 C 11.59375 -4.484375 10.125 -3.84375 8.921875 -4.171875 C 7.9375 -4.4375 7.203125 -5.390625 6.9375 -6.84375 C 6.890625 -7.078125 6.65625 -7.234375 6.40625 -7.234375 C 6.171875 -7.234375 5.953125 -7.046875 5.921875 -6.8125 C 5.375 -2.796875 2.1875 1.96875 0.671875 2.484375 C 0.484375 2.53125 0.421875 2.515625 0.421875 2.484375 C 0.296875 2.375 -0.609375 1.125 2.21875 -7.296875 C 2.296875 -7.5625 2.15625 -7.84375 1.890625 -7.9375 C 1.625 -8.03125 1.328125 -7.875 1.234375 -7.609375 C -1.875 1.65625 -0.6875 2.828125 -0.328125 3.203125 C -0.15625 3.34375 0.109375 3.546875 0.5 3.546875 C 0.640625 3.546875 0.796875 3.53125 0.984375 3.4375 C 1.96875 3.125 3.3125 1.703125 4.515625 -0.296875 C 5.421875 -1.796875 6.109375 -3.390625 6.546875 -4.890625 C 7.046875 -4 7.765625 -3.421875 8.65625 -3.171875 C 10.234375 -2.78125 12.09375 -3.53125 13.453125 -5.09375 C 13.640625 -5.3125 13.625 -5.640625 13.40625 -5.828125 Z M 13.40625 -5.828125 "/></g></g></g><g fill="#000000" fill-opacity="1"><g transform="translate(170.502248, 36.36557)"><g><path d="M 7.796875 -6.0625 C 7.5625 -6.21875 7.265625 -6.140625 7.109375 -5.90625 C 5.3125 -3.015625 2.328125 -0.296875 1.421875 -0.671875 C 1.3125 -0.71875 0.453125 -1.234375 1.625 -5.734375 C 1.6875 -6.03125 1.515625 -6.296875 1.25 -6.375 C 0.96875 -6.4375 0.6875 -6.28125 0.609375 -6.015625 C -0.34375 -2.25 -0.21875 -0.234375 0.984375 0.265625 C 1.171875 0.34375 1.359375 0.375 1.546875 0.375 C 3.546875 0.375 6.625 -3.203125 7.984375 -5.375 C 8.125 -5.609375 8.03125 -5.921875 7.796875 -6.0625 Z M 1.5 -8.21875 C 2.859375 -8.140625 2.828125 -9.859375 1.734375 -9.484375 C 1.171875 -9.3125 0.453125 -8.28125 1.5 -8.21875 Z M 1.5 -8.21875 "/></g></g></g><g fill="#000000" fill-opacity="1"><g transform="translate(179.951586, 36.36557)"><g><path d="M 9.03125 -5.953125 C 8.78125 -6.109375 8.46875 -6.0625 8.296875 -5.828125 C 6.296875 -3.015625 4.671875 -1.25 3.078125 -0.109375 C 2.265625 0.453125 1.5 0.5625 0.984375 0.1875 C 0.671875 -0.046875 -0.328125 -1.125 0.828125 -4.859375 C 3.421875 -7 4.828125 -9.03125 4.453125 -10.09375 C 4.328125 -10.421875 4 -10.625 3.65625 -10.625 C 2.59375 -10.59375 0.96875 -8.765625 -0.109375 -5.3125 C -1.421875 -1.0625 -0.34375 0.484375 0.40625 1.015625 C 0.78125 1.3125 1.203125 1.4375 1.6875 1.4375 C 2.296875 1.4375 2.984375 1.203125 3.65625 0.71875 C 5.375 -0.5 7.046875 -2.328125 9.125 -5.234375 C 9.296875 -5.46875 9.234375 -5.796875 9.03125 -5.953125 Z M 3.4375 -9.5 C 3.34375 -9.078125 2.890625 -8.21875 1.625 -6.9375 C 2.328125 -8.484375 3.078125 -9.234375 3.4375 -9.5 Z M 3.4375 -9.5 "/></g></g></g><g fill="#000000" fill-opacity="1"><g transform="translate(190.415175, 36.36557)"><g><path d="M 16.34375 -6.015625 C 16.15625 -6.1875 15.8125 -6.1875 15.625 -6.015625 C 14.265625 -4.59375 12.796875 -3.953125 11.703125 -4.296875 C 10.78125 -4.5625 10.140625 -5.5 9.859375 -7.015625 C 9.796875 -7.265625 9.59375 -7.453125 9.34375 -7.453125 C 9.078125 -7.421875 8.859375 -7.234375 8.84375 -7 C 8.46875 -4.296875 6.84375 -0.296875 6.171875 0.140625 C 6.09375 0.046875 5.953125 -0.1875 5.84375 -0.828125 C 5.6875 -1.625 5.640625 -2.671875 5.640625 -3.3125 C 5.640625 -3.53125 5.46875 -3.734375 5.265625 -3.796875 C 5.015625 -3.875 4.8125 -3.765625 4.671875 -3.578125 C 2.9375 -0.859375 2.1875 0.21875 1.578125 0.796875 C 1.28125 1.0625 1.09375 1.125 1.046875 1.0625 C 0.5625 0.78125 0.21875 -2.140625 2.140625 -7.484375 C 2.25 -7.75 2.078125 -8.03125 1.8125 -8.140625 C 1.546875 -8.21875 1.25 -8.09375 1.171875 -7.828125 C -0.5625 -3.046875 -0.859375 1.0625 0.484375 1.953125 C 0.609375 2.03125 0.828125 2.109375 1.0625 2.109375 C 1.390625 2.109375 1.796875 1.96875 2.265625 1.546875 C 2.828125 1.015625 3.46875 0.1875 4.671875 -1.6875 C 4.71875 -1.3125 4.75 -0.96875 4.828125 -0.609375 C 4.90625 -0.15625 5.203125 1.203125 6.140625 1.171875 C 6.671875 1.171875 7.421875 0.78125 8.546875 -2.15625 C 8.890625 -3.078125 9.21875 -4.078125 9.453125 -5 C 10.015625 -3.953125 10.78125 -3.5 11.40625 -3.3125 C 12.875 -2.859375 14.6875 -3.578125 16.34375 -5.28125 C 16.5625 -5.46875 16.5625 -5.796875 16.34375 -6.015625 Z M 16.34375 -6.015625 "/></g></g></g></svg>