<svg xmlns="http://www.w3.org/2000/svg" xmlns:xlink="http://www.w3.org/1999/xlink" width="450" zoomAndPan="magnify" viewBox="0 0 337.5 60" height="80" preserveAspectRatio="xMidYMid meet" version="1.0"><defs><g/></defs><path stroke-linecap="butt" transform="matrix(0.748891, 0, 0, 0.748891, 5.991124, 11.652183)" fill="none" stroke-linejoin="miter" d="M 15.649569 24.938147 C 15.289661 24.766018 14.867161 24.906851 14.726328 25.261542 C 10.626513 33.888888 6.73534 38.306882 5.885124 38.171265 C 5.812099 38.134753 4.560247 36.924629 8.592254 24.546943 C 8.696575 24.228764 8.946945 23.477653 8.383612 23.08645 C 7.841143 22.658733 7.230865 23.049937 6.239815 23.73324 C 5.170525 24.411326 3.710031 25.365863 2.567716 25.230246 C 6.203303 18.950122 5.848612 17.557437 5.029692 17.030616 C 3.741328 16.279505 1.88963 18.454598 1.034198 19.701233 C -0.713179 22.408363 -0.676666 24.870339 1.175031 26.116974 C 3.063241 27.436635 5.525217 25.835308 6.990927 24.870339 C 7.022223 24.833826 7.022223 24.833826 7.058735 24.80253 C 5.66605 29.189228 4.779322 32.642252 4.455926 35.025987 C 4.064723 37.67574 4.351605 39.057993 5.342655 39.449197 C 5.525217 39.48571 5.66605 39.527438 5.848612 39.527438 C 8.696575 39.527438 13.657038 30.754042 15.972964 25.87182 C 16.108581 25.517129 15.972964 25.089413 15.649569 24.938147 Z M 1.24284 22.486604 C 1.748797 20.551449 3.417933 18.777993 4.169044 18.350277 C 4.101235 18.918826 3.710031 20.520153 1.425402 24.479135 C 1.175031 24.087931 1.002902 23.477653 1.24284 22.486604 Z M 29.86852 25.0529 C 29.555557 24.833826 29.117409 24.906851 28.908767 25.230246 C 26.23815 28.970154 24.063057 31.322592 21.919261 32.861327 C 20.84997 33.607222 19.811976 33.748055 19.144322 33.25253 C 18.71139 32.929135 17.396946 31.505154 18.925248 26.513394 C 22.383489 23.660215 24.271699 20.953085 23.776174 19.529104 C 23.598828 19.101388 23.165896 18.814505 22.701668 18.814505 C 21.277686 18.845801 19.102594 21.312993 17.683828 25.908332 C 15.931236 31.572962 17.360433 33.643734 18.351483 34.358333 C 18.857439 34.749536 19.420773 34.921666 20.067563 34.921666 C 20.886483 34.921666 21.81494 34.603487 22.701668 33.967129 C 24.986298 32.318857 27.229199 29.903826 30.014569 26.012653 C 30.223211 25.689258 30.155403 25.261542 29.86852 25.0529 Z M 22.414785 20.311511 C 22.279168 20.874845 21.66889 22.017159 19.999754 23.73324 C 20.917779 21.657252 21.919261 20.666203 22.414785 20.311511 Z M 49.689509 25.230246 C 49.402626 24.97466 48.97491 25.011172 48.729755 25.298055 C 47.269262 27.014135 45.302811 27.864351 43.701484 27.436635 C 42.387039 27.081944 41.42207 25.804011 41.062163 23.868857 C 40.994354 23.555894 40.670959 23.33682 40.347564 23.33682 C 40.029385 23.33682 39.737286 23.592406 39.70599 23.915801 C 38.954878 29.257036 34.719446 35.636265 32.679971 36.314351 C 32.440033 36.387376 32.367008 36.350864 32.367008 36.314351 C 32.184446 36.178734 30.974323 34.499166 34.750743 23.269011 C 34.855064 22.91432 34.682934 22.523116 34.328243 22.408363 C 33.968335 22.26753 33.577131 22.486604 33.431082 22.841295 C 29.294755 35.208549 30.870002 36.77858 31.365526 37.284537 C 31.574168 37.456666 31.934076 37.743549 32.471329 37.743549 C 32.648675 37.743549 32.862533 37.707037 33.118119 37.5975 C 34.432563 37.169783 36.216452 35.281574 37.81778 32.60574 C 39.027903 30.613209 39.95636 28.474629 40.530125 26.471666 C 41.202996 27.655709 42.167965 28.438116 43.341576 28.761512 C 45.44886 29.293549 47.936916 28.292067 49.757317 26.195215 C 50.007688 25.908332 49.976391 25.480616 49.689509 25.230246 Z M 62.625312 24.906851 C 62.301917 24.698209 61.910713 24.80253 61.702071 25.120709 C 59.307904 28.970154 55.317626 32.60574 54.107503 32.110215 C 53.966669 32.031975 52.824354 31.36432 54.394385 25.334567 C 54.462194 24.938147 54.24312 24.583456 53.898861 24.479135 C 53.497225 24.411326 53.137317 24.619968 53.032996 24.97466 C 51.755064 30.008147 51.927194 32.678765 53.538953 33.356851 C 53.784108 33.461172 54.034478 33.497685 54.290064 33.497685 C 56.960682 33.497685 61.060497 28.719783 62.880898 25.835308 C 63.053028 25.517129 62.948707 25.089413 62.625312 24.906851 Z M 54.211824 22.017159 C 56.027009 22.126696 55.995713 19.847283 54.530003 20.342807 C 53.784108 20.551449 52.824354 21.944135 54.211824 22.017159 Z M 76.880775 25.0529 C 76.567812 24.833826 76.129664 24.906851 75.921022 25.230246 C 73.250405 28.970154 71.075312 31.322592 68.931516 32.861327 C 67.862225 33.607222 66.829448 33.748055 66.156577 33.25253 C 65.723645 32.929135 64.409201 31.505154 65.937503 26.513394 C 69.395744 23.660215 71.283954 20.953085 70.788429 19.529104 C 70.611084 19.101388 70.178151 18.814505 69.719139 18.814505 C 68.289941 18.845801 66.114849 21.312993 64.696083 25.908332 C 62.943491 31.572962 64.372688 33.643734 65.363738 34.358333 C 65.869694 34.749536 66.438244 34.921666 67.079818 34.921666 C 67.898738 34.921666 68.827195 34.603487 69.719139 33.967129 C 71.998553 32.318857 74.241454 29.903826 77.026825 26.012653 C 77.235467 25.689258 77.167658 25.261542 76.880775 25.0529 Z M 69.432256 20.311511 C 69.291423 20.874845 68.681145 22.017159 67.012009 23.73324 C 67.93525 21.657252 68.931516 20.666203 69.432256 20.311511 Z M 100.624233 24.97466 C 100.373863 24.729505 99.91485 24.729505 99.659264 24.97466 C 97.838862 26.862869 95.882844 27.723518 94.42235 27.264505 C 93.212226 26.909814 92.351578 25.652746 91.955158 23.623703 C 91.88735 23.305524 91.600467 23.049937 91.287504 23.049937 C 90.932813 23.08645 90.64593 23.33682 90.609418 23.660215 C 90.103461 27.264505 87.9388 32.60574 87.04164 33.174289 C 86.937319 33.069968 86.754757 32.746573 86.613924 31.896357 C 86.39485 30.821851 86.327041 29.429166 86.327041 28.57895 C 86.327041 28.292067 86.118399 28.0104 85.831516 27.93216 C 85.508121 27.827839 85.221238 27.968672 85.049109 28.224258 C 82.733183 31.859845 81.731701 33.289043 80.912781 34.07145 C 80.521578 34.426141 80.271207 34.499166 80.198183 34.426141 C 79.556609 34.034938 79.09238 30.143765 81.658677 23.018641 C 81.79951 22.658733 81.580436 22.26753 81.236177 22.126696 C 80.876269 22.017159 80.485065 22.199721 80.375528 22.554412 C 78.059602 28.933641 77.668399 34.426141 79.452288 35.604969 C 79.624417 35.70929 79.9113 35.818827 80.234695 35.818827 C 80.662411 35.818827 81.189232 35.636265 81.836022 35.072932 C 82.581917 34.358333 83.437349 33.25253 85.049109 30.754042 C 85.116917 31.249567 85.15343 31.719012 85.257751 32.18324 C 85.367288 32.783086 85.758492 34.603487 87.005127 34.566975 C 87.719726 34.566975 88.721208 34.034938 90.218214 30.112468 C 90.677226 28.902345 91.104942 27.540956 91.428337 26.330832 C 92.174233 27.723518 93.212226 28.328579 94.031146 28.57895 C 95.987165 29.189228 98.417844 28.224258 100.624233 25.939629 C 100.911116 25.689258 100.911116 25.261542 100.624233 24.97466 Z M 100.624233 24.97466 " stroke="#ffffff" stroke-width="2.673773" stroke-opacity="1" stroke-miterlimit="4"/><g fill="#000000" fill-opacity="1"><g transform="translate(5.991124, 36.36557)"><g><path d="M 11.71875 -6.03125 C 11.453125 -6.171875 11.140625 -6.0625 11.03125 -5.796875 C 7.953125 0.671875 5.046875 3.984375 4.40625 3.875 C 4.359375 3.84375 3.421875 2.9375 6.4375 -6.328125 C 6.515625 -6.5625 6.703125 -7.125 6.28125 -7.421875 C 5.875 -7.75 5.421875 -7.453125 4.671875 -6.9375 C 3.875 -6.4375 2.78125 -5.71875 1.921875 -5.828125 C 4.640625 -10.515625 4.375 -11.5625 3.765625 -11.96875 C 2.796875 -12.53125 1.421875 -10.890625 0.78125 -9.953125 C -0.53125 -7.9375 -0.5 -6.09375 0.875 -5.15625 C 2.296875 -4.171875 4.140625 -5.375 5.234375 -6.09375 C 5.265625 -6.109375 5.265625 -6.109375 5.28125 -6.140625 C 4.25 -2.859375 3.578125 -0.265625 3.34375 1.515625 C 3.046875 3.5 3.25 4.546875 4 4.828125 C 4.140625 4.859375 4.25 4.890625 4.375 4.890625 C 6.515625 4.890625 10.234375 -1.6875 11.96875 -5.34375 C 12.0625 -5.609375 11.96875 -5.921875 11.71875 -6.03125 Z M 0.9375 -7.875 C 1.3125 -9.3125 2.5625 -10.65625 3.125 -10.96875 C 3.078125 -10.546875 2.78125 -9.34375 1.0625 -6.375 C 0.875 -6.671875 0.75 -7.125 0.9375 -7.875 Z M 0.9375 -7.875 "/></g></g></g><g fill="#000000" fill-opacity="1"><g transform="translate(19.337342, 36.36557)"><g><path d="M 9.03125 -5.953125 C 8.78125 -6.109375 8.46875 -6.0625 8.296875 -5.828125 C 6.296875 -3.015625 4.671875 -1.25 3.078125 -0.109375 C 2.265625 0.453125 1.5 0.5625 0.984375 0.1875 C 0.671875 -0.046875 -0.328125 -1.125 0.828125 -4.859375 C 3.421875 -7 4.828125 -9.03125 4.453125 -10.09375 C 4.328125 -10.421875 4 -10.625 3.65625 -10.625 C 2.59375 -10.59375 0.96875 -8.765625 -0.109375 -5.3125 C -1.421875 -1.0625 -0.34375 0.484375 0.40625 1.015625 C 0.78125 1.3125 1.203125 1.4375 1.6875 1.4375 C 2.296875 1.4375 2.984375 1.203125 3.65625 0.71875 C 5.375 -0.5 7.046875 -2.328125 9.125 -5.234375 C 9.296875 -5.46875 9.234375 -5.796875 9.03125 -5.953125 Z M 3.4375 -9.5 C 3.34375 -9.078125 2.890625 -8.21875 1.625 -6.9375 C 2.328125 -8.484375 3.078125 -9.234375 3.4375 -9.5 Z M 3.4375 -9.5 "/></g></g></g><g fill="#000000" fill-opacity="1"><g transform="translate(29.800933, 36.36557)"><g><path d="M 13.40625 -5.828125 C 13.1875 -6.015625 12.875 -5.984375 12.6875 -5.765625 C 11.59375 -4.484375 10.125 -3.84375 8.921875 -4.171875 C 7.9375 -4.4375 7.203125 -5.390625 6.9375 -6.84375 C 6.890625 -7.078125 6.65625 -7.234375 6.40625 -7.234375 C 6.171875 -7.234375 5.953125 -7.046875 5.921875 -6.8125 C 5.375 -2.796875 2.1875 1.96875 0.671875 2.484375 C 0.484375 2.53125 0.421875 2.515625 0.421875 2.484375 C 0.296875 2.375 -0.609375 1.125 2.21875 -7.296875 C 2.296875 -7.5625 2.15625 -7.84375 1.890625 -7.9375 C 1.625 -8.03125 1.328125 -7.875 1.234375 -7.609375 C -1.875 1.65625 -0.6875 2.828125 -0.328125 3.203125 C -0.15625 3.34375 0.109375 3.546875 0.5 3.546875 C 0.640625 3.546875 0.796875 3.53125 0.984375 3.4375 C 1.96875 3.125 3.3125 1.703125 4.515625 -0.296875 C 5.421875 -1.796875 6.109375 -3.390625 6.546875 -4.890625 C 7.046875 -4 7.765625 -3.421875 8.65625 -3.171875 C 10.234375 -2.78125 12.09375 -3.53125 13.453125 -5.09375 C 13.640625 -5.3125 13.625 -5.640625 13.40625 -5.828125 Z M 13.40625 -5.828125 "/></g></g></g><g fill="#000000" fill-opacity="1"><g transform="translate(45.095599, 36.36557)"><g><path d="M 7.796875 -6.0625 C 7.5625 -6.21875 7.265625 -6.140625 7.109375 -5.90625 C 5.3125 -3.015625 2.328125 -0.296875 1.421875 -0.671875 C 1.3125 -0.71875 0.453125 -1.234375 1.625 -5.734375 C 1.6875 -6.03125 1.515625 -6.296875 1.25 -6.375 C 0.96875 -6.4375 0.6875 -6.28125 0.609375 -6.015625 C -0.34375 -2.25 -0.21875 -0.234375 0.984375 0.265625 C 1.171875 0.34375 1.359375 0.375 1.546875 0.375 C 3.546875 0.375 6.625 -3.203125 7.984375 -5.375 C 8.125 -5.609375 8.03125 -5.921875 7.796875 -6.0625 Z M 1.5 -8.21875 C 2.859375 -8.140625 2.828125 -9.859375 1.734375 -9.484375 C 1.171875 -9.3125 0.453125 -8.28125 1.5 -8.21875 Z M 1.5 -8.21875 "/></g></g></g><g fill="#000000" fill-opacity="1"><g transform="translate(54.544936, 36.36557)"><g><path d="M 9.03125 -5.953125 C 8.78125 -6.109375 8.46875 -6.0625 8.296875 -5.828125 C 6.296875 -3.015625 4.671875 -1.25 3.078125 -0.109375 C 2.265625 0.453125 1.5 0.5625 0.984375 0.1875 C 0.671875 -0.046875 -0.328125 -1.125 0.828125 -4.859375 C 3.421875 -7 4.828125 -9.03125 4.453125 -10.09375 C 4.328125 -10.421875 4 -10.625 3.65625 -10.625 C 2.59375 -10.59375 0.96875 -8.765625 -0.109375 -5.3125 C -1.421875 -1.0625 -0.34375 0.484375 0.40625 1.015625 C 0.78125 1.3125 1.203125 1.4375 1.6875 1.4375 C 2.296875 1.4375 2.984375 1.203125 3.65625 0.71875 C 5.375 -0.5 7.046875 -2.328125 9.125 -5.234375 C 9.296875 -5.46875 9.234375 -5.796875 9.03125 -5.953125 Z M 3.4375 -9.5 C 3.34375 -9.078125 2.890625 -8.21875 1.625 -6.9375 C 2.328125 -8.484375 3.078125 -9.234375 3.4375 -9.5 Z M 3.4375 -9.5 "/></g></g></g><g fill="#000000" fill-opacity="1"><g transform="translate(65.008526, 36.36557)"><g><path d="M 16.34375 -6.015625 C 16.15625 -6.1875 15.8125 -6.1875 15.625 -6.015625 C 14.265625 -4.59375 12.796875 -3.953125 11.703125 -4.296875 C 10.78125 -4.5625 10.140625 -5.5 9.859375 -7.015625 C 9.796875 -7.265625 9.59375 -7.453125 9.34375 -7.453125 C 9.078125 -7.421875 8.859375 -7.234375 8.84375 -7 C 8.46875 -4.296875 6.84375 -0.296875 6.171875 0.140625 C 6.09375 0.046875 5.953125 -0.1875 5.84375 -0.828125 C 5.6875 -1.625 5.640625 -2.671875 5.640625 -3.3125 C 5.640625 -3.53125 5.46875 -3.734375 5.265625 -3.796875 C 5.015625 -3.875 4.8125 -3.765625 4.671875 -3.578125 C 2.9375 -0.859375 2.1875 0.21875 1.578125 0.796875 C 1.28125 1.0625 1.09375 1.125 1.046875 1.0625 C 0.5625 0.78125 0.21875 -2.140625 2.140625 -7.484375 C 2.25 -7.75 2.078125 -8.03125 1.8125 -8.140625 C 1.546875 -8.21875 1.25 -8.09375 1.171875 -7.828125 C -0.5625 -3.046875 -0.859375 1.0625 0.484375 1.953125 C 0.609375 2.03125 0.828125 2.109375 1.0625 2.109375 C 1.390625 2.109375 1.796875 1.96875 2.265625 1.546875 C 2.828125 1.015625 3.46875 0.1875 4.671875 -1.6875 C 4.71875 -1.3125 4.75 -0.96875 4.828125 -0.609375 C 4.90625 -0.15625 5.203125 1.203125 6.140625 1.171875 C 6.671875 1.171875 7.421875 0.78125 8.546875 -2.15625 C 8.890625 -3.078125 9.21875 -4.078125 9.453125 -5 C 10.015625 -3.953125 10.78125 -3.5 11.40625 -3.3125 C 12.875 -2.859375 14.6875 -3.578125 16.34375 -5.28125 C 16.5625 -5.46875 16.5625 -5.796875 16.34375 -6.015625 Z M 16.34375 -6.015625 "/></g></g></g></svg>