<svg xmlns="http://www.w3.org/2000/svg" xmlns:xlink="http://www.w3.org/1999/xlink" width="450" zoomAndPan="magnify" viewBox="0 0 337.5 60" height="80" preserveAspectRatio="xMidYMid meet" version="1.0"><defs><g/><clipPath id="5e8b0e81d1"><path d="M 0 0.0429688 L 81 0.0429688 L 81 59.953125 L 0 59.953125 Z M 0 0.0429688 " clip-rule="nonzero"/></clipPath></defs><g clip-path="url(#5e8b0e81d1)"><path stroke-linecap="butt" transform="matrix(0.748891, 0, 0, 0.748891, 5.991124, 8.742846)" fill="none" stroke-linejoin="miter" d="M 12.405186 25.260449 C 12.087007 25.124831 11.654075 25.260449 11.513242 25.620356 C 10.548272 27.691128 8.414908 34.602393 6.135494 41.878783 C 4.523735 46.943567 2.70855 52.853351 1.425402 56.52545 C 2.499908 49.901067 5.629538 31.008535 6.667531 25.802918 C 6.73534 25.516035 6.56321 25.19264 6.276328 25.051807 C 5.989445 24.905757 5.629538 25.010078 5.457408 25.260449 C 5.238334 25.516035 4.987964 25.870726 4.742809 26.230634 C 3.882161 27.404245 2.70855 29.042085 1.321081 30.502578 C 0.783828 31.076344 0.496945 31.180665 0.392624 31.217177 C 0.137037 30.825974 0.25179 28.901251 1.394105 26.940017 C 2.14 25.583844 3.923889 23.445263 6.886606 24.227671 C 7.277809 24.305912 7.632501 24.086837 7.736822 23.732146 C 7.80463 23.340942 7.590772 22.981035 7.230865 22.876714 C 3.490957 21.948257 0.888149 24.514554 -0.321975 27.221683 C -1.177407 29.224646 -1.46429 31.639677 -0.321975 32.390788 C 0.17355 32.714184 1.034198 32.823721 2.317346 31.431035 C 3.245803 30.466066 4.064723 29.433288 4.779322 28.510048 C 3.13105 37.492085 -0.139413 57.526931 -0.285463 58.632734 C -0.462808 59.910666 -0.608858 61.016469 0.25179 61.19903 C 0.319599 61.235543 0.356111 61.235543 0.42392 61.235543 C 1.034198 61.235543 1.394105 60.453135 1.853118 59.243012 C 2.244321 58.272827 2.739846 56.880141 3.386636 54.991931 C 4.560247 51.502394 6.020741 46.828814 7.413427 42.306499 C 9.593735 35.348289 11.836637 28.186652 12.759877 26.194122 C 12.905927 25.83943 12.759877 25.44301 12.405186 25.260449 Z M 29.013088 25.296961 C 28.694909 25.124831 28.267193 25.229152 28.089847 25.547331 C 24.704631 30.972023 21.851452 33.39227 21.241174 33.173196 C 21.241174 33.173196 20.526575 32.781992 21.204662 28.682177 C 21.460248 27.299924 21.564569 26.517517 20.886483 26.230634 C 20.250125 25.975047 19.858921 26.517517 19.10781 27.576375 C 18.502748 28.437023 17.683828 29.579338 16.786668 30.361745 C 16.682347 30.43477 16.291143 30.789461 16.108581 30.648628 C 15.576544 30.226128 15.472223 27.89977 16.713643 25.766405 C 16.932717 25.44301 16.786668 25.010078 16.463273 24.801436 C 16.15031 24.618875 15.717378 24.733628 15.540032 25.051807 C 14.11605 27.545078 13.975217 30.648628 15.216637 31.67619 C 15.540032 31.963072 16.42676 32.469029 17.683828 31.431035 C 18.502748 30.721653 19.212131 29.78798 19.78068 29.005572 C 19.285155 32.32298 19.572038 34.002548 20.745649 34.46156 C 20.917779 34.529369 21.100341 34.529369 21.241174 34.529369 C 23.958736 34.529369 28.335002 27.691128 29.232162 26.26193 C 29.440804 25.943751 29.336483 25.516035 29.013088 25.296961 Z M 44.092687 25.260449 C 43.774508 25.010078 43.346792 25.088319 43.127718 25.36477 C 41.630712 27.299924 39.179169 28.901251 37.280527 28.541344 C 37.322255 28.290973 37.358767 28.045819 37.358767 27.795449 C 37.603922 23.763442 36.357286 22.949739 35.611391 22.808905 C 34.755959 22.626344 33.858798 23.267918 33.431082 24.342424 C 33.258952 24.258967 33.039878 24.258967 32.867749 24.410233 C 31.438551 25.296961 30.26494 27.576375 30.901298 30.03835 C 31.329014 31.50406 32.325279 32.427301 33.650156 32.427301 C 34.896792 32.427301 36.216452 31.50406 36.889323 29.86622 C 39.387811 30.398258 42.381823 28.541344 44.197008 26.230634 C 44.452595 25.907239 44.384786 25.479523 44.092687 25.260449 Z M 33.686668 31.076344 C 33.650156 31.076344 33.650156 31.076344 33.650156 31.076344 C 32.752996 31.039832 32.361792 30.179183 32.257471 29.683659 C 31.902779 28.473535 32.189662 26.793967 33.180712 25.870726 C 33.258952 27.08085 33.926607 28.405727 35.642687 29.328967 C 35.147162 30.466066 34.286514 31.076344 33.686668 31.076344 Z M 36.002594 27.72764 C 35.966082 27.795449 35.966082 27.863257 35.966082 27.936282 C 34.609909 27.044338 34.401267 25.907239 34.641205 25.010078 C 34.823767 24.446745 35.183675 24.154646 35.355804 24.154646 C 35.538366 24.191158 36.138212 24.869245 36.002594 27.72764 Z M 76.280929 11.964738 C 75.821917 11.32838 73.751145 10.937176 51.614231 11.432701 C 52.32883 8.54301 52.965188 5.940201 53.538953 3.832917 C 53.643274 3.441713 53.4242 3.087022 53.079941 2.982701 C 52.720033 2.87838 52.32883 3.087022 52.214077 3.441713 C 51.614231 5.689831 50.936144 8.402176 50.190249 11.469214 C 48.223799 11.50051 46.090434 11.537022 43.764076 11.604831 C 40.597934 11.683072 38.099446 11.756096 37.139693 11.756096 C 36.74849 11.756096 36.43031 12.074275 36.43031 12.434183 C 36.43031 12.825386 36.74849 13.148781 37.139693 13.148781 C 38.135959 13.101837 40.62923 13.070541 43.811021 12.96622 C 45.480157 12.929707 47.550928 12.893195 49.866854 12.825386 C 48.333336 19.308936 46.585959 27.08085 45.015928 34.680634 C 43.878829 40.230511 42.945156 45.044925 42.345311 48.581406 C 42.021916 50.433104 41.808058 51.893598 41.703737 52.895079 C 41.562903 54.246036 41.484663 55.028444 42.162749 55.278814 C 42.26707 55.278814 42.345311 55.315326 42.449632 55.315326 C 43.05991 55.315326 43.372873 54.46511 43.659755 53.677487 C 43.811021 53.322795 43.623243 52.931592 43.268552 52.785542 C 43.200743 52.785542 43.164231 52.74903 43.096422 52.74903 C 43.451113 49.974092 44.515187 43.73048 46.585959 33.887795 C 48.114262 26.439276 49.799046 18.985541 51.296052 12.788874 C 61.091793 12.575016 73.818954 12.39767 75.279448 12.893195 C 75.535034 13.101837 75.853213 13.101837 76.140096 12.929707 C 76.421763 12.710633 76.500004 12.282917 76.280929 11.964738 Z M 66.579077 25.051807 C 66.266114 24.837949 65.833182 24.905757 65.62454 25.229152 C 62.948707 28.96906 60.773614 31.321498 58.635034 32.860233 C 57.560527 33.611344 56.52775 33.746961 55.854879 33.251437 C 55.421947 32.928042 54.107503 31.50406 55.641021 26.517517 C 59.094046 23.659121 60.982256 20.951992 60.486731 19.52801 C 60.314602 19.100294 59.876453 18.813411 59.417441 18.813411 C 57.988243 18.849924 55.813151 21.311899 54.394385 25.907239 C 52.647009 31.571869 54.07099 33.64264 55.067256 34.357239 C 55.567996 34.748443 56.136546 34.925789 56.77812 34.925789 C 57.59704 34.925789 58.530713 34.602393 59.417441 33.966035 C 61.696855 32.32298 63.944972 29.902733 66.730343 26.01156 C 66.938985 25.688165 66.86596 25.260449 66.579077 25.051807 Z M 59.130558 20.310418 C 58.989725 20.873751 58.379447 22.016066 56.710311 23.732146 C 57.633552 21.661374 58.635034 20.665109 59.130558 20.310418 Z M 84.371022 24.837949 C 84.08414 24.582362 83.66164 24.618875 83.406053 24.905757 C 80.594602 28.15014 76.176608 33.324461 75.46201 34.242486 C 75.242936 34.498072 75.034294 34.784955 74.81522 35.071838 C 74.528337 34.357239 74.173645 33.679153 73.709417 32.964554 C 71.998553 30.330449 70.465034 27.831961 70.532843 26.079368 C 70.611084 24.697115 71.325682 23.47656 72.499293 22.761961 C 73.459047 22.198628 74.528337 22.094307 75.347257 22.48551 C 75.670652 22.626344 76.098368 22.48551 76.244417 22.130819 C 76.416547 21.807424 76.280929 21.379708 75.921022 21.233658 C 74.710899 20.665109 73.135652 20.805942 71.789911 21.58835 C 70.21988 22.553319 69.291423 24.154646 69.187102 26.01156 C 69.082781 28.186652 70.647596 30.789461 72.572318 33.715665 C 73.182596 34.63369 73.5738 35.53085 73.813738 36.386282 C 71.0388 40.162702 68.044787 45.008412 69.578306 46.505419 C 69.828676 46.761005 70.141639 46.865326 70.465034 46.865326 C 71.0388 46.865326 71.68559 46.588875 72.353244 46.046406 C 74.283182 44.445079 76.280929 40.809493 75.310744 36.673165 C 75.701948 36.17764 76.098368 35.635171 76.5313 35.10835 C 77.245899 34.21119 81.658677 29.042085 84.444047 25.802918 C 84.694417 25.516035 84.652689 25.088319 84.371022 24.837949 Z M 72.786176 43.48011 C 71.821207 44.904091 70.856238 45.483073 70.532843 45.514369 C 70.397225 45.008412 70.856238 42.948073 74.173645 38.23798 C 74.319695 40.809493 73.250405 42.765511 72.786176 43.48011 Z M 72.786176 43.48011 " stroke="#ffffff" stroke-width="2.673773" stroke-opacity="1" stroke-miterlimit="4"/></g><g fill="#000000" fill-opacity="1"><g transform="translate(5.991124, 33.456233)"><g><path d="M 9.296875 -5.796875 C 9.046875 -5.90625 8.734375 -5.796875 8.625 -5.53125 C 7.90625 -3.984375 6.296875 1.203125 4.59375 6.65625 C 3.390625 10.4375 2.03125 14.875 1.0625 17.625 C 1.875 12.65625 4.21875 -1.5 5 -5.390625 C 5.046875 -5.609375 4.90625 -5.84375 4.703125 -5.953125 C 4.484375 -6.0625 4.21875 -5.984375 4.078125 -5.796875 C 3.921875 -5.609375 3.734375 -5.34375 3.546875 -5.078125 C 2.90625 -4.1875 2.03125 -2.96875 0.984375 -1.875 C 0.59375 -1.4375 0.375 -1.359375 0.296875 -1.328125 C 0.109375 -1.625 0.1875 -3.078125 1.046875 -4.546875 C 1.609375 -5.546875 2.9375 -7.15625 5.15625 -6.5625 C 5.453125 -6.515625 5.71875 -6.671875 5.796875 -6.9375 C 5.84375 -7.234375 5.6875 -7.5 5.421875 -7.578125 C 2.609375 -8.28125 0.671875 -6.359375 -0.234375 -4.328125 C -0.875 -2.828125 -1.09375 -1.015625 -0.234375 -0.453125 C 0.140625 -0.21875 0.78125 -0.140625 1.734375 -1.171875 C 2.4375 -1.890625 3.046875 -2.671875 3.578125 -3.359375 C 2.34375 3.359375 -0.109375 18.375 -0.21875 19.203125 C -0.34375 20.15625 -0.453125 20.984375 0.1875 21.125 C 0.234375 21.15625 0.265625 21.15625 0.328125 21.15625 C 0.78125 21.15625 1.046875 20.5625 1.390625 19.65625 C 1.6875 18.9375 2.0625 17.890625 2.53125 16.46875 C 3.421875 13.859375 4.515625 10.359375 5.546875 6.96875 C 7.1875 1.765625 8.859375 -3.609375 9.5625 -5.09375 C 9.671875 -5.375 9.5625 -5.65625 9.296875 -5.796875 Z M 9.296875 -5.796875 "/></g></g></g><g fill="#000000" fill-opacity="1"><g transform="translate(17.0953, 33.456233)"><g><path d="M 10.625 -5.765625 C 10.390625 -5.90625 10.0625 -5.828125 9.9375 -5.578125 C 7.390625 -1.515625 5.265625 0.296875 4.8125 0.140625 C 4.8125 0.140625 4.265625 -0.15625 4.78125 -3.234375 C 4.96875 -4.265625 5.046875 -4.859375 4.546875 -5.078125 C 4.0625 -5.265625 3.765625 -4.859375 3.203125 -4.0625 C 2.75 -3.421875 2.140625 -2.5625 1.46875 -1.96875 C 1.390625 -1.921875 1.09375 -1.65625 0.96875 -1.765625 C 0.5625 -2.078125 0.484375 -3.8125 1.421875 -5.421875 C 1.578125 -5.65625 1.46875 -5.984375 1.234375 -6.140625 C 0.984375 -6.28125 0.671875 -6.1875 0.53125 -5.953125 C -0.53125 -4.078125 -0.640625 -1.765625 0.296875 -0.984375 C 0.53125 -0.78125 1.203125 -0.40625 2.140625 -1.171875 C 2.75 -1.703125 3.28125 -2.40625 3.71875 -2.984375 C 3.34375 -0.5 3.546875 0.75 4.4375 1.09375 C 4.5625 1.140625 4.703125 1.140625 4.8125 1.140625 C 6.84375 1.140625 10.125 -3.984375 10.78125 -5.046875 C 10.953125 -5.28125 10.875 -5.609375 10.625 -5.765625 Z M 10.625 -5.765625 "/></g></g></g><g fill="#000000" fill-opacity="1"><g transform="translate(29.347194, 33.456233)"><g><path d="M 9.671875 -5.796875 C 9.421875 -5.984375 9.109375 -5.921875 8.953125 -5.71875 C 7.828125 -4.265625 5.984375 -3.078125 4.5625 -3.34375 C 4.59375 -3.53125 4.625 -3.71875 4.625 -3.90625 C 4.8125 -6.921875 3.875 -7.53125 3.3125 -7.640625 C 2.671875 -7.765625 2 -7.296875 1.6875 -6.484375 C 1.546875 -6.546875 1.390625 -6.546875 1.25 -6.4375 C 0.1875 -5.765625 -0.6875 -4.0625 -0.21875 -2.21875 C 0.109375 -1.125 0.859375 -0.421875 1.84375 -0.421875 C 2.78125 -0.421875 3.765625 -1.125 4.265625 -2.34375 C 6.140625 -1.953125 8.390625 -3.34375 9.75 -5.078125 C 9.9375 -5.3125 9.875 -5.640625 9.671875 -5.796875 Z M 1.875 -1.4375 C 1.84375 -1.4375 1.84375 -1.4375 1.84375 -1.4375 C 1.171875 -1.46875 0.875 -2.109375 0.796875 -2.484375 C 0.53125 -3.390625 0.75 -4.640625 1.5 -5.34375 C 1.546875 -4.4375 2.0625 -3.4375 3.34375 -2.75 C 2.96875 -1.890625 2.328125 -1.4375 1.875 -1.4375 Z M 3.609375 -3.953125 C 3.578125 -3.90625 3.578125 -3.84375 3.578125 -3.796875 C 2.5625 -4.453125 2.40625 -5.3125 2.59375 -5.984375 C 2.71875 -6.40625 2.984375 -6.625 3.125 -6.625 C 3.25 -6.59375 3.71875 -6.09375 3.609375 -3.953125 Z M 3.609375 -3.953125 "/></g></g></g><g fill="#000000" fill-opacity="1"><g transform="translate(40.584829, 33.456233)"><g><path d="M 22.53125 -15.75 C 22.1875 -16.234375 20.640625 -16.53125 4.0625 -16.15625 C 4.59375 -18.3125 5.078125 -20.265625 5.5 -21.84375 C 5.578125 -22.140625 5.421875 -22.40625 5.15625 -22.484375 C 4.890625 -22.5625 4.59375 -22.40625 4.515625 -22.140625 C 4.0625 -20.453125 3.546875 -18.421875 2.984375 -16.125 C 1.515625 -16.109375 -0.078125 -16.078125 -1.8125 -16.015625 C -4.1875 -15.96875 -6.0625 -15.921875 -6.78125 -15.921875 C -7.078125 -15.921875 -7.3125 -15.671875 -7.3125 -15.40625 C -7.3125 -15.109375 -7.078125 -14.875 -6.78125 -14.875 C -6.03125 -14.90625 -4.171875 -14.921875 -1.796875 -15 C -0.53125 -15.03125 1.015625 -15.0625 2.75 -15.109375 C 1.609375 -10.25 0.296875 -4.4375 -0.875 1.25 C -1.734375 5.421875 -2.4375 9.03125 -2.890625 11.671875 C -3.125 13.0625 -3.28125 14.15625 -3.359375 14.90625 C -3.46875 15.921875 -3.53125 16.5 -3.015625 16.6875 C -2.9375 16.6875 -2.890625 16.71875 -2.796875 16.71875 C -2.34375 16.71875 -2.109375 16.078125 -1.890625 15.484375 C -1.796875 15.21875 -1.921875 14.921875 -2.1875 14.8125 C -2.25 14.8125 -2.265625 14.796875 -2.328125 14.796875 C -2.0625 12.703125 -1.25 8.03125 0.296875 0.671875 C 1.4375 -4.90625 2.703125 -10.5 3.8125 -15.140625 C 11.15625 -15.296875 20.6875 -15.4375 21.796875 -15.0625 C 21.984375 -14.90625 22.21875 -14.90625 22.4375 -15.03125 C 22.640625 -15.1875 22.703125 -15.515625 22.53125 -15.75 Z M 22.53125 -15.75 "/></g></g></g><g fill="#000000" fill-opacity="1"><g transform="translate(46.83125, 33.456233)"><g><path d="M 9.03125 -5.953125 C 8.78125 -6.109375 8.46875 -6.0625 8.296875 -5.828125 C 6.296875 -3.015625 4.671875 -1.25 3.078125 -0.109375 C 2.265625 0.453125 1.5 0.5625 0.984375 0.1875 C 0.671875 -0.046875 -0.328125 -1.125 0.828125 -4.859375 C 3.421875 -7 4.828125 -9.03125 4.453125 -10.09375 C 4.328125 -10.421875 4 -10.625 3.65625 -10.625 C 2.59375 -10.59375 0.96875 -8.765625 -0.109375 -5.3125 C -1.421875 -1.0625 -0.34375 0.484375 0.40625 1.015625 C 0.78125 1.3125 1.203125 1.4375 1.6875 1.4375 C 2.296875 1.4375 2.984375 1.203125 3.65625 0.71875 C 5.375 -0.5 7.046875 -2.328125 9.125 -5.234375 C 9.296875 -5.46875 9.234375 -5.796875 9.03125 -5.953125 Z M 3.4375 -9.5 C 3.34375 -9.078125 2.890625 -8.21875 1.625 -6.9375 C 2.328125 -8.484375 3.078125 -9.234375 3.4375 -9.5 Z M 3.4375 -9.5 "/></g></g></g><g fill="#000000" fill-opacity="1"><g transform="translate(57.294842, 33.456233)"><g><path d="M 11.890625 -6.109375 C 11.671875 -6.296875 11.34375 -6.28125 11.15625 -6.0625 C 9.046875 -3.625 5.734375 0.234375 5.203125 0.9375 C 5.046875 1.125 4.890625 1.328125 4.71875 1.546875 C 4.515625 1.015625 4.25 0.5 3.90625 -0.03125 C 2.609375 -2 1.46875 -3.875 1.515625 -5.1875 C 1.578125 -6.21875 2.109375 -7.125 2.984375 -7.65625 C 3.71875 -8.09375 4.515625 -8.171875 5.125 -7.875 C 5.375 -7.765625 5.6875 -7.875 5.796875 -8.140625 C 5.921875 -8.390625 5.828125 -8.703125 5.546875 -8.8125 C 4.640625 -9.234375 3.46875 -9.125 2.453125 -8.546875 C 1.28125 -7.828125 0.59375 -6.625 0.5 -5.234375 C 0.421875 -3.609375 1.609375 -1.65625 3.046875 0.53125 C 3.5 1.234375 3.796875 1.890625 3.984375 2.53125 C 1.890625 5.375 -0.34375 9 0.796875 10.125 C 0.984375 10.3125 1.234375 10.390625 1.46875 10.390625 C 1.890625 10.390625 2.375 10.171875 2.890625 9.765625 C 4.328125 8.578125 5.828125 5.84375 5.09375 2.75 C 5.390625 2.375 5.6875 1.96875 6.015625 1.578125 C 6.546875 0.90625 9.859375 -2.96875 11.9375 -5.390625 C 12.125 -5.609375 12.09375 -5.921875 11.890625 -6.109375 Z M 3.203125 7.84375 C 2.484375 8.921875 1.765625 9.34375 1.515625 9.375 C 1.421875 9 1.765625 7.453125 4.25 3.921875 C 4.359375 5.84375 3.546875 7.3125 3.203125 7.84375 Z M 3.203125 7.84375 "/></g></g></g></svg>