<svg xmlns="http://www.w3.org/2000/svg" xmlns:xlink="http://www.w3.org/1999/xlink" width="450" zoomAndPan="magnify" viewBox="0 0 337.5 60" height="80" preserveAspectRatio="xMidYMid meet" version="1.0"><defs><g/><clipPath id="4e87ceb921"><path d="M 0 0.0429688 L 337 0.0429688 L 337 59.953125 L 0 59.953125 Z M 0 0.0429688 " clip-rule="nonzero"/></clipPath></defs><g clip-path="url(#4e87ceb921)"><path fill="#ffffff" d="M 0 0.0429688 L 337 0.0429688 L 337 59.957031 L 0 59.957031 Z M 0 0.0429688 " fill-opacity="1" fill-rule="nonzero"/><path fill="#ffffff" d="M 0 0.0429688 L 337 0.0429688 L 337 59.957031 L 0 59.957031 Z M 0 0.0429688 " fill-opacity="1" fill-rule="nonzero"/></g><g fill="#fffff3" fill-opacity="0.4"><g transform="translate(120.896152, 32.27682)"><g><path d="M 11.890625 -6.109375 C 11.671875 -6.296875 11.34375 -6.28125 11.15625 -6.0625 C 9.046875 -3.625 5.734375 0.234375 5.203125 0.9375 C 5.046875 1.125 4.890625 1.328125 4.71875 1.546875 C 4.515625 1.015625 4.25 0.5 3.90625 -0.03125 C 2.609375 -2 1.46875 -3.875 1.515625 -5.1875 C 1.578125 -6.21875 2.109375 -7.125 2.984375 -7.65625 C 3.71875 -8.09375 4.515625 -8.171875 5.125 -7.875 C 5.375 -7.765625 5.6875 -7.875 5.796875 -8.140625 C 5.921875 -8.390625 5.828125 -8.703125 5.546875 -8.8125 C 4.640625 -9.234375 3.46875 -9.125 2.453125 -8.546875 C 1.28125 -7.828125 0.59375 -6.625 0.5 -5.234375 C 0.421875 -3.609375 1.609375 -1.65625 3.046875 0.53125 C 3.5 1.234375 3.796875 1.890625 3.984375 2.53125 C 1.890625 5.375 -0.34375 9 0.796875 10.125 C 0.984375 10.3125 1.234375 10.390625 1.46875 10.390625 C 1.890625 10.390625 2.375 10.171875 2.890625 9.765625 C 4.328125 8.578125 5.828125 5.84375 5.09375 2.75 C 5.390625 2.375 5.6875 1.96875 6.015625 1.578125 C 6.546875 0.90625 9.859375 -2.96875 11.9375 -5.390625 C 12.125 -5.609375 12.09375 -5.921875 11.890625 -6.109375 Z M 3.203125 7.84375 C 2.484375 8.921875 1.765625 9.34375 1.515625 9.375 C 1.421875 9 1.765625 7.453125 4.25 3.921875 C 4.359375 5.84375 3.546875 7.3125 3.203125 7.84375 Z M 3.203125 7.84375 "/></g></g></g><g fill="#fffff3" fill-opacity="0.4"><g transform="translate(134.349134, 32.27682)"><g><path d="M 10.625 -5.765625 C 10.390625 -5.90625 10.0625 -5.828125 9.9375 -5.578125 C 7.390625 -1.515625 5.265625 0.296875 4.8125 0.140625 C 4.8125 0.140625 4.265625 -0.15625 4.78125 -3.234375 C 4.96875 -4.265625 5.046875 -4.859375 4.546875 -5.078125 C 4.0625 -5.265625 3.765625 -4.859375 3.203125 -4.0625 C 2.75 -3.421875 2.140625 -2.5625 1.46875 -1.96875 C 1.390625 -1.921875 1.09375 -1.65625 0.96875 -1.765625 C 0.5625 -2.078125 0.484375 -3.8125 1.421875 -5.421875 C 1.578125 -5.65625 1.46875 -5.984375 1.234375 -6.140625 C 0.984375 -6.28125 0.671875 -6.1875 0.53125 -5.953125 C -0.53125 -4.078125 -0.640625 -1.765625 0.296875 -0.984375 C 0.53125 -0.78125 1.203125 -0.40625 2.140625 -1.171875 C 2.75 -1.703125 3.28125 -2.40625 3.71875 -2.984375 C 3.34375 -0.5 3.546875 0.75 4.4375 1.09375 C 4.5625 1.140625 4.703125 1.140625 4.8125 1.140625 C 6.84375 1.140625 10.125 -3.984375 10.78125 -5.046875 C 10.953125 -5.28125 10.875 -5.609375 10.625 -5.765625 Z M 10.625 -5.765625 "/></g></g></g><g fill="#fffff3" fill-opacity="0.4"><g transform="translate(146.60103, 32.27682)"><g><path d="M 15.0625 -5.953125 C 14.84375 -6.140625 14.5 -6.109375 14.3125 -5.90625 C 12.171875 -3.390625 10.734375 -2.75 10.09375 -2.984375 C 9.53125 -3.203125 9.21875 -4.265625 9.234375 -5.953125 C 9.234375 -6.25 9.265625 -6.96875 8.671875 -7.109375 C 8.015625 -7.265625 7.53125 -6.484375 6.109375 -3.53125 C 5.875 -3.015625 5.65625 -2.5625 5.53125 -2.296875 C 5.375 -2 5.265625 -1.84375 5.1875 -1.765625 C 5.046875 -2.03125 4.859375 -2.71875 4.890625 -3.765625 C 4.890625 -4.296875 4.890625 -4.75 4.90625 -5.125 C 4.9375 -6.296875 4.96875 -6.734375 4.484375 -6.921875 C 4.0625 -7.046875 3.765625 -6.65625 3.6875 -6.515625 C 2.515625 -4.90625 1.46875 -3.28125 0.375 -1.3125 C 0.796875 -3.15625 1.578125 -5.796875 2.5625 -8.015625 C 2.671875 -8.28125 2.5625 -8.59375 2.296875 -8.703125 C 2.03125 -8.8125 1.734375 -8.703125 1.609375 -8.4375 C 0.859375 -6.703125 0.109375 -4.484375 -0.453125 -2.296875 C -1.328125 1.234375 -0.984375 1.390625 -0.671875 1.546875 C -0.59375 1.578125 -0.5 1.609375 -0.421875 1.609375 C -0.15625 1.609375 0.078125 1.421875 0.296875 1.015625 C 1.578125 -1.4375 2.640625 -3.25 3.875 -5.046875 C 3.875 -4.671875 3.84375 -4.25 3.84375 -3.765625 C 3.84375 -2.9375 3.953125 -0.96875 4.9375 -0.6875 C 5.734375 -0.5 6.25 -1.5 6.4375 -1.8125 C 6.59375 -2.109375 6.8125 -2.5625 7.046875 -3.078125 C 7.34375 -3.6875 7.828125 -4.703125 8.21875 -5.390625 C 8.28125 -3.53125 8.78125 -2.375 9.75 -2.03125 C 11.0625 -1.515625 12.84375 -2.609375 15.109375 -5.234375 C 15.296875 -5.453125 15.28125 -5.765625 15.0625 -5.953125 Z M 15.0625 -5.953125 "/></g></g></g><g fill="#fffff3" fill-opacity="0.4"><g transform="translate(163.203557, 32.27682)"><g><path d="M 15.0625 -5.953125 C 14.84375 -6.140625 14.5 -6.109375 14.3125 -5.90625 C 12.171875 -3.390625 10.734375 -2.75 10.09375 -2.984375 C 9.53125 -3.203125 9.21875 -4.265625 9.234375 -5.953125 C 9.234375 -6.25 9.265625 -6.96875 8.671875 -7.109375 C 8.015625 -7.265625 7.53125 -6.484375 6.109375 -3.53125 C 5.875 -3.015625 5.65625 -2.5625 5.53125 -2.296875 C 5.375 -2 5.265625 -1.84375 5.1875 -1.765625 C 5.046875 -2.03125 4.859375 -2.71875 4.890625 -3.765625 C 4.890625 -4.296875 4.890625 -4.75 4.90625 -5.125 C 4.9375 -6.296875 4.96875 -6.734375 4.484375 -6.921875 C 4.0625 -7.046875 3.765625 -6.65625 3.6875 -6.515625 C 2.515625 -4.90625 1.46875 -3.28125 0.375 -1.3125 C 0.796875 -3.15625 1.578125 -5.796875 2.5625 -8.015625 C 2.671875 -8.28125 2.5625 -8.59375 2.296875 -8.703125 C 2.03125 -8.8125 1.734375 -8.703125 1.609375 -8.4375 C 0.859375 -6.703125 0.109375 -4.484375 -0.453125 -2.296875 C -1.328125 1.234375 -0.984375 1.390625 -0.671875 1.546875 C -0.59375 1.578125 -0.5 1.609375 -0.421875 1.609375 C -0.15625 1.609375 0.078125 1.421875 0.296875 1.015625 C 1.578125 -1.4375 2.640625 -3.25 3.875 -5.046875 C 3.875 -4.671875 3.84375 -4.25 3.84375 -3.765625 C 3.84375 -2.9375 3.953125 -0.96875 4.9375 -0.6875 C 5.734375 -0.5 6.25 -1.5 6.4375 -1.8125 C 6.59375 -2.109375 6.8125 -2.5625 7.046875 -3.078125 C 7.34375 -3.6875 7.828125 -4.703125 8.21875 -5.390625 C 8.28125 -3.53125 8.78125 -2.375 9.75 -2.03125 C 11.0625 -1.515625 12.84375 -2.609375 15.109375 -5.234375 C 15.296875 -5.453125 15.28125 -5.765625 15.0625 -5.953125 Z M 15.0625 -5.953125 "/></g></g></g><g fill="#fffff3" fill-opacity="0.4"><g transform="translate(179.806081, 32.27682)"><g><path d="M 11.15625 -5.921875 C 10.921875 -6.03125 10.59375 -5.921875 10.5 -5.6875 C 8.46875 -1.546875 6.9375 -0.234375 6.21875 -0.375 C 5.921875 -0.421875 4.96875 -0.984375 4.71875 -5.65625 C 4.71875 -5.875 4.5625 -6.0625 4.375 -6.109375 C 4.171875 -6.171875 3.921875 -6.109375 3.8125 -5.921875 C 3.65625 -5.734375 3.5 -5.53125 3.34375 -5.28125 C 2.671875 -4.375 1.796875 -3.15625 0.71875 -2 C 0.5625 -1.8125 0.421875 -1.703125 0.34375 -1.65625 C 0.15625 -2.59375 1.140625 -6.171875 2.71875 -7.296875 C 3.171875 -7.609375 3.796875 -7.84375 4.625 -6.890625 C 4.8125 -6.671875 5.125 -6.65625 5.34375 -6.84375 C 5.546875 -7 5.578125 -7.34375 5.421875 -7.5625 C 4.40625 -8.734375 3.4375 -8.703125 2.796875 -8.484375 C 0.75 -7.765625 -0.640625 -3.8125 -0.6875 -2 C -0.71875 -1.25 -0.5 -0.78125 -0.078125 -0.609375 C 0.59375 -0.34375 1.25 -1.0625 1.46875 -1.3125 C 2.375 -2.296875 3.203125 -3.359375 3.796875 -4.1875 C 4.078125 -1.140625 4.8125 0.375 6.015625 0.640625 C 6.109375 0.640625 6.21875 0.671875 6.328125 0.671875 C 8.140625 0.671875 10.09375 -2.515625 11.40625 -5.234375 C 11.53125 -5.5 11.421875 -5.796875 11.15625 -5.921875 Z M 11.15625 -5.921875 "/></g></g></g><g fill="#fffff3" fill-opacity="0.4"><g transform="translate(192.431644, 32.27682)"><g><path d="M 11.71875 -6.03125 C 11.453125 -6.171875 11.140625 -6.0625 11.03125 -5.796875 C 7.953125 0.671875 5.046875 3.984375 4.40625 3.875 C 4.359375 3.84375 3.421875 2.9375 6.4375 -6.328125 C 6.515625 -6.5625 6.703125 -7.125 6.28125 -7.421875 C 5.875 -7.75 5.421875 -7.453125 4.671875 -6.9375 C 3.875 -6.4375 2.78125 -5.71875 1.921875 -5.828125 C 4.640625 -10.515625 4.375 -11.5625 3.765625 -11.96875 C 2.796875 -12.53125 1.421875 -10.890625 0.78125 -9.953125 C -0.53125 -7.9375 -0.5 -6.09375 0.875 -5.15625 C 2.296875 -4.171875 4.140625 -5.375 5.234375 -6.09375 C 5.265625 -6.109375 5.265625 -6.109375 5.28125 -6.140625 C 4.25 -2.859375 3.578125 -0.265625 3.34375 1.515625 C 3.046875 3.5 3.25 4.546875 4 4.828125 C 4.140625 4.859375 4.25 4.890625 4.375 4.890625 C 6.515625 4.890625 10.234375 -1.6875 11.96875 -5.34375 C 12.0625 -5.609375 11.96875 -5.921875 11.71875 -6.03125 Z M 0.9375 -7.875 C 1.3125 -9.3125 2.5625 -10.65625 3.125 -10.96875 C 3.078125 -10.546875 2.78125 -9.34375 1.0625 -6.375 C 0.875 -6.671875 0.75 -7.125 0.9375 -7.875 Z M 0.9375 -7.875 "/></g></g></g><g fill="#fffff3" fill-opacity="0.4"><g transform="translate(205.777861, 32.27682)"><g><path d="M 13.0625 -5.875 C 12.890625 -6.109375 12.578125 -6.171875 12.34375 -6.015625 C 10.046875 -4.515625 7.6875 -2.859375 5.453125 -0.78125 C 5.765625 -2.75 6.09375 -4.859375 6.375 -7.078125 C 6.4375 -7.3125 6.28125 -7.5625 6.03125 -7.640625 C 5.828125 -7.71875 5.546875 -7.609375 5.453125 -7.390625 C 4.90625 -6.484375 3.734375 -4.625 2.703125 -3.359375 C 2.328125 -2.90625 1.953125 -2.671875 1.765625 -2.796875 C 1.3125 -3.078125 0.984375 -4.90625 2.03125 -7.453125 C 2.140625 -7.71875 2 -8.015625 1.765625 -8.125 C 1.5 -8.21875 1.203125 -8.09375 1.09375 -7.828125 C 0 -5.15625 0.046875 -2.609375 1.25 -1.921875 C 1.546875 -1.703125 2.40625 -1.421875 3.46875 -2.703125 C 4.03125 -3.359375 4.5625 -4.109375 5.046875 -4.828125 C 4.78125 -2.984375 4.515625 -1.234375 4.21875 0.453125 C 1.96875 2.75 -0.140625 5.53125 -1.953125 9.046875 C -5 14.90625 -5.546875 21.390625 -4.03125 23.265625 C -3.734375 23.625 -3.359375 23.8125 -2.96875 23.8125 C -2.828125 23.8125 -2.71875 23.796875 -2.59375 23.765625 C -0.859375 23.265625 0.6875 19.40625 1.703125 16.265625 C 2.96875 12.34375 4.109375 7.203125 5.1875 0.9375 C 7.65625 -1.546875 10.3125 -3.46875 12.890625 -5.15625 C 13.140625 -5.3125 13.21875 -5.640625 13.0625 -5.875 Z M 0.71875 15.9375 C -1.203125 22.03125 -2.59375 22.703125 -2.859375 22.78125 C -2.96875 22.796875 -3.078125 22.796875 -3.234375 22.625 C -4.1875 21.4375 -4.265625 15.75 -1.046875 9.5 C 0.453125 6.65625 2.109375 4.296875 3.90625 2.296875 C 2.9375 7.828125 1.875 12.390625 0.71875 15.9375 Z M 0.71875 15.9375 "/></g></g></g><g fill="#000000" fill-opacity="1"><g transform="translate(120.141013, 31.521682)"><g><path d="M 11.890625 -6.109375 C 11.671875 -6.296875 11.34375 -6.28125 11.15625 -6.0625 C 9.046875 -3.625 5.734375 0.234375 5.203125 0.9375 C 5.046875 1.125 4.890625 1.328125 4.71875 1.546875 C 4.515625 1.015625 4.25 0.5 3.90625 -0.03125 C 2.609375 -2 1.46875 -3.875 1.515625 -5.1875 C 1.578125 -6.21875 2.109375 -7.125 2.984375 -7.65625 C 3.71875 -8.09375 4.515625 -8.171875 5.125 -7.875 C 5.375 -7.765625 5.6875 -7.875 5.796875 -8.140625 C 5.921875 -8.390625 5.828125 -8.703125 5.546875 -8.8125 C 4.640625 -9.234375 3.46875 -9.125 2.453125 -8.546875 C 1.28125 -7.828125 0.59375 -6.625 0.5 -5.234375 C 0.421875 -3.609375 1.609375 -1.65625 3.046875 0.53125 C 3.5 1.234375 3.796875 1.890625 3.984375 2.53125 C 1.890625 5.375 -0.34375 9 0.796875 10.125 C 0.984375 10.3125 1.234375 10.390625 1.46875 10.390625 C 1.890625 10.390625 2.375 10.171875 2.890625 9.765625 C 4.328125 8.578125 5.828125 5.84375 5.09375 2.75 C 5.390625 2.375 5.6875 1.96875 6.015625 1.578125 C 6.546875 0.90625 9.859375 -2.96875 11.9375 -5.390625 C 12.125 -5.609375 12.09375 -5.921875 11.890625 -6.109375 Z M 3.203125 7.84375 C 2.484375 8.921875 1.765625 9.34375 1.515625 9.375 C 1.421875 9 1.765625 7.453125 4.25 3.921875 C 4.359375 5.84375 3.546875 7.3125 3.203125 7.84375 Z M 3.203125 7.84375 "/></g></g></g><g fill="#000000" fill-opacity="1"><g transform="translate(133.593995, 31.521682)"><g><path d="M 10.625 -5.765625 C 10.390625 -5.90625 10.0625 -5.828125 9.9375 -5.578125 C 7.390625 -1.515625 5.265625 0.296875 4.8125 0.140625 C 4.8125 0.140625 4.265625 -0.15625 4.78125 -3.234375 C 4.96875 -4.265625 5.046875 -4.859375 4.546875 -5.078125 C 4.0625 -5.265625 3.765625 -4.859375 3.203125 -4.0625 C 2.75 -3.421875 2.140625 -2.5625 1.46875 -1.96875 C 1.390625 -1.921875 1.09375 -1.65625 0.96875 -1.765625 C 0.5625 -2.078125 0.484375 -3.8125 1.421875 -5.421875 C 1.578125 -5.65625 1.46875 -5.984375 1.234375 -6.140625 C 0.984375 -6.28125 0.671875 -6.1875 0.53125 -5.953125 C -0.53125 -4.078125 -0.640625 -1.765625 0.296875 -0.984375 C 0.53125 -0.78125 1.203125 -0.40625 2.140625 -1.171875 C 2.75 -1.703125 3.28125 -2.40625 3.71875 -2.984375 C 3.34375 -0.5 3.546875 0.75 4.4375 1.09375 C 4.5625 1.140625 4.703125 1.140625 4.8125 1.140625 C 6.84375 1.140625 10.125 -3.984375 10.78125 -5.046875 C 10.953125 -5.28125 10.875 -5.609375 10.625 -5.765625 Z M 10.625 -5.765625 "/></g></g></g><g fill="#000000" fill-opacity="1"><g transform="translate(145.845892, 31.521682)"><g><path d="M 15.0625 -5.953125 C 14.84375 -6.140625 14.5 -6.109375 14.3125 -5.90625 C 12.171875 -3.390625 10.734375 -2.75 10.09375 -2.984375 C 9.53125 -3.203125 9.21875 -4.265625 9.234375 -5.953125 C 9.234375 -6.25 9.265625 -6.96875 8.671875 -7.109375 C 8.015625 -7.265625 7.53125 -6.484375 6.109375 -3.53125 C 5.875 -3.015625 5.65625 -2.5625 5.53125 -2.296875 C 5.375 -2 5.265625 -1.84375 5.1875 -1.765625 C 5.046875 -2.03125 4.859375 -2.71875 4.890625 -3.765625 C 4.890625 -4.296875 4.890625 -4.75 4.90625 -5.125 C 4.9375 -6.296875 4.96875 -6.734375 4.484375 -6.921875 C 4.0625 -7.046875 3.765625 -6.65625 3.6875 -6.515625 C 2.515625 -4.90625 1.46875 -3.28125 0.375 -1.3125 C 0.796875 -3.15625 1.578125 -5.796875 2.5625 -8.015625 C 2.671875 -8.28125 2.5625 -8.59375 2.296875 -8.703125 C 2.03125 -8.8125 1.734375 -8.703125 1.609375 -8.4375 C 0.859375 -6.703125 0.109375 -4.484375 -0.453125 -2.296875 C -1.328125 1.234375 -0.984375 1.390625 -0.671875 1.546875 C -0.59375 1.578125 -0.5 1.609375 -0.421875 1.609375 C -0.15625 1.609375 0.078125 1.421875 0.296875 1.015625 C 1.578125 -1.4375 2.640625 -3.25 3.875 -5.046875 C 3.875 -4.671875 3.84375 -4.25 3.84375 -3.765625 C 3.84375 -2.9375 3.953125 -0.96875 4.9375 -0.6875 C 5.734375 -0.5 6.25 -1.5 6.4375 -1.8125 C 6.59375 -2.109375 6.8125 -2.5625 7.046875 -3.078125 C 7.34375 -3.6875 7.828125 -4.703125 8.21875 -5.390625 C 8.28125 -3.53125 8.78125 -2.375 9.75 -2.03125 C 11.0625 -1.515625 12.84375 -2.609375 15.109375 -5.234375 C 15.296875 -5.453125 15.28125 -5.765625 15.0625 -5.953125 Z M 15.0625 -5.953125 "/></g></g></g><g fill="#000000" fill-opacity="1"><g transform="translate(162.448418, 31.521682)"><g><path d="M 15.0625 -5.953125 C 14.84375 -6.140625 14.5 -6.109375 14.3125 -5.90625 C 12.171875 -3.390625 10.734375 -2.75 10.09375 -2.984375 C 9.53125 -3.203125 9.21875 -4.265625 9.234375 -5.953125 C 9.234375 -6.25 9.265625 -6.96875 8.671875 -7.109375 C 8.015625 -7.265625 7.53125 -6.484375 6.109375 -3.53125 C 5.875 -3.015625 5.65625 -2.5625 5.53125 -2.296875 C 5.375 -2 5.265625 -1.84375 5.1875 -1.765625 C 5.046875 -2.03125 4.859375 -2.71875 4.890625 -3.765625 C 4.890625 -4.296875 4.890625 -4.75 4.90625 -5.125 C 4.9375 -6.296875 4.96875 -6.734375 4.484375 -6.921875 C 4.0625 -7.046875 3.765625 -6.65625 3.6875 -6.515625 C 2.515625 -4.90625 1.46875 -3.28125 0.375 -1.3125 C 0.796875 -3.15625 1.578125 -5.796875 2.5625 -8.015625 C 2.671875 -8.28125 2.5625 -8.59375 2.296875 -8.703125 C 2.03125 -8.8125 1.734375 -8.703125 1.609375 -8.4375 C 0.859375 -6.703125 0.109375 -4.484375 -0.453125 -2.296875 C -1.328125 1.234375 -0.984375 1.390625 -0.671875 1.546875 C -0.59375 1.578125 -0.5 1.609375 -0.421875 1.609375 C -0.15625 1.609375 0.078125 1.421875 0.296875 1.015625 C 1.578125 -1.4375 2.640625 -3.25 3.875 -5.046875 C 3.875 -4.671875 3.84375 -4.25 3.84375 -3.765625 C 3.84375 -2.9375 3.953125 -0.96875 4.9375 -0.6875 C 5.734375 -0.5 6.25 -1.5 6.4375 -1.8125 C 6.59375 -2.109375 6.8125 -2.5625 7.046875 -3.078125 C 7.34375 -3.6875 7.828125 -4.703125 8.21875 -5.390625 C 8.28125 -3.53125 8.78125 -2.375 9.75 -2.03125 C 11.0625 -1.515625 12.84375 -2.609375 15.109375 -5.234375 C 15.296875 -5.453125 15.28125 -5.765625 15.0625 -5.953125 Z M 15.0625 -5.953125 "/></g></g></g><g fill="#000000" fill-opacity="1"><g transform="translate(179.050942, 31.521682)"><g><path d="M 11.15625 -5.921875 C 10.921875 -6.03125 10.59375 -5.921875 10.5 -5.6875 C 8.46875 -1.546875 6.9375 -0.234375 6.21875 -0.375 C 5.921875 -0.421875 4.96875 -0.984375 4.71875 -5.65625 C 4.71875 -5.875 4.5625 -6.0625 4.375 -6.109375 C 4.171875 -6.171875 3.921875 -6.109375 3.8125 -5.921875 C 3.65625 -5.734375 3.5 -5.53125 3.34375 -5.28125 C 2.671875 -4.375 1.796875 -3.15625 0.71875 -2 C 0.5625 -1.8125 0.421875 -1.703125 0.34375 -1.65625 C 0.15625 -2.59375 1.140625 -6.171875 2.71875 -7.296875 C 3.171875 -7.609375 3.796875 -7.84375 4.625 -6.890625 C 4.8125 -6.671875 5.125 -6.65625 5.34375 -6.84375 C 5.546875 -7 5.578125 -7.34375 5.421875 -7.5625 C 4.40625 -8.734375 3.4375 -8.703125 2.796875 -8.484375 C 0.75 -7.765625 -0.640625 -3.8125 -0.6875 -2 C -0.71875 -1.25 -0.5 -0.78125 -0.078125 -0.609375 C 0.59375 -0.34375 1.25 -1.0625 1.46875 -1.3125 C 2.375 -2.296875 3.203125 -3.359375 3.796875 -4.1875 C 4.078125 -1.140625 4.8125 0.375 6.015625 0.640625 C 6.109375 0.640625 6.21875 0.671875 6.328125 0.671875 C 8.140625 0.671875 10.09375 -2.515625 11.40625 -5.234375 C 11.53125 -5.5 11.421875 -5.796875 11.15625 -5.921875 Z M 11.15625 -5.921875 "/></g></g></g><g fill="#000000" fill-opacity="1"><g transform="translate(191.676505, 31.521682)"><g><path d="M 11.71875 -6.03125 C 11.453125 -6.171875 11.140625 -6.0625 11.03125 -5.796875 C 7.953125 0.671875 5.046875 3.984375 4.40625 3.875 C 4.359375 3.84375 3.421875 2.9375 6.4375 -6.328125 C 6.515625 -6.5625 6.703125 -7.125 6.28125 -7.421875 C 5.875 -7.75 5.421875 -7.453125 4.671875 -6.9375 C 3.875 -6.4375 2.78125 -5.71875 1.921875 -5.828125 C 4.640625 -10.515625 4.375 -11.5625 3.765625 -11.96875 C 2.796875 -12.53125 1.421875 -10.890625 0.78125 -9.953125 C -0.53125 -7.9375 -0.5 -6.09375 0.875 -5.15625 C 2.296875 -4.171875 4.140625 -5.375 5.234375 -6.09375 C 5.265625 -6.109375 5.265625 -6.109375 5.28125 -6.140625 C 4.25 -2.859375 3.578125 -0.265625 3.34375 1.515625 C 3.046875 3.5 3.25 4.546875 4 4.828125 C 4.140625 4.859375 4.25 4.890625 4.375 4.890625 C 6.515625 4.890625 10.234375 -1.6875 11.96875 -5.34375 C 12.0625 -5.609375 11.96875 -5.921875 11.71875 -6.03125 Z M 0.9375 -7.875 C 1.3125 -9.3125 2.5625 -10.65625 3.125 -10.96875 C 3.078125 -10.546875 2.78125 -9.34375 1.0625 -6.375 C 0.875 -6.671875 0.75 -7.125 0.9375 -7.875 Z M 0.9375 -7.875 "/></g></g></g><g fill="#000000" fill-opacity="1"><g transform="translate(205.022722, 31.521682)"><g><path d="M 13.0625 -5.875 C 12.890625 -6.109375 12.578125 -6.171875 12.34375 -6.015625 C 10.046875 -4.515625 7.6875 -2.859375 5.453125 -0.78125 C 5.765625 -2.75 6.09375 -4.859375 6.375 -7.078125 C 6.4375 -7.3125 6.28125 -7.5625 6.03125 -7.640625 C 5.828125 -7.71875 5.546875 -7.609375 5.453125 -7.390625 C 4.90625 -6.484375 3.734375 -4.625 2.703125 -3.359375 C 2.328125 -2.90625 1.953125 -2.671875 1.765625 -2.796875 C 1.3125 -3.078125 0.984375 -4.90625 2.03125 -7.453125 C 2.140625 -7.71875 2 -8.015625 1.765625 -8.125 C 1.5 -8.21875 1.203125 -8.09375 1.09375 -7.828125 C 0 -5.15625 0.046875 -2.609375 1.25 -1.921875 C 1.546875 -1.703125 2.40625 -1.421875 3.46875 -2.703125 C 4.03125 -3.359375 4.5625 -4.109375 5.046875 -4.828125 C 4.78125 -2.984375 4.515625 -1.234375 4.21875 0.453125 C 1.96875 2.75 -0.140625 5.53125 -1.953125 9.046875 C -5 14.90625 -5.546875 21.390625 -4.03125 23.265625 C -3.734375 23.625 -3.359375 23.8125 -2.96875 23.8125 C -2.828125 23.8125 -2.71875 23.796875 -2.59375 23.765625 C -0.859375 23.265625 0.6875 19.40625 1.703125 16.265625 C 2.96875 12.34375 4.109375 7.203125 5.1875 0.9375 C 7.65625 -1.546875 10.3125 -3.46875 12.890625 -5.15625 C 13.140625 -5.3125 13.21875 -5.640625 13.0625 -5.875 Z M 0.71875 15.9375 C -1.203125 22.03125 -2.59375 22.703125 -2.859375 22.78125 C -2.96875 22.796875 -3.078125 22.796875 -3.234375 22.625 C -4.1875 21.4375 -4.265625 15.75 -1.046875 9.5 C 0.453125 6.65625 2.109375 4.296875 3.90625 2.296875 C 2.9375 7.828125 1.875 12.390625 0.71875 15.9375 Z M 0.71875 15.9375 "/></g></g></g></svg>