<svg xmlns="http://www.w3.org/2000/svg" xmlns:xlink="http://www.w3.org/1999/xlink" width="450" zoomAndPan="magnify" viewBox="0 0 337.5 60" height="80" preserveAspectRatio="xMidYMid meet" version="1.0"><defs><g/><clipPath id="fc5a1baaf8"><path d="M 0 8 L 116 8 L 116 59.953125 L 0 59.953125 Z M 0 8 " clip-rule="nonzero"/></clipPath></defs><g clip-path="url(#fc5a1baaf8)"><path stroke-linecap="butt" transform="matrix(0.748891, 0, 0, 0.748891, 5.991124, 6.808295)" fill="none" stroke-linejoin="miter" d="M 15.868643 24.834011 C 15.58176 24.58364 15.154044 24.620153 14.898458 24.907035 C 12.087007 28.151418 7.669013 33.320523 6.954414 34.243764 C 6.73534 34.499351 6.526698 34.786233 6.307624 35.073116 C 6.020741 34.358517 5.66605 33.680431 5.207038 32.965832 C 3.490957 30.326511 1.957439 27.828023 2.030463 26.080647 C 2.108704 24.698393 2.818087 23.477838 3.996914 22.763239 C 4.951451 22.199906 6.020741 22.095585 6.839661 22.486788 C 7.163056 22.627622 7.590772 22.486788 7.736822 22.126881 C 7.914167 21.808702 7.773334 21.380986 7.413427 21.234937 C 6.203303 20.666387 4.628056 20.80722 3.282315 21.589628 C 1.712284 22.554597 0.783828 24.155924 0.679507 26.012838 C 0.575186 28.187931 2.14 30.790739 4.064723 33.711727 C 4.675001 34.634968 5.066204 35.532128 5.311359 36.387561 C 2.531204 40.163981 -0.462808 45.009691 1.07071 46.506697 C 1.321081 46.762283 1.634044 46.866604 1.957439 46.866604 C 2.531204 46.866604 3.177994 46.584938 3.845649 46.047684 C 5.780803 44.446357 7.773334 40.805555 6.808365 36.674443 C 7.199569 36.178919 7.590772 35.636449 8.023704 35.104412 C 8.738303 34.207252 13.151081 29.038147 15.936452 25.804196 C 16.186822 25.517313 16.145094 25.089597 15.868643 24.834011 Z M 4.283797 43.481388 C 3.313612 44.90537 2.348642 45.479135 2.030463 45.515647 C 1.88963 45.009691 2.348642 42.949351 5.66605 38.239258 C 5.812099 40.805555 4.742809 42.766789 4.283797 43.481388 Z M 32.15315 25.298239 C 31.829755 25.120893 31.402039 25.225214 31.229909 25.54861 C 27.844693 30.973301 24.986298 33.393548 24.37602 33.174474 C 24.37602 33.174474 23.666637 32.78327 24.344724 28.683455 C 24.595094 27.301202 24.699415 26.513579 24.021328 26.226696 C 23.38497 25.976326 22.993767 26.513579 22.247872 27.577653 C 21.637594 28.438301 20.818674 29.580616 19.921514 30.363023 C 19.817193 30.430832 19.425989 30.790739 19.243427 30.649906 C 18.71139 30.22219 18.607069 27.901048 19.853705 25.767684 C 20.067563 25.444289 19.921514 25.011356 19.598118 24.802714 C 19.285155 24.620153 18.852223 24.72969 18.680094 25.053085 C 17.250896 27.54114 17.110063 30.649906 18.356699 31.677468 C 18.680094 31.964351 19.566822 32.470307 20.818674 31.432313 C 21.637594 30.717715 22.352193 29.789258 22.915526 29.00685 C 22.420001 32.319042 22.706884 33.99861 23.880495 34.462838 C 24.057841 34.530647 24.240403 34.530647 24.37602 34.530647 C 27.093582 34.530647 31.469847 27.692406 32.367008 26.263208 C 32.57565 25.939813 32.471329 25.517313 32.15315 25.298239 Z M 54.430898 25.053085 C 54.144015 24.802714 53.679787 24.834011 53.429416 25.120893 C 50.581453 28.474813 48.656731 29.325029 47.796083 29.00685 C 47.050187 28.719968 46.622471 27.301202 46.658984 25.053085 C 46.658984 24.661881 46.69028 23.696912 45.907873 23.51435 C 45.021144 23.305708 44.374354 24.338486 42.486144 28.292252 C 42.167965 28.970338 41.881082 29.580616 41.703737 29.935307 C 41.484663 30.326511 41.349045 30.535153 41.244724 30.649906 C 41.062163 30.295215 40.806576 29.361542 40.853521 27.968857 C 40.853521 27.26469 40.853521 26.654412 40.884817 26.158887 C 40.921329 24.58364 40.957842 24.020307 40.311051 23.764721 C 39.747718 23.592591 39.356514 24.124628 39.241761 24.30719 C 37.676946 26.435338 36.284261 28.615647 34.818551 31.249752 C 35.392317 28.798208 36.43031 25.261727 37.744755 22.304227 C 37.890804 21.944319 37.744755 21.521819 37.390064 21.380986 C 37.030156 21.234937 36.638952 21.380986 36.466823 21.735677 C 35.465341 24.051603 34.46386 27.014319 33.712749 29.935307 C 32.539137 34.634968 33.003366 34.854042 33.436298 35.073116 C 33.540619 35.104412 33.64494 35.140925 33.749261 35.140925 C 34.103952 35.140925 34.427347 34.890554 34.71423 34.358517 C 36.43031 31.077622 37.859508 28.646943 39.492132 26.263208 C 39.492132 26.758733 39.460835 27.332499 39.460835 27.968857 C 39.460835 29.074659 39.596453 31.719196 40.921329 32.079104 C 41.990619 32.319042 42.66349 31.004597 42.91386 30.571665 C 43.132934 30.180462 43.409385 29.580616 43.73278 28.902529 C 44.123984 28.08361 44.770774 26.722221 45.308027 25.804196 C 45.375836 28.292252 46.053922 29.82577 47.33707 30.295215 C 49.084447 30.973301 51.468181 29.507591 54.498706 26.012838 C 54.749077 25.725955 54.71778 25.298239 54.430898 25.053085 Z M 76.599108 25.053085 C 76.312226 24.802714 75.847997 24.834011 75.597627 25.120893 C 72.749664 28.474813 70.830158 29.325029 69.964293 29.00685 C 69.218398 28.719968 68.790682 27.301202 68.827195 25.053085 C 68.827195 24.661881 68.863707 23.696912 68.076083 23.51435 C 67.189355 23.305708 66.547781 24.338486 64.659571 28.292252 C 64.336176 28.970338 64.049293 29.580616 63.871947 29.935307 C 63.658089 30.326511 63.517256 30.535153 63.412935 30.649906 C 63.230373 30.295215 62.980003 29.361542 63.021731 27.968857 C 63.021731 27.26469 63.021731 26.654412 63.058244 26.158887 C 63.08954 24.58364 63.126052 24.020307 62.479262 23.764721 C 61.915929 23.592591 61.524725 24.124628 61.409972 24.30719 C 59.845157 26.435338 58.452472 28.615647 56.991978 31.249752 C 57.565743 28.798208 58.598521 25.261727 59.912966 22.304227 C 60.064231 21.944319 59.912966 21.521819 59.558274 21.380986 C 59.198367 21.234937 58.807163 21.380986 58.635034 21.735677 C 57.633552 24.051603 56.632071 27.014319 55.886176 29.935307 C 54.707348 34.634968 55.171577 34.854042 55.604509 35.073116 C 55.70883 35.104412 55.813151 35.140925 55.917472 35.140925 C 56.277379 35.140925 56.595558 34.890554 56.887657 34.358517 C 58.598521 31.077622 60.027719 28.646943 61.665558 26.263208 C 61.665558 26.758733 61.629046 27.332499 61.629046 27.968857 C 61.629046 29.074659 61.769879 31.719196 63.08954 32.079104 C 64.15883 32.319042 64.831701 31.004597 65.082071 30.571665 C 65.301145 30.180462 65.577596 29.580616 65.900991 28.902529 C 66.292194 28.08361 66.938985 26.722221 67.476238 25.804196 C 67.549262 28.292252 68.227349 29.82577 69.505281 30.295215 C 71.252658 30.973301 73.641608 29.507591 76.666917 26.012838 C 76.922504 25.725955 76.885991 25.298239 76.599108 25.053085 Z M 93.561702 25.089597 C 93.243523 24.938332 92.815807 25.089597 92.674973 25.412992 C 89.962628 30.926357 87.933584 32.678949 86.968615 32.501604 C 86.572195 32.423363 85.294263 31.677468 84.970868 25.444289 C 84.970868 25.157406 84.75701 24.907035 84.511856 24.834011 C 84.224973 24.766202 83.901578 24.834011 83.760745 25.089597 C 83.546887 25.329535 83.338245 25.621634 83.11917 25.939813 C 82.232442 27.149937 81.048399 28.798208 79.629633 30.326511 C 79.410559 30.571665 79.23843 30.717715 79.123676 30.790739 C 78.878522 29.544104 80.192967 24.766202 82.300251 23.269196 C 82.900096 22.84148 83.729448 22.523301 84.835251 23.801233 C 85.075189 24.088116 85.502905 24.124628 85.789788 23.869042 C 86.076671 23.6604 86.113183 23.201387 85.894109 22.914504 C 84.548368 21.344474 83.260004 21.380986 82.404572 21.657437 C 79.666146 22.627622 77.809232 27.901048 77.741423 30.326511 C 77.694479 31.322776 77.986578 31.964351 78.560343 32.183425 C 79.447072 32.538116 80.344232 31.573147 80.620683 31.249752 C 81.841238 29.935307 82.947041 28.511326 83.729448 27.405523 C 84.120652 31.468826 85.075189 33.497869 86.686948 33.852561 C 86.827782 33.852561 86.968615 33.889073 87.114664 33.889073 C 89.534911 33.889073 92.13772 29.648425 93.885097 26.012838 C 94.057226 25.652931 93.921609 25.261727 93.561702 25.089597 Z M 111.171085 24.938332 C 110.816394 24.766202 110.388678 24.907035 110.247844 25.261727 C 106.148029 33.889073 102.256856 38.307067 101.40664 38.17145 C 101.333616 38.134937 100.081764 36.924814 104.11377 24.547128 C 104.218091 24.228949 104.468461 23.477838 103.905128 23.086634 C 103.362659 22.658918 102.752381 23.050122 101.761332 23.728208 C 100.692042 24.411511 99.231548 25.366048 98.089233 25.225214 C 101.730035 18.950307 101.370128 17.557622 100.551208 17.030801 C 99.262844 16.279689 97.411146 18.454782 96.555714 19.701418 C 94.808338 22.408548 94.84485 24.870523 96.696548 26.117159 C 98.584758 27.43682 101.046733 25.835492 102.512443 24.870523 C 102.543739 24.834011 102.543739 24.834011 102.580252 24.802714 C 101.187566 29.189412 100.300838 32.642437 99.977443 35.026172 C 99.586239 37.675925 99.873122 39.058178 100.864171 39.449382 C 101.046733 39.485894 101.187566 39.527622 101.370128 39.527622 C 104.218091 39.527622 109.178554 30.754227 111.49448 25.872005 C 111.630098 25.517313 111.49448 25.089597 111.171085 24.938332 Z M 96.764356 22.486788 C 97.270313 20.551634 98.944665 18.778177 99.69056 18.350461 C 99.622751 18.919011 99.231548 20.520338 96.946918 24.479319 C 96.696548 24.088116 96.524418 23.477838 96.764356 22.486788 Z M 130.778216 25.157406 C 130.559142 24.834011 130.131426 24.766202 129.80803 24.974844 C 126.746209 26.977807 123.611364 29.189412 120.617351 31.964351 C 121.045067 29.325029 121.472783 26.513579 121.863987 23.556079 C 121.931796 23.232684 121.723154 22.914504 121.404975 22.810184 C 121.118092 22.69543 120.758184 22.84148 120.617351 23.123146 C 119.907968 24.338486 118.332721 26.826542 116.945252 28.511326 C 116.439295 29.116387 115.943771 29.42935 115.6934 29.257221 C 115.093555 28.902529 114.665838 26.435338 116.048092 23.050122 C 116.199357 22.69543 116.016795 22.304227 115.6934 22.163393 C 115.338709 22.017344 114.942289 22.199906 114.806672 22.554597 C 113.340962 26.117159 113.413987 29.507591 115.02053 30.430832 C 115.41695 30.717715 116.554048 31.108918 117.972814 29.398054 C 118.723925 28.511326 119.433308 27.509844 120.080098 26.550091 C 119.725407 29.00685 119.365499 31.364505 118.974295 33.607406 C 115.980283 36.674443 113.168832 40.383055 110.743369 45.087931 C 106.67485 52.896358 105.928955 61.555 107.963215 64.053488 C 108.354418 64.549012 108.849943 64.804599 109.38198 64.804599 C 109.564542 64.804599 109.705375 64.768086 109.887937 64.726358 C 112.203863 64.053488 114.264203 58.920895 115.625592 54.706327 C 117.30516 49.469413 118.833462 42.625956 120.26266 34.243764 C 123.580067 30.926357 127.106117 28.370492 130.559142 26.117159 C 130.882537 25.908517 130.992074 25.480801 130.778216 25.157406 Z M 114.311147 54.278611 C 111.739635 62.410432 109.887937 63.307593 109.533246 63.411914 C 109.38198 63.44321 109.246363 63.44321 109.027289 63.19284 C 107.749357 61.628025 107.63982 54.038672 111.948277 45.687777 C 113.95124 41.880061 116.162845 38.734783 118.546579 36.064166 C 117.268647 43.444876 115.83945 49.547654 114.311147 54.278611 Z M 114.311147 54.278611 " stroke="#ffffff" stroke-width="2.673773" stroke-opacity="1" stroke-miterlimit="4"/></g><g fill="#000000" fill-opacity="1"><g transform="translate(5.991124, 31.521682)"><g><path d="M 11.890625 -6.109375 C 11.671875 -6.296875 11.34375 -6.28125 11.15625 -6.0625 C 9.046875 -3.625 5.734375 0.234375 5.203125 0.9375 C 5.046875 1.125 4.890625 1.328125 4.71875 1.546875 C 4.515625 1.015625 4.25 0.5 3.90625 -0.03125 C 2.609375 -2 1.46875 -3.875 1.515625 -5.1875 C 1.578125 -6.21875 2.109375 -7.125 2.984375 -7.65625 C 3.71875 -8.09375 4.515625 -8.171875 5.125 -7.875 C 5.375 -7.765625 5.6875 -7.875 5.796875 -8.140625 C 5.921875 -8.390625 5.828125 -8.703125 5.546875 -8.8125 C 4.640625 -9.234375 3.46875 -9.125 2.453125 -8.546875 C 1.28125 -7.828125 0.59375 -6.625 0.5 -5.234375 C 0.421875 -3.609375 1.609375 -1.65625 3.046875 0.53125 C 3.5 1.234375 3.796875 1.890625 3.984375 2.53125 C 1.890625 5.375 -0.34375 9 0.796875 10.125 C 0.984375 10.3125 1.234375 10.390625 1.46875 10.390625 C 1.890625 10.390625 2.375 10.171875 2.890625 9.765625 C 4.328125 8.578125 5.828125 5.84375 5.09375 2.75 C 5.390625 2.375 5.6875 1.96875 6.015625 1.578125 C 6.546875 0.90625 9.859375 -2.96875 11.9375 -5.390625 C 12.125 -5.609375 12.09375 -5.921875 11.890625 -6.109375 Z M 3.203125 7.84375 C 2.484375 8.921875 1.765625 9.34375 1.515625 9.375 C 1.421875 9 1.765625 7.453125 4.25 3.921875 C 4.359375 5.84375 3.546875 7.3125 3.203125 7.84375 Z M 3.203125 7.84375 "/></g></g></g><g fill="#000000" fill-opacity="1"><g transform="translate(19.444106, 31.521682)"><g><path d="M 10.625 -5.765625 C 10.390625 -5.90625 10.0625 -5.828125 9.9375 -5.578125 C 7.390625 -1.515625 5.265625 0.296875 4.8125 0.140625 C 4.8125 0.140625 4.265625 -0.15625 4.78125 -3.234375 C 4.96875 -4.265625 5.046875 -4.859375 4.546875 -5.078125 C 4.0625 -5.265625 3.765625 -4.859375 3.203125 -4.0625 C 2.75 -3.421875 2.140625 -2.5625 1.46875 -1.96875 C 1.390625 -1.921875 1.09375 -1.65625 0.96875 -1.765625 C 0.5625 -2.078125 0.484375 -3.8125 1.421875 -5.421875 C 1.578125 -5.65625 1.46875 -5.984375 1.234375 -6.140625 C 0.984375 -6.28125 0.671875 -6.1875 0.53125 -5.953125 C -0.53125 -4.078125 -0.640625 -1.765625 0.296875 -0.984375 C 0.53125 -0.78125 1.203125 -0.40625 2.140625 -1.171875 C 2.75 -1.703125 3.28125 -2.40625 3.71875 -2.984375 C 3.34375 -0.5 3.546875 0.75 4.4375 1.09375 C 4.5625 1.140625 4.703125 1.140625 4.8125 1.140625 C 6.84375 1.140625 10.125 -3.984375 10.78125 -5.046875 C 10.953125 -5.28125 10.875 -5.609375 10.625 -5.765625 Z M 10.625 -5.765625 "/></g></g></g><g fill="#000000" fill-opacity="1"><g transform="translate(31.696002, 31.521682)"><g><path d="M 15.0625 -5.953125 C 14.84375 -6.140625 14.5 -6.109375 14.3125 -5.90625 C 12.171875 -3.390625 10.734375 -2.75 10.09375 -2.984375 C 9.53125 -3.203125 9.21875 -4.265625 9.234375 -5.953125 C 9.234375 -6.25 9.265625 -6.96875 8.671875 -7.109375 C 8.015625 -7.265625 7.53125 -6.484375 6.109375 -3.53125 C 5.875 -3.015625 5.65625 -2.5625 5.53125 -2.296875 C 5.375 -2 5.265625 -1.84375 5.1875 -1.765625 C 5.046875 -2.03125 4.859375 -2.71875 4.890625 -3.765625 C 4.890625 -4.296875 4.890625 -4.75 4.90625 -5.125 C 4.9375 -6.296875 4.96875 -6.734375 4.484375 -6.921875 C 4.0625 -7.046875 3.765625 -6.65625 3.6875 -6.515625 C 2.515625 -4.90625 1.46875 -3.28125 0.375 -1.3125 C 0.796875 -3.15625 1.578125 -5.796875 2.5625 -8.015625 C 2.671875 -8.28125 2.5625 -8.59375 2.296875 -8.703125 C 2.03125 -8.8125 1.734375 -8.703125 1.609375 -8.4375 C 0.859375 -6.703125 0.109375 -4.484375 -0.453125 -2.296875 C -1.328125 1.234375 -0.984375 1.390625 -0.671875 1.546875 C -0.59375 1.578125 -0.5 1.609375 -0.421875 1.609375 C -0.15625 1.609375 0.078125 1.421875 0.296875 1.015625 C 1.578125 -1.4375 2.640625 -3.25 3.875 -5.046875 C 3.875 -4.671875 3.84375 -4.25 3.84375 -3.765625 C 3.84375 -2.9375 3.953125 -0.96875 4.9375 -0.6875 C 5.734375 -0.5 6.25 -1.5 6.4375 -1.8125 C 6.59375 -2.109375 6.8125 -2.5625 7.046875 -3.078125 C 7.34375 -3.6875 7.828125 -4.703125 8.21875 -5.390625 C 8.28125 -3.53125 8.78125 -2.375 9.75 -2.03125 C 11.0625 -1.515625 12.84375 -2.609375 15.109375 -5.234375 C 15.296875 -5.453125 15.28125 -5.765625 15.0625 -5.953125 Z M 15.0625 -5.953125 "/></g></g></g><g fill="#000000" fill-opacity="1"><g transform="translate(48.298529, 31.521682)"><g><path d="M 15.0625 -5.953125 C 14.84375 -6.140625 14.5 -6.109375 14.3125 -5.90625 C 12.171875 -3.390625 10.734375 -2.75 10.09375 -2.984375 C 9.53125 -3.203125 9.21875 -4.265625 9.234375 -5.953125 C 9.234375 -6.25 9.265625 -6.96875 8.671875 -7.109375 C 8.015625 -7.265625 7.53125 -6.484375 6.109375 -3.53125 C 5.875 -3.015625 5.65625 -2.5625 5.53125 -2.296875 C 5.375 -2 5.265625 -1.84375 5.1875 -1.765625 C 5.046875 -2.03125 4.859375 -2.71875 4.890625 -3.765625 C 4.890625 -4.296875 4.890625 -4.75 4.90625 -5.125 C 4.9375 -6.296875 4.96875 -6.734375 4.484375 -6.921875 C 4.0625 -7.046875 3.765625 -6.65625 3.6875 -6.515625 C 2.515625 -4.90625 1.46875 -3.28125 0.375 -1.3125 C 0.796875 -3.15625 1.578125 -5.796875 2.5625 -8.015625 C 2.671875 -8.28125 2.5625 -8.59375 2.296875 -8.703125 C 2.03125 -8.8125 1.734375 -8.703125 1.609375 -8.4375 C 0.859375 -6.703125 0.109375 -4.484375 -0.453125 -2.296875 C -1.328125 1.234375 -0.984375 1.390625 -0.671875 1.546875 C -0.59375 1.578125 -0.5 1.609375 -0.421875 1.609375 C -0.15625 1.609375 0.078125 1.421875 0.296875 1.015625 C 1.578125 -1.4375 2.640625 -3.25 3.875 -5.046875 C 3.875 -4.671875 3.84375 -4.25 3.84375 -3.765625 C 3.84375 -2.9375 3.953125 -0.96875 4.9375 -0.6875 C 5.734375 -0.5 6.25 -1.5 6.4375 -1.8125 C 6.59375 -2.109375 6.8125 -2.5625 7.046875 -3.078125 C 7.34375 -3.6875 7.828125 -4.703125 8.21875 -5.390625 C 8.28125 -3.53125 8.78125 -2.375 9.75 -2.03125 C 11.0625 -1.515625 12.84375 -2.609375 15.109375 -5.234375 C 15.296875 -5.453125 15.28125 -5.765625 15.0625 -5.953125 Z M 15.0625 -5.953125 "/></g></g></g><g fill="#000000" fill-opacity="1"><g transform="translate(64.901053, 31.521682)"><g><path d="M 11.15625 -5.921875 C 10.921875 -6.03125 10.59375 -5.921875 10.5 -5.6875 C 8.46875 -1.546875 6.9375 -0.234375 6.21875 -0.375 C 5.921875 -0.421875 4.96875 -0.984375 4.71875 -5.65625 C 4.71875 -5.875 4.5625 -6.0625 4.375 -6.109375 C 4.171875 -6.171875 3.921875 -6.109375 3.8125 -5.921875 C 3.65625 -5.734375 3.5 -5.53125 3.34375 -5.28125 C 2.671875 -4.375 1.796875 -3.15625 0.71875 -2 C 0.5625 -1.8125 0.421875 -1.703125 0.34375 -1.65625 C 0.15625 -2.59375 1.140625 -6.171875 2.71875 -7.296875 C 3.171875 -7.609375 3.796875 -7.84375 4.625 -6.890625 C 4.8125 -6.671875 5.125 -6.65625 5.34375 -6.84375 C 5.546875 -7 5.578125 -7.34375 5.421875 -7.5625 C 4.40625 -8.734375 3.4375 -8.703125 2.796875 -8.484375 C 0.75 -7.765625 -0.640625 -3.8125 -0.6875 -2 C -0.71875 -1.25 -0.5 -0.78125 -0.078125 -0.609375 C 0.59375 -0.34375 1.25 -1.0625 1.46875 -1.3125 C 2.375 -2.296875 3.203125 -3.359375 3.796875 -4.1875 C 4.078125 -1.140625 4.8125 0.375 6.015625 0.640625 C 6.109375 0.640625 6.21875 0.671875 6.328125 0.671875 C 8.140625 0.671875 10.09375 -2.515625 11.40625 -5.234375 C 11.53125 -5.5 11.421875 -5.796875 11.15625 -5.921875 Z M 11.15625 -5.921875 "/></g></g></g><g fill="#000000" fill-opacity="1"><g transform="translate(77.526616, 31.521682)"><g><path d="M 11.71875 -6.03125 C 11.453125 -6.171875 11.140625 -6.0625 11.03125 -5.796875 C 7.953125 0.671875 5.046875 3.984375 4.40625 3.875 C 4.359375 3.84375 3.421875 2.9375 6.4375 -6.328125 C 6.515625 -6.5625 6.703125 -7.125 6.28125 -7.421875 C 5.875 -7.75 5.421875 -7.453125 4.671875 -6.9375 C 3.875 -6.4375 2.78125 -5.71875 1.921875 -5.828125 C 4.640625 -10.515625 4.375 -11.5625 3.765625 -11.96875 C 2.796875 -12.53125 1.421875 -10.890625 0.78125 -9.953125 C -0.53125 -7.9375 -0.5 -6.09375 0.875 -5.15625 C 2.296875 -4.171875 4.140625 -5.375 5.234375 -6.09375 C 5.265625 -6.109375 5.265625 -6.109375 5.28125 -6.140625 C 4.25 -2.859375 3.578125 -0.265625 3.34375 1.515625 C 3.046875 3.5 3.25 4.546875 4 4.828125 C 4.140625 4.859375 4.25 4.890625 4.375 4.890625 C 6.515625 4.890625 10.234375 -1.6875 11.96875 -5.34375 C 12.0625 -5.609375 11.96875 -5.921875 11.71875 -6.03125 Z M 0.9375 -7.875 C 1.3125 -9.3125 2.5625 -10.65625 3.125 -10.96875 C 3.078125 -10.546875 2.78125 -9.34375 1.0625 -6.375 C 0.875 -6.671875 0.75 -7.125 0.9375 -7.875 Z M 0.9375 -7.875 "/></g></g></g><g fill="#000000" fill-opacity="1"><g transform="translate(90.872833, 31.521682)"><g><path d="M 13.0625 -5.875 C 12.890625 -6.109375 12.578125 -6.171875 12.34375 -6.015625 C 10.046875 -4.515625 7.6875 -2.859375 5.453125 -0.78125 C 5.765625 -2.75 6.09375 -4.859375 6.375 -7.078125 C 6.4375 -7.3125 6.28125 -7.5625 6.03125 -7.640625 C 5.828125 -7.71875 5.546875 -7.609375 5.453125 -7.390625 C 4.90625 -6.484375 3.734375 -4.625 2.703125 -3.359375 C 2.328125 -2.90625 1.953125 -2.671875 1.765625 -2.796875 C 1.3125 -3.078125 0.984375 -4.90625 2.03125 -7.453125 C 2.140625 -7.71875 2 -8.015625 1.765625 -8.125 C 1.5 -8.21875 1.203125 -8.09375 1.09375 -7.828125 C 0 -5.15625 0.046875 -2.609375 1.25 -1.921875 C 1.546875 -1.703125 2.40625 -1.421875 3.46875 -2.703125 C 4.03125 -3.359375 4.5625 -4.109375 5.046875 -4.828125 C 4.78125 -2.984375 4.515625 -1.234375 4.21875 0.453125 C 1.96875 2.75 -0.140625 5.53125 -1.953125 9.046875 C -5 14.90625 -5.546875 21.390625 -4.03125 23.265625 C -3.734375 23.625 -3.359375 23.8125 -2.96875 23.8125 C -2.828125 23.8125 -2.71875 23.796875 -2.59375 23.765625 C -0.859375 23.265625 0.6875 19.40625 1.703125 16.265625 C 2.96875 12.34375 4.109375 7.203125 5.1875 0.9375 C 7.65625 -1.546875 10.3125 -3.46875 12.890625 -5.15625 C 13.140625 -5.3125 13.21875 -5.640625 13.0625 -5.875 Z M 0.71875 15.9375 C -1.203125 22.03125 -2.59375 22.703125 -2.859375 22.78125 C -2.96875 22.796875 -3.078125 22.796875 -3.234375 22.625 C -4.1875 21.4375 -4.265625 15.75 -1.046875 9.5 C 0.453125 6.65625 2.109375 4.296875 3.90625 2.296875 C 2.9375 7.828125 1.875 12.390625 0.71875 15.9375 Z M 0.71875 15.9375 "/></g></g></g></svg>